<svg xmlns="http://www.w3.org/2000/svg" viewBox="0 0 126.25 125">
    <defs>
        <style>
            .cls-1 {
                fill: #b38c35;
            }

            .cls-2 {
                fill: #c79c3b;
            }

            .cls-3 {
                fill: #e8c531;
            }

            .cls-4 {
                fill: #ffde3e;
            }
        </style>
    </defs>
    <title>banana</title>
    <g id="Layer_2" data-name="Layer 2">
        <g id="Layer_19" data-name="Layer 19">
            <g id="Banana">
                <path class="cls-1" d="M117.44,17.35l-5.57.32,0-.14L107.14,3.1A2,2,0,0,1,108.77.56L112,.18,113.45,0a2,2,0,0,1,2.16,1.72Z" />
                <path class="cls-2" d="M115,17.35l-3.18.18L107.14,3.1A2,2,0,0,1,108.77.56L112,.18a1.93,1.93,0,0,1,1.14,1.55Z" />
                <path class="cls-3" d="M125.94,64.1c-1.62,35.24-33.17,56.59-60.07,60.3-24.65,3.39-63.2-8-65.73-24.69,11.06,12.14,41.09,19.48,61.56,16.67,26.89-3.71,58.44-25.06,60.06-60.31.83-18,0-30.48-2.35-38.4C124.91,23.45,127.14,38,125.94,64.1Z" />
                <path class="cls-4" d="M121.76,56.07c-1.62,35.25-33.17,56.6-60.06,60.31C41.23,119.19,11.2,111.85.14,99.71A10.24,10.24,0,0,1,0,98c0-6.49,34.62,9.1,71.67-11.83,46.38-26.21,30.4-71.44,40.82-71.44a9.15,9.15,0,0,1,6.91,3s0,0,0,0C121.78,25.59,122.59,38.09,121.76,56.07Z" />
            </g>
        </g>
    </g>
</svg>