<svg xmlns="http://www.w3.org/2000/svg" viewBox="0 0 122.98 125"><defs><style>.cls-1{fill:#dc2e3f;}.cls-2{fill:#dc4655;}.cls-3{fill:none;stroke:#443111;stroke-linecap:round;stroke-linejoin:round;stroke-width:2.74px;}.cls-4{fill:#58a840;}.cls-5{fill:#4c9137;}</style></defs><title>cherry</title><g id="Layer_2" data-name="Layer 2"><g id="Layer_19" data-name="Layer 19"><g id="Cherry"><path class="cls-1" d="M114.92,61.46A29.91,29.91,0,1,1,72.65,60,29.74,29.74,0,0,1,114.92,61.46Z"/><path class="cls-2" d="M114.92,61.46a29.74,29.74,0,0,1,7.9,17.26,29.91,29.91,0,0,1-58.74-4.17,29.91,29.91,0,0,1,50.84-13.09Z"/><path class="cls-1" d="M59.82,95.09A29.91,29.91,0,1,1,29.91,65.18,29.79,29.79,0,0,1,59.82,95.09Z"/><path class="cls-2" d="M59.82,95.09a29.79,29.79,0,0,1-6,18A29.91,29.91,0,0,1,13.74,69.93,29.91,29.91,0,0,1,59.82,95.09Z"/><path class="cls-3" d="M83.06,66.23S87.65,45.77,59.21,27C61.72,64.08,37,76.63,37,76.63"/><ellipse class="cls-4" cx="36.05" cy="25.25" rx="11.79" ry="24.28" transform="translate(6.88 58.21) rotate(-83.49)"/><ellipse class="cls-5" cx="39.77" cy="14.84" rx="11.79" ry="24.28" transform="translate(5.74 40.22) rotate(-57.18)"/></g></g></g></svg>