<svg version="1.1" id="layer" xmlns="http://www.w3.org/2000/svg" xmlns:xlink="http://www.w3.org/1999/xlink" x="0px" y="0px"
 viewBox="0 0 600 107" style="enable-background:new 0 0 600 107;" xml:space="preserve">
	<style type="text/css">
		.st0 {
			fill: #00B1B0;
		}
	</style>
	<g>
		<path class="st0" d="M0,0.1h37.3c29.3,0,34.8,19.5,34.8,52.8c0,16.4,2.5,54-35.6,54H0V0.1z M22.4,90.5h10.8
		c13.7,0,16.3-10.2,16.3-37c0-19.7,0-37-15.6-37H22.4V90.5z" />
		<path class="st0" d="M68.2,106.9L97.8,0h29.4l29,106.9h-23.6l-6-23.6H96.1l-6,23.6C90.1,106.9,68.2,106.9,68.2,106.9z M111.3,20.6
		H111l-10.2,46.2h21.4L111.3,20.6z" />
		<path class="st0" d="M138.5,0.1h23.3l16.6,77.7h0.3l18.7-77.7h22.1L191.3,107H165L138.5,0.1z" />
		<path class="st0" d="M225.6,106.9V0.1H248V107h-22.4V106.9z" />
		<path class="st0" d="M256.1,0.1h37.3c29.3,0,34.8,19.5,34.8,52.8c0,16.4,2.5,54-35.6,54h-36.4L256.1,0.1L256.1,0.1z M278.4,90.5
		h10.8c13.7,0,16.3-10.2,16.3-37c0-19.7,0-37-15.6-37h-11.5C278.4,16.5,278.4,90.5,278.4,90.5z" />
		<path class="st0" d="M441.1,0.1v17.8h-26.9V107h-22.4V17.9h-31.1V0.1H441.1z" />
		<path class="st0" d="M447.3,106.9V0.1h58.3v16.4h-35.9v26.3h33.2v16.4h-33.2v31.3h37.1v16.4L447.3,106.9L447.3,106.9z" />
		<path class="st0" d="M512,106.9L541.6,0H571l29,106.9h-23.6l-6-23.6H540l-6,23.6C533.9,106.9,512,106.9,512,106.9z M555,20.6h-0.3
		l-10.2,46.2h21.4L555,20.6z" />
		<g>
			<g>
				<path class="st0" d="M352.3,81.6c-0.1,3.4,0,6.6,0.8,9c1,2.4,2.8,3.5,6.2,3.5c3.4,0,6.4-2.7,6.4-7.6c0-15.7-30.4-12.2-30.4-35.8
				c0-15.9,13.2-20.8,24.4-20.8c11.7,0,22.5,6.8,21.4,22.7h-17c0-5.1-0.5-8.2-1.7-9.5c-1.1-1.3-2.6-1.6-4.4-1.6
				c-3.8,0-5.9,2.9-5.9,7.9c0,11.7,30.4,11.2,30.4,34.9c0,12.9-8.8,22.6-23.2,22.6c-15,0-25.1-4.6-24.1-25.2h17.1V81.6z" />
			</g>
		</g>
	</g>
</svg>