<svg xmlns="http://www.w3.org/2000/svg" viewBox="0 0 106.25 125"><defs><style>.cls-1{fill:#6aad56;}.cls-2{fill:#75bc5c;}.cls-3{fill:#4c9137;}.cls-4{fill:none;stroke:#443111;stroke-linecap:round;stroke-linejoin:round;stroke-width:3.38px;}</style></defs><title>green-apple</title><g id="Layer_2" data-name="Layer 2"><g id="Layer_19" data-name="Layer 19"><g id="Green_Apple" data-name="Green Apple"><path class="cls-1" d="M106.25,76.09c0,24.63-23.75,48.91-39,48.91-12.33,0-14-1.11-14.13-1.54a.18.18,0,0,0,0-.16.18.18,0,0,0,0,.16C53,123.89,51.32,125,39,125c-7.61,0-17.34-6-25.18-15.17S0,88.43,0,76.09C0,51.46,5,33.28,19.06,29.47s26.39,2.05,34.06,2.05,20-5.85,34-2.05h0C101.26,33.28,106.25,51.46,106.25,76.09Z"/><path class="cls-2" d="M93.35,65c0,24.63-23.75,48.91-39,48.91-12.33,0-14-1.11-14.13-1.54,0-.1,0-.1,0,0-.17.43-1.8,1.54-14.12,1.54-3.75,0-8-1.46-12.28-4C6,100.68,0,88.43,0,76.09,0,51.46,5,33.28,19.06,29.47s26.39,2.05,34.06,2.05,20-5.85,34-2.05C91.58,37.89,93.35,50.27,93.35,65Z"/><ellipse class="cls-3" cx="62.12" cy="12.35" rx="17.01" ry="8.26" transform="translate(10.12 48.52) rotate(-46.07)"/><path class="cls-4" d="M37.05,9.06s14.23,2.16,16.06,29.17"/></g></g></g></svg>