<svg xmlns="http://www.w3.org/2000/svg" xmlns:xlink="http://www.w3.org/1999/xlink" viewBox="0 0 366.81 466.38"><defs><style>.cls-1,.cls-2,.cls-3,.cls-4{fill-opacity:0.45;stroke:#e6e6e6;stroke-miterlimit:10;stroke-width:1.5px;}.cls-1{fill:url(#linear-gradient);}.cls-2{fill:url(#linear-gradient-2);}.cls-3{fill:#fff;}.cls-4{fill:url(#linear-gradient-3);}</style><linearGradient id="linear-gradient" x1="254.8" y1="240.75" x2="366.06" y2="240.75" gradientUnits="userSpaceOnUse"><stop offset="0" stop-color="#fff" stop-opacity="0.9"/><stop offset="1" stop-color="#ccc" stop-opacity="0.9"/></linearGradient><linearGradient id="linear-gradient-2" x1="127.8" y1="462.78" x2="127.8" y2="127.33" gradientUnits="userSpaceOnUse"><stop offset="0.14" stop-color="#fdf1c4"/><stop offset="0.58" stop-color="#b89a65"/><stop offset="1" stop-color="#a08049"/></linearGradient><linearGradient id="linear-gradient-3" x1="127.9" y1="88.49" x2="127.9" y2="41.36" xlink:href="#linear-gradient"/></defs><title>matcha-ice-cream-cup</title><g id="Layer_2" data-name="Layer 2"><g id="Matcha_Ice_Cream" data-name="Matcha Ice Cream"><g id="Matcha_Ice_Cream_Cup" data-name="Matcha Ice Cream Cup"><path class="cls-1" d="M362.35,250.22c-8,56.12-57.84,99.38-107.55,110v-21.3c17.1-3.18,39.45-9.62,52.51-22.43,23.27-22.82,43.85-51.46,45.19-94,1.33-41.87-4.39-87.27-97.7-82.46V121.33c12.24,1.06,62.15,0,83.39,17.48C363.13,159.33,371.74,184.45,362.35,250.22Z"/><path class="cls-2" d="M254.8,140.52V374.13a91.5,91.5,0,0,1-91.5,91.5h-71A91.51,91.51,0,0,1,.8,374.13V140.52Z"/><path class="cls-3" d="M254.8,99.14v41.38H.8V99.14a9.53,9.53,0,0,1,9.52-9.53h235A9.53,9.53,0,0,1,254.8,99.14Z"/><path class="cls-4" d="M.8,98S-2.1,53.18,34.57,42.07,62.36,26.21,73,14.58,93.94.83,93.94.83s15.73,20.62,52.4,26.44,51.37,4.64,59.33,9.91A86.77,86.77,0,0,1,222,51.06s36.32,19.45,32.77,47"/></g></g></g></svg>