<svg xmlns="http://www.w3.org/2000/svg" viewBox="0 0 432 412.86"><defs><style>.cls-1{fill:#5f5326;}.cls-2{fill:#7d5e00;}.cls-3{fill:#4b3c1e;}.cls-4{fill:#8b7931;}.cls-5{fill:#a1934c;}.cls-6{fill:#493732;}.cls-7{fill:#5a5144;}.cls-8{fill:#84783b;}.cls-9{fill:#363114;}.cls-10{fill:#453b30;}.cls-11{fill:#e9db8f;}.cls-12{fill:#785b2b;}.cls-13{fill:#ddcb79;}.cls-14{fill:#957a2c;}.cls-15{fill:#f2e195;}.cls-16{fill:#f3e28c;}.cls-17{fill:#947534;}.cls-18{fill:#a47e32;}.cls-19{fill:#8d6e2b;}.cls-20{fill:#baa049;}.cls-21{fill:#d8c477;}.cls-22{fill:#a4853b;}.cls-23{fill:#dcca77;}.cls-24{fill:#b49f4e;}.cls-25{fill:#a68532;}.cls-26{fill:#7d6232;}.cls-27{fill:#877538;}.cls-28{fill:#d4c088;}.cls-29{fill:#bca968;}</style></defs><title>matcha-ice-cream-tea</title><g id="Layer_2" data-name="Layer 2"><g id="Matcha_Ice_Cream" data-name="Matcha Ice Cream"><g id="Matcha_Ice_Cream-2" data-name="Matcha Ice Cream"><g id="Layer_18" data-name="Layer 18"><path class="cls-1" d="M51.51,231.51A136.57,136.57,0,0,1,66,252.37c3.69,6.83,6.56,14.07,10.36,20.85a109.05,109.05,0,0,0,12.76,18.33c5,5.71,11.75,12.26,19.32,14,6.89,1.63,13.61-7.56,7.43-12.77-5.6-4.72-11.79-7.89-16.9-13.32s-9.27-11.8-13.42-18.07c-8.38-12.66-16.26-27.72-28.71-36.84-4.35-3.18-8.23,3.36-5.34,6.92Z"/><path class="cls-1" d="M209.85,126.8c14-4.08,27.41-10.19,40.33-16.89,6.32-3.27,12.6-6.66,18.74-10.27s13.8-7.43,18.5-13.07c3.78-4.55-.84-10.1-6.08-7.88-6.39,2.7-12,8-17.67,12-5.87,4.06-11.87,7.88-18.09,11.37-12.42,7-25.41,12.64-38.41,18.42-3.62,1.61-1,7.43,2.68,6.34Z"/><path class="cls-1" d="M214.71,183.23c2.62,2.44,6.2,3.51,9.41,5.07,3.5,1.72,7,3.53,10.45,5.28,6.75,3.36,13.42,6.9,20.24,10.12a138.52,138.52,0,0,0,20.4,8c6.74,2,14.35,4.31,21,1.17,2.63-1.24,2.18-5,0-6.39-5.69-3.54-13.39-3.42-19.78-5.31a158,158,0,0,1-20.35-7.9c-6.63-3-13.15-6.31-19.81-9.26-5.52-2.44-13.19-6.64-19.3-6.26-2.61.16-4.4,3.45-2.25,5.44Z"/><path class="cls-1" d="M335.42,233.61a190.82,190.82,0,0,0,41.32-13.09,181.94,181.94,0,0,0,18.7-9.58c5.73-3.36,13.94-7.14,16.76-13.5,1.14-2.59-.12-6.58-3.61-6.28-6.63.58-12,5.4-17.57,8.75-6,3.63-12.16,6.94-18.42,10.08a248.32,248.32,0,0,1-39.47,15.31c-5.37,1.62-3.11,9.33,2.29,8.31Z"/><path class="cls-1" d="M330.6,248.76q14,5.81,28.08,11.6c4.54,1.89,9,3.82,13.66,5.39s8.89,3.61,14,3.14a2.66,2.66,0,0,0,1.86-4.48c-3.41-3.79-7.72-5.05-12.28-7.12s-9.19-3.71-13.87-5.42c-9.78-3.57-19.54-7.19-29.31-10.79-4.89-1.8-6.75,5.77-2.12,7.68Z"/><path class="cls-1" d="M384.37,246.62c29.92-16.7,42.85-54.56,47.61-86.44.33-2.2-3-4.21-4-1.69-6.52,15.39-11.28,31.74-18.92,46.65a102.14,102.14,0,0,1-28.59,34.76c-3.87,2.95-.58,9.23,3.93,6.72Z"/><path class="cls-1" d="M392.53,313.81c3.61-2,4.45-7.08,5.62-10.8,1.42-4.5,2.91-9.4,2.54-14.16a2.75,2.75,0,0,0-5.07-1.37c-2.85,3.8-4.23,8.79-5.45,13.33-1,3.86-3,8.41-1,12.13a2.47,2.47,0,0,0,3.33.87Z"/><path class="cls-1" d="M232,358.57c12.56,2.81,25.85,3.6,38.65,5,12.33,1.35,26.17,4.51,38.52,2.78,3.4-.48,2.53-5.11,0-6.06-5.76-2.15-12.59-2.54-18.69-3.26-6.27-.74-12.56-1.38-18.84-2.07-12.75-1.39-25.86-3.5-38.68-3.47-4,0-5,6.19-1,7.09Z"/><path class="cls-1" d="M229.33,382c14.23-1.93,28.48-3.81,42.79-5,6.86-.58,13.7-1.31,20.57-1.83,6.66-.5,13.75-.73,20.24-2.35,2.19-.55,2.28-4,0-4.52-13.51-2.9-29.13-1.14-42.76.23a406,406,0,0,0-42.81,6.34c-4.78,1-2.61,7.77,2,7.14Z"/><path class="cls-1" d="M225,405.31a426.42,426.42,0,0,0,57.09-10Q296,392,309.89,388c8.49-2.48,18.87-4.9,25.5-11,2.23-2.06.32-5.29-2.29-5.53-8.88-.8-18.69,3.41-27.14,5.9-8.9,2.62-17.86,5.07-26.88,7.29-18.34,4.53-36.81,8.14-55.33,11.79-5,1-3.92,9.44,1.2,8.93Z"/><path class="cls-1" d="M160.21,371.74c11.38,2.81,22.85,5.23,34.4,7.18,10.95,1.85,22.57,4.34,33.7,3.2a1.79,1.79,0,0,0,.47-3.5c-10.82-3.25-22.46-3.68-33.58-5.51s-22.41-4.13-33.49-6.79c-3.52-.84-5,4.55-1.5,5.42Z"/><path class="cls-1" d="M85,365.18a324.35,324.35,0,0,0,32.75,17.11c10.14,4.57,21.35,10.23,32.53,11.32,2,.19,2.51-2.67,1-3.58-9.87-5.83-21.83-8.76-32.31-13.4a324.28,324.28,0,0,1-31.29-16c-2.93-1.69-5.55,2.81-2.65,4.54Z"/><path class="cls-1" d="M142,378.25c1.12-13.59-6.13-31.19-18.63-37.81a2.27,2.27,0,0,0-3.08,3.07c3,5.65,6.87,10.87,9.82,16.61,3.09,6,4.76,12.42,6.64,18.84.88,3,5,2.23,5.25-.71Z"/><path class="cls-1" d="M160.26,377.31c2.42-8.29,2.81-17.78,2.44-26.33a2.27,2.27,0,0,0-4.19-1.13c-4.76,8.13-7.14,18-5.58,27.46.65,3.87,6.35,3.34,7.33,0Z"/><path class="cls-1" d="M159.69,342.64c3.11-5.88,8.71-9.59,13.59-13.91a132.88,132.88,0,0,0,24.61-29.18c3.1-5.1,6.62-11,6.91-17.08.12-2.57-3-3.41-4.72-2-4.58,3.92-7.46,10-10.85,14.95a156.94,156.94,0,0,1-12.14,15.65A154.11,154.11,0,0,1,164,324.17c-4.71,4.13-9.4,8.1-12.28,13.79-2.68,5.3,5.22,10,8,4.68Z"/><path class="cls-1" d="M192.66,309.24q8.1-5.13,16.44-9.87c5.11-2.91,11.27-5.22,15.39-9.5,1.75-1.81.55-5.21-2.12-5.12-6.27.21-12.42,3.93-17.75,7a117,117,0,0,0-16.56,11.57c-3.34,2.74,1,8.25,4.6,6Z"/><path class="cls-1" d="M164.71,297.35c5-4.3,10.09-8.45,15.38-12.36,4.8-3.55,9.82-6.68,14.21-10.74,2.56-2.37-.69-5.71-3.46-4.49-11.39,5-21.65,14.64-30.9,22.82-3.27,2.89,1.51,7.59,4.77,4.77Z"/><path class="cls-1" d="M225.94,257.09a63.9,63.9,0,0,0,24.42-29.88c2.69-6.81,3.77-14,5-21.12,1.3-7.36,3.89-14.47,5.1-21.81.31-1.86-1.85-3.54-3.37-2-4.21,4.37-5.86,10.43-7.35,16.16-1.75,6.76-3.07,13.62-5,20.35-3.68,13.17-11.09,24.41-22.38,32.28-3.62,2.53-.26,8.48,3.5,6Z"/><path class="cls-1" d="M267.94,232.14c1.6-8.3,6-16.15,6.94-24.48.34-3-3.52-3.73-5.36-2.22-6.75,5.53-9,16.12-10.26,24.3-.89,5.62,7.57,8.15,8.68,2.4Z"/><path class="cls-1" d="M278.87,238.17c2.56-3.06,5.72-6.06,7.37-9.71a3.11,3.11,0,0,0-.47-3.63,3,3,0,0,0-3.64-.47c-3.36,2.25-5.75,5.64-8.37,8.7a3.72,3.72,0,0,0,0,5.11c1.29,1.28,3.85,1.5,5.11,0Z"/><path class="cls-1" d="M245.61,273.57c9.28-10.4,17.75-21,23.75-33.62.92-1.93-1.55-4.28-3.17-2.45-8.85,10.06-16.88,20.82-25.82,30.84-3.16,3.54,2.06,8.8,5.24,5.23Z"/><path class="cls-1" d="M161.75,154.57a185.41,185.41,0,0,1,37.83-13.52c6.42-1.53,12.89-2.57,19.41-3.56,6.29-1,13.19-1.08,19.27-3a2.32,2.32,0,0,0,0-4.43c-6.38-1.63-13.8-.87-20.3-.22a161.32,161.32,0,0,0-20.46,3.6,193.52,193.52,0,0,0-39.77,14.2c-4.62,2.22-.58,9.11,4,6.88Z"/><path class="cls-1" d="M242,124.5c3-1.79,6-3.34,9.1-5,2.84-1.5,6-2.59,8.48-4.62,1.85-1.5.28-4.58-1.89-4.56-3.38,0-6.64,1.66-9.75,2.87a61.08,61.08,0,0,0-9.53,5.11c-3.9,2.4-.35,8.53,3.59,6.15Z"/><path class="cls-1" d="M263.4,78.33c7.2,4.51,14.44,8.93,21.68,13.38,6.83,4.19,13.65,9.09,21.19,11.86,2.69,1,4.53-2.76,2.69-4.62-5.62-5.7-13.2-9.73-20.07-13.77-7.34-4.32-14.76-8.36-22.42-12.12-3.49-1.72-6.42,3.16-3.07,5.27Z"/><path class="cls-1" d="M88,72.73c.15.83,4.94-2.77,5.31-3,1.93-1.37,3.86-2.72,5.83-4,3.68-2.46,7.46-4.78,11.3-7,8-4.53,16-8.86,23.67-13.76a2,2,0,0,0-1.51-3.6c-11.58,2.61-22.08,8.09-32,14.57-4.71,3.07-9.3,6.33-13.69,9.84-2.9,2.32-7.22,5.31-4.56,9.38A3.11,3.11,0,0,0,88,72.73Z"/><path class="cls-1" d="M111.82,49.84c7.26-9.27,16.89-15.61,27.5-20.51A181.56,181.56,0,0,1,157,22.55c5.49-1.87,11.65-3.59,16.63-6.6a2.27,2.27,0,0,0-1.13-4.2c-6.36.13-13.18,2.28-19.18,4.26a117.68,117.68,0,0,0-18.18,7.72,75.85,75.85,0,0,0-26.73,23.44c-1.41,2,1.91,4.65,3.46,2.67Z"/><path class="cls-1" d="M29.61,129.26a115.85,115.85,0,0,0-1.43,22c.26,6.5.53,15,4.2,20.61,1.37,2.09,5.56,2.24,6-.78.92-6.43-1.1-13.36-1.64-19.83a137.09,137.09,0,0,1-.13-21.06c.29-4-6.4-4.94-7-1Z"/><path class="cls-1" d="M33.9,172.53a158.44,158.44,0,0,1,11.71-12.46c3.72-3.54,8.92-7,11.47-11.53a3.27,3.27,0,0,0-3.65-4.75c-4.94,1.46-9.59,6.2-13.23,9.72A156,156,0,0,0,28.07,166.7c-3.34,4.05,2.38,9.91,5.83,5.83Z"/><path class="cls-1" d="M38.32,145.89q9.76,7.49,19.18,15.44c4.79,4.06,10.51,10.84,16.82,12.25,1.25.28,2.76-.86,2.25-2.25-2.42-6.51-10.38-11.2-15.67-15.29q-9.8-7.57-19.93-14.69c-2.81-2-5.26,2.53-2.65,4.54Z"/><path class="cls-1" d="M60.77,146.5C67.32,154,73.81,163,82,168.72c1.83,1.28,3.8-1.16,2.88-2.89-4.69-8.81-13-16.42-19.59-23.84-2.73-3.07-7.2,1.44-4.5,4.51Z"/><path class="cls-1" d="M10.32,208.72q15.27-1.66,30.45-4.06c9.64-1.54,20.61-2.6,29.34-7.22,2.13-1.13,1-4.14-1.16-4.28-9.33-.6-19.16,2.27-28.32,3.83q-15.09,2.56-30.31,4.33c-4.66.54-4.75,7.92,0,7.4Z"/><path class="cls-1" d="M41.29,215.14c15.23-4.23,31.09-7.57,45.59-14,2.07-.92,1.09-4.65-1.18-4.37C70,198.73,54.62,204,39.37,208.18c-4.48,1.22-2.57,8.2,1.92,7Z"/><path class="cls-1" d="M85,204.3c6.43-5.48,14.17-9.83,19.64-16.26a2.18,2.18,0,0,0-2.1-3.61c-8.76,2.17-16.15,8.77-23,14.36-3.86,3.14,1.69,8.76,5.51,5.51Z"/><path class="cls-1" d="M94.78,234.72c6.55-7,13.61-14.64,16.92-23.67.79-2.17-2.15-4.52-4.07-3.12-7.76,5.68-13.18,14.53-18.08,22.76-1.91,3.21,2.61,6.82,5.23,4Z"/><path class="cls-1" d="M102.57,255.71a102.56,102.56,0,0,1,9.66-10.85c3.11-3.06,7.15-5.94,9.43-9.67a3.13,3.13,0,0,0-3.49-4.55c-4.43,1.32-8.5,5.23-11.78,8.38A106,106,0,0,0,96,250.65a4.16,4.16,0,1,0,6.56,5.06Z"/><path class="cls-1" d="M105.5,267.45q7.6-5.51,15-11.25c4.63-3.6,10.12-7.7,13.39-12.6,1.61-2.41-1.42-4.57-3.59-3.6-4.81,2.17-9.53,6.39-13.66,9.71-4.87,3.91-9.82,7.7-14.84,11.42-3.73,2.76-.15,9.09,3.69,6.32Z"/><path class="cls-1" d="M27,264.25a239.63,239.63,0,0,0,20.79,23.21c6.86,6.65,14.53,14.88,23.34,18.89A2.4,2.4,0,0,0,74,302.6c-6.16-7.67-15.13-13.58-22.29-20.35-7.31-6.93-14.43-14.08-21.16-21.57-2.22-2.48-5.56,1.08-3.58,3.57Z"/><path class="cls-1" d="M66,332.13c-2-9.59-2.65-19.48-3.67-29.18-.21-2.05-3.56-3-4-.54-1.73,10.68-.59,20.78,1.75,31.34.85,3.84,6.67,2.2,5.88-1.62Z"/><path class="cls-1" d="M53.77,325c.85-15.36,3.15-30.62,3.63-46,.08-2.68-3.88-3.13-4.6-.62-4.37,15.09-5.3,31-6.06,46.61-.22,4.52,6.78,4.5,7,0Z"/><path class="cls-1" d="M32.78,251.62A105.59,105.59,0,0,0,33.24,237c-.08-1.63-2.52-2.11-3-.4a109.25,109.25,0,0,0-2.38,15.06c-.33,3.09,4.61,3.12,4.87,0Z"/><path class="cls-1" d="M25.65,253.67c3.5,0,3.5-5.44,0-5.44s-3.51,5.44,0,5.44Z"/><path class="cls-2" d="M11.66,238.57C29.5,237.41,48.87,234,64,223.93c1.88-1.26.75-4.43-1.59-3.77-16.93,4.73-33,10.4-50.71,11.66-4.3.31-4.35,7,0,6.75Z"/><path class="cls-2" d="M18.48,228.63c10.05-3.06,20.59-5.59,30.16-10,1.71-.79.93-3.92-1-3.67-10.45,1.39-20.7,4.84-30.84,7.61-3.9,1.06-2.21,7.24,1.67,6Z"/><path class="cls-2" d="M31.16,190c12.64-2.23,26.1-4.57,37.57-10.51,2.28-1.19.56-4.19-1.63-3.86-12.66,2-24.94,6.09-37.64,8.23-4,.67-2.33,6.85,1.7,6.14Z"/><path class="cls-2" d="M17,192.33c18,1.46,36.76,3.39,54.67,1a2.39,2.39,0,0,0,0-4.78c-18.07-2.14-36.5-1.6-54.67-3.11-4.38-.37-4.36,6.49,0,6.84Z"/><path class="cls-2" d="M33.65,198.24c3.38,0,3.38-5.25,0-5.25s-3.39,5.25,0,5.25Z"/><path class="cls-2" d="M15.21,180.42c3-12.57,8.94-23.76,14.64-35.24a1.74,1.74,0,0,0-2.73-2.1c-9.64,9.58-14.8,22.57-17.88,35.69-.91,3.87,5,5.53,6,1.65Z"/><path class="cls-2" d="M26.25,161.62c.75-7.06,2.15-14,3.24-21a1.36,1.36,0,0,0-2.62-.73,106.15,106.15,0,0,0-5.69,21.05,2.57,2.57,0,1,0,5.07.69Z"/><path class="cls-2" d="M55.65,127c3.5,0,3.5-5.44,0-5.44s-3.51,5.44,0,5.44Z"/><path class="cls-2" d="M72.88,87.79A133,133,0,0,1,90.43,69.06c6.17-5.42,13.17-9.83,19.32-15.24,1.34-1.17-.07-3.68-1.78-3C92.08,56.64,78.41,71.13,68.24,84.21a2.94,2.94,0,1,0,4.64,3.58Z"/><path class="cls-2" d="M64.89,63.73c9.31-6.14,18.89-11.87,28.75-17.09,4.8-2.54,9.67-4.94,14.57-7.29S119,34.94,123.47,31.6a2.31,2.31,0,0,0-1.77-4.2c-5.17.89-10.24,3.65-14.94,5.91-5.16,2.48-10.21,5.18-15.21,8-10,5.59-19.71,11.7-29.12,18.24-2.55,1.77-.19,6,2.46,4.21Z"/><path class="cls-2" d="M75.49,62.08c14.68-4.52,29.33-11.69,41.4-21.18,1.31-1-.1-3.41-1.64-2.82A262.84,262.84,0,0,0,74.12,58.83c-1.69,1-.61,3.86,1.37,3.25Z"/><path class="cls-2" d="M109.13,50.16a232.75,232.75,0,0,1,27.24-17.94c9.44-5.29,19.93-8.9,29.12-14.57a2.26,2.26,0,0,0-1.74-4.11c-10.39,2-20.49,7.93-29.65,13.05a234.89,234.89,0,0,0-27.95,18.47c-3,2.27-.05,7.4,3,5.1Z"/><path class="cls-2" d="M143.18,24.74c14.19-4.62,29.1-7.81,43-13.24,1.88-.73,1.88-4.09-.52-3.87-15,1.43-29.9,6.45-44.19,10.87-4,1.23-2.25,7.53,1.72,6.24Z"/><path class="cls-2" d="M167.24,120c5.21-12.19,11.51-24,16-36.42,1-2.69-2.82-3.76-4.28-1.8-7.95,10.67-13.17,23.25-18.1,35.54-1.45,3.62,4.8,6.29,6.34,2.68Z"/><path class="cls-2" d="M180.89,104.89A55.2,55.2,0,0,0,194,86.21c2.86-6.3,6.28-14.43,6.54-21.4.11-2.75-3.52-3.37-4.89-1.33-3.81,5.71-5.57,13.46-8.35,19.77a90.82,90.82,0,0,1-10.72,18.34c-1.94,2.57,2.1,5.25,4.27,3.3Z"/><path class="cls-2" d="M192.51,89.86a194,194,0,0,0,20.13-24.2c5.52-8.09,10.78-17.4,11.11-27.38a1.89,1.89,0,0,0-3.5-.94c-4.81,8.14-8.65,16.72-14.09,24.53C200.53,70,194,77.47,187.74,85.08c-2.71,3.29,1.72,8,4.77,4.78Z"/><path class="cls-2" d="M188.8,28.2C198.37,33.1,208.24,38,219,39.42c1.87.25,2.38-2.57.92-3.4-8.95-5.13-18.83-8.41-28.08-13-3.44-1.71-6.48,3.41-3,5.18Z"/><path class="cls-2" d="M249,24.94c4.28,0,4.29-6.65,0-6.65s-4.29,6.65,0,6.65Z"/><path class="cls-2" d="M228.19,12.45c9.93,1.49,21.47,3.79,31.33,1.15a2,2,0,0,0,0-3.88c-9.55-2.41-20-1.63-29.73-3.06-3.77-.55-5.41,5.21-1.6,5.79Z"/><path class="cls-2" d="M245.66,7.89c9,4.08,17.17,10.35,26.32,13.88,1.74.67,2.74-1.72,1.69-2.9-6.42-7.16-16.83-11.48-25.45-15.35-2.95-1.32-5.53,3-2.56,4.37Z"/><path class="cls-2" d="M266.78,42l1,3.9c.34,1.3,2.49,1.08,2.39-.32l-.29-4a1.59,1.59,0,1,0-3.13.42Z"/><path class="cls-2" d="M231.24,113.69c5.58-2.09,10.54-5.73,15.71-8.64s11.09-5.4,15.48-9.34c2.4-2.16-.21-5.52-2.92-5-5.71,1.07-11.47,4.85-16.32,7.92s-10.53,6.42-14.32,11c-1.38,1.67-.14,5,2.37,4.07Z"/><path class="cls-2" d="M209,128.84c16-4,32.71-6,48.38-11.08a1.65,1.65,0,0,0-.44-3.23c-16.65,0-33.31,5-49.31,9.34-3.2.87-1.86,5.77,1.37,5Z"/><path class="cls-2" d="M179.11,167.81c13.22-2.56,26.79-4.53,39.73-8.34,2.14-.63,1.85-4.25-.55-4.05-13.68,1.12-27.28,4.2-40.78,6.6-3.78.68-2.2,6.53,1.6,5.79Z"/><path class="cls-2" d="M173.19,156l25.63-3.48c8.44-1.15,17.19-1.92,25.38-4.39a2.16,2.16,0,0,0-.58-4.23c-8.55-.29-17.2,1.21-25.66,2.26l-25.67,3.21a3.36,3.36,0,1,0,.9,6.63Z"/><path class="cls-2" d="M209.64,345.26c16.06,1.67,32.54,3.83,48.69,2.42,1.7-.15,2.39-2.86.43-3.22-16.15-3-32.79-3.27-49.12-4.92-3.67-.37-3.63,5.34,0,5.72Z"/><path class="cls-2" d="M192.3,335.12c21.12,2.79,42.11,6.72,63.35,8.1,2.61.17,3.09-3.87.61-4.51-20.88-5.41-42.49-7.2-64-9-3.54-.31-3.37,5,0,5.43Z"/><path class="cls-2" d="M267.43,350.17a216.7,216.7,0,0,0,25.14,7.77c7.43,1.78,16.12,4.18,23.76,3.05,2-.29,2.45-3.66.59-4.46-7.19-3.08-15.83-3.63-23.43-5.45a216.34,216.34,0,0,1-24.27-7.42c-4.08-1.51-5.82,5-1.79,6.51Z"/><path class="cls-2" d="M281.49,359.29c11,2.64,22.77,6,34.14,5.74a2,2,0,0,0,.52-3.87c-10.52-3.82-22.13-5.26-33-7.93-3.93-1-5.61,5.11-1.67,6.06Z"/><path class="cls-2" d="M230.28,392.46a155.46,155.46,0,0,0,32.63-.83c10.44-1.42,21.73-3.31,31.19-8.17,2.51-1.29.59-4.53-1.77-4.19-10.51,1.5-20.66,4.49-31.29,5.46a177.53,177.53,0,0,1-30.76.23c-4.8-.39-4.8,7.14,0,7.5Z"/><path class="cls-2" d="M118.31,370.48c-4.46-1.92-9.33-3.51-13.35-6.26l-1.68,4c13.81,5.29,28.33,9.09,42.45,13.49s28.45,8.38,43,11.68a1.13,1.13,0,0,0,.6-2.17c-13.88-5.44-27.91-10.19-42.17-14.51s-28.28-9.31-42.67-12.69c-2.77-.65-3.88,3.76-1.16,4.2,4.82.78,9.45,3,14,4.68,1.38.51,2.38-1.81,1-2.4Z"/><path class="cls-2" d="M134.26,382.14A364,364,0,0,0,169.37,394c11.33,3.18,23.13,6.44,35,6.88,1.59.06,1.78-2.21.36-2.67-11.41-3.75-23.38-5.8-34.94-9.07s-23-7.19-34.22-11.61c-2.86-1.13-4.11,3.49-1.27,4.61Z"/><path class="cls-2" d="M142.31,382.24c7.67,0,7.68-11.91,0-11.91s-7.67,11.91,0,11.91Z"/><path class="cls-2" d="M107.1,353.61c7.46,3,15,5.85,22.62,8.42,7.06,2.37,14.43,5.33,21.92,5.8a1.51,1.51,0,0,0,.75-2.8c-6.7-3.39-14.38-4.9-21.5-7.24q-11.46-3.78-22.67-8.25c-2.53-1-3.6,3.06-1.12,4.07Z"/><path class="cls-2" d="M148.77,364.28c1.86-8,5.76-14.7,9.45-22a1.56,1.56,0,0,0-2.43-1.88c-6.44,5.64-9.9,14.4-11.72,22.55-.69,3.05,4,4.36,4.7,1.29Z"/><path class="cls-2" d="M160.33,357.26c13.67-8,27.35-15.91,40.84-24.18a1.6,1.6,0,0,0-1.61-2.76c-14.06,7.29-27.93,14.9-41.83,22.49-2.91,1.59-.28,6.13,2.6,4.45Z"/><path class="cls-2" d="M379.28,246.26c-6.4,2.05-12.62,5.3-19.17,6.76-3,.67-2.39,5.67.74,5.43,9.33-.73,18.24-6.29,26.31-10.64,8.87-4.79,18.27-9.45,26-16,1.6-1.35-.11-4.2-2.06-3.53-17.88,6.24-33,18.79-51,24.71l2.69,4.62c4.77-4.11,11.48-6.3,17.28-8.49,1.77-.67,1.07-3.49-.8-2.89Z"/><path class="cls-2" d="M416.31,242.19c3.32,0,3.33-5.15,0-5.15s-3.32,5.15,0,5.15Z"/><path class="cls-2" d="M371.62,213c13-10.29,25.28-21.41,27.48-38.68.2-1.51-2.17-1.72-2.57-.35-4.4,15-16.9,25.83-28.75,35.19-2.75,2.16,1.12,6,3.84,3.84Z"/><path class="cls-2" d="M391,161c-.93,14.44-2,29.33-.05,43.72.24,1.76,2.67,1.08,2.85-.39,1.74-14.33,1.49-28.93,2.63-43.33.28-3.48-5.21-3.49-5.43,0Z"/><path class="cls-2" d="M391.33,229.37c12.37-8.93,25.68-22.14,29.54-37.45a1.51,1.51,0,0,0-2.74-1.16c-4.26,6.11-7.7,12.66-12.34,18.57a91.34,91.34,0,0,1-16.59,16.4c-2.11,1.61-.1,5.25,2.13,3.64Z"/><path class="cls-2" d="M412.5,169.62c.08,9.5-2,18.57-2.69,28a1.74,1.74,0,0,0,3.23.87c4.28-8.78,4.64-19.26,4.15-28.84-.16-3-4.72-3-4.69,0Z"/><path class="cls-2" d="M329.63,214c13.94-2.26,29.85-5,42.18-12.24a1.61,1.61,0,0,0-1.23-2.92c-7.1,1.39-14,4-20.95,5.9a211.8,211.8,0,0,1-21.32,4.47c-3.14.5-1.81,5.3,1.32,4.79Z"/><path class="cls-2" d="M332.59,233.22c4.7-4.17,9.23-8.52,13.52-13.11,3.89-4.16,8.43-8.8,10.75-14.07.76-1.74-1-4.51-3-3-4.62,3.49-8.28,8.36-12.25,12.57-4.31,4.57-8.86,8.9-13.58,13-3.13,2.75,1.47,7.33,4.58,4.58Z"/><path class="cls-2" d="M275.64,208.35c7.72-4.55,15.63-8.77,23.75-12.56S316,189,323.56,184.44c2.53-1.54.72-4.82-1.88-4.46-8.77,1.21-17.32,5.07-25.33,8.78a275.7,275.7,0,0,0-24.59,13c-4.26,2.51-.39,9.16,3.88,6.63Z"/><path class="cls-2" d="M285.32,207.93,306,200.15c6.63-2.49,13.16-4.79,18.85-9.13,1.47-1.13,1.26-4.11-1.07-3.93-7.06.53-13.32,3-19.87,5.49l-20.6,7.94c-4.56,1.76-2.61,9.17,2.05,7.41Z"/><path class="cls-2" d="M315,200.8c4.1,0,4.11-6.37,0-6.37s-4.11,6.37,0,6.37Z"/><path class="cls-2" d="M317.33,293.16c6.23-3.46,12.36-7.06,18.37-10.89,5.13-3.26,11.42-7,15.07-11.92,1.54-2.07-1-5-3.28-4.27C341.66,267.91,336,272.57,331,276q-8.43,5.78-17,11.4c-3.56,2.33-.41,7.84,3.36,5.74Z"/><path class="cls-2" d="M322.25,286.89c3.08-3.24,6.24-6.4,9.26-9.69,2.83-3.08,6.06-6.07,8.11-9.75a2.27,2.27,0,0,0-3.07-3.08C329,268,322.63,275.6,317,281.58c-3.32,3.51,2,8.82,5.3,5.31Z"/><path class="cls-2" d="M338.77,263.66c3.59-1.49,7.37-2.68,10.46-5.08,2.21-1.71.3-5.41-2.22-5.36-3.58.08-7,1.47-10.44,2.48a4.21,4.21,0,0,0-2.88,5.08c.54,1.94,3,3.74,5.08,2.88Z"/><path class="cls-2" d="M353.5,353.56c-1.13-16.18-3.64-34.3-12.05-48.4-1.5-2.53-4.85-.73-4.45,1.88,1.21,8,3.75,15.7,5.51,23.62s3.28,15.82,4.45,23.79c.55,3.69,6.8,2.84,6.54-.89Z"/><path class="cls-2" d="M362.42,345.62c.61-10.88,2.46-22.36.33-33.11-.33-1.7-2.81-1.51-3.25,0-3.1,10.53-2.24,22.21-2.61,33.11-.13,3.57,5.33,3.53,5.53,0Z"/><path class="cls-2" d="M229.09,263.13a130,130,0,0,0,16.46-4.88c4.89-1.65,10.8-2.74,15-5.72,2.24-1.58,1.6-5.44-1.47-5.41-5.47,0-11.22,2.72-16.43,4.31a130.13,130.13,0,0,0-16.12,5.71c-3.57,1.63-.9,6.67,2.53,6Z"/><path class="cls-2" d="M205.51,284.12c6.28-2.81,12.47-5.81,18.52-9.09,5.6-3,11.64-6.3,15.64-11.38a1.89,1.89,0,0,0-1.83-3.13c-6.28,1.4-11.94,5.09-17.55,8.11-6,3.27-12.24,6.29-18.52,9.1-4.34,1.94-.58,8.33,3.74,6.39Z"/><path class="cls-2" d="M174.47,317.1c11.43-11.17,25-20.38,35.89-32.07a1.84,1.84,0,0,0-2.22-2.87c-14.65,6.52-27,19.24-38.11,30.5-2.84,2.89,1.54,7.27,4.44,4.44Z"/><path class="cls-3" d="M2.73,251.61c15.16,2.44,30.23,5.36,45.57,6,2.2.1,2.55-3.17.51-3.77-14.47-4.25-29.4-6.32-44.26-8.85-4.32-.74-6.15,5.9-1.82,6.6Z"/><path class="cls-3" d="M33.36,264.4c11,1.9,22.36,4,33.38,1.47a1.61,1.61,0,0,0,0-3.07c-10.22-3.05-21-3.38-31.46-5.36-4.56-.86-6.48,6.18-1.92,7Z"/><path class="cls-3" d="M20.82,243.28c12.1,2.77,25.63,7,38.15,5.77a2,2,0,0,0,.53-4c-11.42-4.77-24.89-5.49-37-8.05-4.05-.86-5.79,5.31-1.71,6.24Z"/><path class="cls-3" d="M39,240.44l6-.56a1.6,1.6,0,0,0,0-3.19l-6-.56c-2.77-.26-2.78,4.57,0,4.31Z"/><path class="cls-3" d="M23.29,216.44l-.44-.05-1,3.62c3.71-1.92,7-4.61,10.52-6.94,3.28-2.2,6.81-4.22,9.44-7.23a2.18,2.18,0,0,0-2.1-3.6c-4.21.69-7.86,3-11.33,5.4s-7.09,4.93-9.73,8.22c-1.23,1.52-.68,4.85,1.87,4.51,1.9-.25,2.36-.76,3.86-2,.91-.73-.07-2.32-1.14-2Z"/><path class="cls-3" d="M16.44,220.48c8.83-1.7,17.77-3.13,26.46-5.44,2.38-.63,2-4.64-.6-4.42-9.21.8-18.34,2.54-27.48,4-3.82.6-2.25,6.62,1.62,5.88Z"/><path class="cls-3" d="M43.65,207.22c8.46-.08,16.92-.41,25.36-1.06,7.34-.57,15.53-.78,22.36-3.75,1.48-.65,1.16-3.37-.47-3.6-7.47-1.06-15.39.59-22.86,1.19-8.12.64-16.25,1-24.39,1.13-3.92.06-3.93,6.13,0,6.09Z"/><path class="cls-3" d="M7,182.94a151.22,151.22,0,0,0,28.78.05c8.17-.79,19-1.51,25.8-6.55a2.51,2.51,0,0,0-1.25-4.63c-4-.27-7.88.95-11.77,1.78-4.54,1-9.13,1.77-13.72,2.44A149,149,0,0,1,7,177.31c-3.66-.16-3.54,5.29,0,5.63Z"/><path class="cls-3" d="M36.34,171.24a152.71,152.71,0,0,1,15.81,2c4.45.81,8.84,2.14,13.38,2.09a1.93,1.93,0,0,0,1-3.58C58,166.89,45.88,166.6,36.34,166c-3.39-.21-3.35,5,0,5.25Z"/><path class="cls-3" d="M36.32,166.72c7.51.26,16.53.33,23.29-3.45,2.32-1.3,1-4.39-1.26-4.63-7.19-.75-14.75.8-22,.48-4.88-.21-4.89,7.42,0,7.6Z"/><path class="cls-3" d="M30.57,161.19c7.52-9.37,16.61-18.56,21.27-29.73.47-1.11-1.11-2.28-2.06-1.59-9.64,7-16.32,17.66-23.58,26.95-2.42,3.08,1.87,7.49,4.37,4.37Z"/><path class="cls-3" d="M21.44,132.77c4.39-7.53,10.73-13.28,15.85-20.2,1-1.32-.65-3.39-2.17-2.83-9,3.33-15.11,11.36-19.92,19.39-2.39,4,3.9,7.66,6.24,3.64Z"/><path class="cls-3" d="M75.27,69.74c-.14-.46,10.31-5.76,11.32-6.34a61.52,61.52,0,0,0,10.27-7.24,1.75,1.75,0,0,0-1.69-2.9C88.67,55.4,82.92,59,77.05,62.47c-3.37,2-8.43,4.43-6.07,9.08,1.22,2.38,5,.72,4.29-1.81Z"/><path class="cls-3" d="M74.07,69.47c7.54-3.75,15.3-7.24,22.5-11.62,1.74-1.05.6-4.25-1.45-3.43-8,3.21-15.59,7.38-23.28,11.24-2.53,1.28-.3,5.07,2.23,3.81Z"/><path class="cls-3" d="M82.19,81.67q13.66-7,27-14.64c8.29-4.78,17.47-9.46,24.35-16.22,1.16-1.14,0-3.56-1.69-2.9-9,3.56-17.08,9.58-25.35,14.51q-13.19,7.86-26.75,15c-2.78,1.48-.33,5.64,2.46,4.21Z"/><path class="cls-3" d="M114.4,62.33c6.7-2.48,13.39-5,19.92-7.91,5.62-2.5,13.33-4.69,17-9.89.91-1.3-.33-2.9-1.7-3-6-.28-12.48,4.26-17.81,6.69-6.52,3-13,6-19.57,8.93-2.89,1.27-.82,6.25,2.17,5.14Z"/><path class="cls-3" d="M132.19,44.36c8.17-5.44,17.58-10,24.88-16.6,1.35-1.22-.07-3.78-1.83-3.13-9.19,3.35-17.51,10-25.56,15.44-2.62,1.78-.16,6.08,2.51,4.29Z"/><path class="cls-3" d="M125,26.71c11.17-4.48,22.5-8.65,33.91-12.48Q167,11.5,175.23,9.09c5.1-1.51,10.87-2.54,15.09-5.91a1.79,1.79,0,0,0-.79-3c-5.36-.86-10.88,1.23-16,2.77q-8.65,2.61-17.21,5.58C145,12.48,133.91,17,123,22c-2.63,1.2-.74,5.81,2,4.72Z"/><path class="cls-3" d="M169.85,22.06c6-1.21,12.51-1.91,18.3-4a1.93,1.93,0,0,0-.51-3.78c-6.13-.35-12.55.79-18.67,1.31-4.72.4-3.83,7.4.88,6.44Z"/><path class="cls-3" d="M175,80.92a4.52,4.52,0,0,1-3.29-1.14v5.36a220.89,220.89,0,0,0,24.93-18.32c6.2-5.26,15.53-12.36,17.83-20.52a2,2,0,0,0-2.89-2.22c-3.49,2.11-6.06,5.57-9.07,8.3q-5.62,5.1-11.67,9.7c-7.76,5.86-15.66,11.68-22.89,18.18-1.38,1.24-1.17,4.08.63,4.88A11,11,0,0,0,175,86.26c3.3-.44,3.54-5.21,0-5.34Z"/><path class="cls-3" d="M187.08,72.75c10.84-7.26,21.09-14.83,29.8-24.56,1.22-1.36-.36-3.74-2-2.65-10.61,6.87-20.47,14.71-30.79,22-3.11,2.2-.22,7.35,3,5.18Z"/><path class="cls-3" d="M221.19,44.94c-.43,10.62-1.19,23,3.25,33a1.84,1.84,0,0,0,3.34-.44c1.69-10.52-1.21-22.07-2.55-32.53-.33-2.51-3.93-2.67-4,0Z"/><path class="cls-3" d="M233.4,59l-.87,16.65c-.26,5-1.05,10.25-.09,15.22.39,2,3.37,1.82,3.89,0,1.36-4.86,1-10.21,1.13-15.22L238,59c.1-3-4.44-2.94-4.59,0Z"/><path class="cls-3" d="M233.25,72.28c-.22,15.64-4.88,30.2-11.37,44.3a2.16,2.16,0,0,0,3.73,2.18c9.25-13.6,12.73-30.16,12.52-46.48,0-3.14-4.83-3.14-4.88,0Z"/><path class="cls-3" d="M210.28,139.09c10-1.22,19.93-2.71,29.81-4.56,9.59-1.79,20-3.48,28.63-8.15a1.89,1.89,0,0,0-.94-3.49c-9.58.18-19.2,3.11-28.52,5-9.87,2.05-19.81,3.75-29.79,5.16-3.36.48-2.6,6.41.81,6Z"/><path class="cls-3" d="M233.63,130.35a98.41,98.41,0,0,0,16.58-2.18c4.09-.91,10.39-1.69,12.4-5.84a1.66,1.66,0,0,0-.59-2.25c-3.89-1.66-7.89.53-11.78,1.54a89.67,89.67,0,0,1-16.61,2.64c-3.88.26-3.94,6.29,0,6.09Z"/><path class="cls-3" d="M232.7,147c3,5.66,6,11.26,9.26,16.77,3,5.1,6,10.51,10.42,14.54,1.34,1.22,4,.05,3.29-1.92-2.06-5.59-5.65-10.48-8.79-15.5q-5.08-8.11-9.73-16.5c-1.62-2.91-6-.33-4.45,2.61Z"/><path class="cls-3" d="M226.06,155.6l14.55,22.65c4.2,6.53,8.22,14.55,14.51,19.3,1.58,1.19,3.6-.77,3.17-2.44-2-7.67-8.19-14.54-12.68-20.93L230.67,152.9c-1.94-2.78-6.49-.24-4.61,2.7Z"/><path class="cls-3" d="M230.59,172.35c7.11,9.8,13.07,20.8,21.09,29.87,1.11,1.25,3.53-.07,2.9-1.69-4.33-11.23-12.23-21.27-19.22-31-2.06-2.87-6.86-.1-4.77,2.79Z"/><path class="cls-3" d="M248.84,240.7q3.61-7.56,7.15-15.16a1.17,1.17,0,0,0-2-1.18q-4.46,7.06-8.85,14.17c-1.48,2.39,2.54,4.66,3.72,2.17Z"/><path class="cls-3" d="M254.63,218.69c2.68-5.27,5.72-10.34,8.47-15.58a1.79,1.79,0,0,0-2.8-2.16,80,80,0,0,0-11.58,14.29c-2.45,3.68,3.92,7.39,5.91,3.45Z"/><path class="cls-3" d="M351.4,251.24a4.35,4.35,0,0,0,6.9,1.11c3.22-2.9,3.72-9.36,4.38-13.38,1.7-10.3.84-21.71-3.45-31.25-1-2.17-4.26-1-4.28,1.16,0,6.92.54,13.86.09,20.79-.4,6.21-.51,13.87-2.77,19.69L354.6,247l.77.23c-2.48-1.53-5.46,1.51-4,4Z"/><path class="cls-3" d="M369.31,247.62c.68-9.08,1.61-18.24-.52-27.17-.42-1.76-3.24-1.82-3.62,0-1.86,8.93-1.37,18.1-1.86,27.17-.2,3.87,5.72,3.81,6,0Z"/><path class="cls-3" d="M382.61,235c2.73-6.13,6.41-11.73,9.17-17.82.78-1.71-1.22-3.55-2.72-2.1-4.95,4.8-8.09,11.06-11,17.27-1.42,3.06,3.17,5.72,4.53,2.65Z"/><path class="cls-3" d="M384.61,228.38l10.67-8a3.29,3.29,0,0,0,1.14-4.36c-.77-1.36-3-2.18-4.36-1.15L381.44,223a3.24,3.24,0,0,0-1.13,4.29c.77,1.35,2.94,2.14,4.3,1.13Z"/><path class="cls-3" d="M339.77,202.12c4.1-2.57,8.24-5.1,12.31-7.72,3.61-2.32,8-4.88,10.69-8.28,1.38-1.77.18-4.67-2.33-4-4.18,1.12-8.18,4.09-11.73,6.52-4,2.74-7.95,5.58-11.92,8.37-3.06,2.15-.29,7.14,3,5.1Z"/><path class="cls-3" d="M351.26,207.71c8.33-3.47,20.46-9.54,23.63-18.72.81-2.34-2-4-3.92-3-3.82,2-6.92,5.71-10.34,8.32a59.24,59.24,0,0,1-12.07,7c-3.61,1.59-1,8,2.7,6.43Z"/><path class="cls-3" d="M323.27,126.75l-1.74-.58c-4.6-1.53-6.31,4.72-3,7.22,10.88,8.29,20,18.65,30.49,27.37,7.89,6.55,19.69,16.37,30.72,14a3,3,0,0,0,1.33-5c-4.15-3.88-9.84-5.71-14.67-8.6a111.44,111.44,0,0,1-14.44-10.36c-9.78-8.19-18.81-17.13-29.44-24.26l-2,7.36,1.84-.19c3.93-.38,4.92-5.67.95-7Z"/><path class="cls-3" d="M332,127.23a220.12,220.12,0,0,0,21,18.67,132.65,132.65,0,0,0,11,7.58c3.41,2.14,6.76,4.66,10.89,4.82a2.55,2.55,0,0,0,2.19-3.81c-2.09-3.51-5.93-5.35-9.22-7.62s-6.7-4.76-10-7.18a236.17,236.17,0,0,1-21.1-17.16c-3.14-2.89-7.74,1.65-4.7,4.7Z"/><path class="cls-3" d="M380.81,141.73c1.46,4.55,3.06,9,4.88,13.44,1.43,3.48,2.64,8,6.27,9.69,1.23.57,3.06.21,3.37-1.37.73-3.76-1.49-6.9-3.13-10.2q-3.18-6.42-5.78-13.1c-1.34-3.4-6.77-2.09-5.61,1.54Z"/><path class="cls-3" d="M358,124.56l7.65,11.06c2.31,3.33,4.4,7.19,7.42,9.93a1.93,1.93,0,0,0,3-2.33c-1.65-3.8-4.72-7.11-7.16-10.43l-7.53-10.22c-1.48-2-4.86-.12-3.4,2Z"/><path class="cls-3" d="M370.9,149.18c1-4.7,2.26-9.43,2.52-14.23.13-2.34-3.52-3.43-4.54-1.23-2,4.35-3.13,9.07-4.49,13.66-1.23,4.21,5.64,6,6.51,1.8Z"/><path class="cls-3" d="M345.73,123.87c1.61-3.21,3.24-6.45,5.09-9.53s4.12-6,5.66-9.12c.6-1.22-.71-3-2.05-2-6.12,4.26-10.34,12.12-13,18.89-1,2.47,3.1,4.18,4.28,1.81Z"/><path class="cls-3" d="M353.55,102.05c5.07-7,11-13.65,13.72-22,.53-1.63-1.54-2.51-2.67-1.56-6.64,5.67-10.55,13.8-15.09,21.15-1.62,2.61,2.31,4.76,4,2.36Z"/><path class="cls-3" d="M314.36,78.3a105.05,105.05,0,0,1,29.42.34c6.87,1.11,17.92,5.47,24.24,1.46a2,2,0,0,0,0-3.48c-3.66-2.26-8.9-2.23-13.1-3.05s-8.68-1.55-13.06-2a110.91,110.91,0,0,0-28.31.76c-3.36.5-2.6,6.4.81,6Z"/><path class="cls-3" d="M320.14,45.45c-6,1.88-1,7.38,1.6,9.73a92.12,92.12,0,0,0,7.46,5.91c2.65,1.95,5.4,4.41,8.61,5.27,2.38.63,3.61-2.14,2.24-3.84-2.2-2.71-5.86-4.46-8.65-6.53-1.54-1.14-7.74-7.19-9.53-6.43,2.35-1,.68-4.87-1.73-4.11Z"/><path class="cls-3" d="M328.42,55.59c12.73,4.91,23.64,12.17,35.39,18.91a1.13,1.13,0,0,0,1.37-1.77C355.33,63.2,342,56.93,329.42,52c-2.25-.88-3.24,2.76-1,3.62Z"/><path class="cls-3" d="M350.05,61.21a149.25,149.25,0,0,0,9.5,13.84c.82,1,2.16-.29,1.69-1.31a145.5,145.5,0,0,0-7.95-14.42c-1.24-2.07-4.53-.15-3.24,1.89Z"/><path class="cls-4" d="M277.57,89.8c6.23-11.75,14.8-22.52,20.32-34.57a1.65,1.65,0,0,0-2.57-2c-10.09,8.67-16.83,21.94-22.93,33.53-1.79,3.41,3.37,6.44,5.18,3Z"/><path class="cls-4" d="M291.49,75A66.2,66.2,0,0,0,301,68c2.58-2.28,5.83-5.42,6.9-8.76A2,2,0,0,0,305,57c-2.76,1.66-5,4.7-7.29,6.95a69.9,69.9,0,0,1-8.48,7.17c-2.28,1.61-.24,5.3,2.22,3.8Z"/><path class="cls-4" d="M289.64,19.55a11.66,11.66,0,0,0-7.53,1.5c-1.86,1-1.14,3.45.54,4.12,12.22,4.86,23.57,12.28,36,16.52A1.6,1.6,0,0,0,320.18,39c-9.85-8.94-24-13.8-36.33-18.21l.54,4.12a7.88,7.88,0,0,1,5.25-1.17c2.74.24,2.62-3.87,0-4.22Z"/><path class="cls-4" d="M238.73,49.21l6.06,3.87c1.85,1.18,3.73,2.63,5.92,3.06,1.09.21,2.36-1,1.59-2.07-1.3-1.82-3.27-3-5.13-4.17l-6.41-4.17c-2.18-1.42-4.22,2.08-2,3.48Z"/><path class="cls-4" d="M239.79,40.33c5,3.39,11.59,8,17.84,8.3a1.65,1.65,0,0,0,1.16-2.8c-2.28-2-5.28-3.21-7.93-4.64-3-1.58-5.82-3.22-8.61-5.07-2.63-1.74-5.05,2.47-2.46,4.21Z"/><path class="cls-4" d="M257,43.59a11,11,0,0,0,2.43,6c1.21,1.49,3.56,2.67,5.45,1.77a1.17,1.17,0,0,0,.53-1.32,6.61,6.61,0,0,0-1.16-1.74,10.88,10.88,0,0,0-1.3-1.69A6.54,6.54,0,0,1,261.32,43c-.36-2.43-4.58-1.89-4.32.58Z"/><path class="cls-4" d="M268.12,37c.24,7.54.22,16.89,3.88,23.71,1.08,2,3.87.91,4-1.09.57-7.36-1.74-15.23-2.19-22.62-.21-3.65-5.84-3.7-5.71,0Z"/><path class="cls-4" d="M284.39,115.7l16.14-18.93c5-5.8,10.66-11.48,14.57-18.06.64-1.07-.75-1.94-1.62-1.25-6.1,4.93-11,11.58-16.22,17.45l-15.79,17.87c-1.75,2,1.2,4.93,2.92,2.92Z"/><path class="cls-4" d="M278.65,128.67c9.3-6.31,18.6-12.59,27.7-19.19,1.38-1,.15-3.28-1.37-2.35-9.58,5.84-18.93,12-28.31,18.14-2.12,1.39-.11,4.82,2,3.4Z"/><path class="cls-4" d="M343.6,91.46c2.34,3.56,4.8,7,7.41,10.4s5.07,7,8.77,9a2.08,2.08,0,0,0,2.82-2.82c-1.56-3.45-4.48-6.14-6.89-9-2.72-3.27-5.29-6.66-7.74-10.14-1.85-2.63-6.18-.2-4.37,2.55Z"/><path class="cls-4" d="M365.61,74.31l8.25,9.41c2.49,2.84,4.83,6.38,8,8.41,1.87,1.18,3.82-1.11,2.89-2.89-1.74-3.32-5.17-6-7.77-8.68l-8.68-9c-1.73-1.8-4.33.87-2.72,2.71Z"/><path class="cls-4" d="M342.76,62.44a125.64,125.64,0,0,1,14.6,12c4.24,4.06,7.89,8.68,12.22,12.64a1.23,1.23,0,0,0,1.92-1.48c-6.11-10.57-17.23-19-27.18-25.79-1.65-1.13-3.17,1.54-1.56,2.67Z"/><path class="cls-4" d="M77.85,61.27c-1.49.28-3,.56-4.47.81L74.45,66c7-2.7,13.64-6.28,20.37-9.54,7.23-3.49,14.28-7,20.89-11.56,1.27-.88.54-3.2-1.12-2.66a144.42,144.42,0,0,0-20.53,9C87,54.78,79.64,58.1,72.9,62.28A2,2,0,0,0,74.45,66c1.45-.41,2.91-.78,4.37-1.16,2.3-.6,1.31-4-1-3.53Z"/><path class="cls-4" d="M82,78.65A215.64,215.64,0,0,0,116.16,36.6c.19-.31-.29-.69-.52-.39-5.51,7.09-10.76,14.39-17,20.85S86.13,70,79.7,76.33c-1.51,1.48.79,3.77,2.32,2.32Z"/><path class="cls-4" d="M102.94,37.93c-.91,5.81-2.21,11.8-2.11,17.71a1,1,0,0,0,2,.28c1.64-5.68,1.94-11.81,2.58-17.66.15-1.4-2.27-1.74-2.49-.33Z"/><path class="cls-4" d="M64.58,71.35C72.5,77.79,80.31,84.4,88.46,90.56c1.1.83,2.5-1,1.47-1.92-7.51-6.72-15.41-13-23.17-19.48-1.52-1.27-3.72.94-2.18,2.19Z"/><path class="cls-4" d="M79.2,50.59Q95.21,53,111.29,55c11.11,1.32,22.49,2.93,33.69,2.6,1.42,0,1.86-2.29.35-2.57-10.24-1.92-20.79-2.48-31.16-3.55Q97.1,49.7,80.09,47.34c-2.11-.3-3,2.92-.89,3.25Z"/><path class="cls-4" d="M115.07,32.38,134.76,38c6.48,1.84,13.1,4.3,19.77,5.27,1.79.26,3.41-2.37,1.38-3.25-6.06-2.64-12.73-4-19.08-5.86l-20.61-5.91c-2.68-.76-3.82,3.41-1.15,4.16Z"/><path class="cls-4" d="M24.67,137c1.12,11.75,4.14,24.19,10.47,34.29a.85.85,0,0,0,1.46-.85c-5-11-9-21.36-10.24-33.44-.12-1.07-1.8-1.08-1.69,0Z"/><path class="cls-4" d="M25.15,118.29,42,143.68c5.21,7.87,10,16.88,16.4,23.86,1.36,1.49,3.45-.4,2.65-2-4.19-8.61-11-16.61-16.43-24.49L27.74,116.77c-1.09-1.57-3.67-.11-2.59,1.52Z"/><path class="cls-4" d="M28,201.47,38.1,206c.49.22.92-.49.43-.73l-9.91-4.83c-.71-.34-1.32.74-.61,1.05Z"/><path class="cls-4" d="M16.21,179.6l33.15,15.89c10.47,5,21,10.77,32,14.57,1.33.46,2.08-1.53.93-2.23-10.05-6.18-21.4-10.76-32.08-15.75L17.77,176.93c-1.79-.84-3.36,1.81-1.56,2.67Z"/><path class="cls-4" d="M37.68,240.71,56,250.77a.56.56,0,0,0,.57-1L39,238.52c-1.37-.88-2.71,1.4-1.27,2.19Z"/><path class="cls-4" d="M39.65,252.51a.9.9,0,0,0,0-1.79.9.9,0,0,0,0,1.79Z"/><path class="cls-4" d="M23.77,249Q32.59,261,40.67,273.6C46,282,50.83,290.83,56.61,298.88a1,1,0,0,0,1.7-1c-7.68-18-20.38-34.75-32-50.37-1.1-1.48-3.62-.05-2.51,1.46Z"/><path class="cls-4" d="M27.05,282.63c3.26,11.27,7.67,23.21,15,32.5.77,1,2.08-.27,1.62-1.25-5-10.65-10.44-20.67-13.83-32a1.45,1.45,0,0,0-2.8.77Z"/><path class="cls-4" d="M67.87,223.57c3.66,6.53,7.37,13,10.5,19.83s5.35,14,8.94,20.46c.75,1.33,3.27.84,3.06-.83-.86-7-4-14.14-7.07-20.44a126.61,126.61,0,0,0-12.36-20.82c-1.34-1.79-4.22-.26-3.07,1.8Z"/><path class="cls-4" d="M83.7,230.33c6-5.59,12.11-11,17.39-17.28.82-1-.28-2.8-1.47-1.91-6.7,5-12.54,10.8-18.57,16.54-1.76,1.67.88,4.3,2.65,2.65Z"/><path class="cls-4" d="M83.17,231.55c6.28-4.36,13.38-7.67,19.46-12.26,1.7-1.29.79-4.17-1.52-3.6-7.5,1.83-14.55,6.53-21,10.68-3.25,2.1-.13,7.37,3,5.18Z"/><path class="cls-4" d="M185,223.22a.94.94,0,0,0,0-1.88.94.94,0,0,0,0,1.88Z"/><path class="cls-4" d="M173.34,228.64c8.24-9.22,17-18.24,24.08-28.4,1-1.38-1-2.51-2.13-1.65-9.65,7.53-18.11,16.61-26.79,25.21-3.15,3.12,1.91,8.12,4.84,4.84Z"/><path class="cls-4" d="M184.08,211.28a184.4,184.4,0,0,1,17.48-10.92c5-2.7,12.14-4.74,15.35-9.58a2.21,2.21,0,0,0-1.32-3.23c-5.87-.88-12,3.36-16.89,6.14a182.16,182.16,0,0,0-18.08,11.69c-3.5,2.55-.18,8.46,3.46,5.9Z"/><path class="cls-4" d="M191,207.56c8.43.15,16.94.69,25.34,0,2.7-.24,3.84-4.72.69-5.16-8.61-1.2-17.35-1.16-26-1.46-4.27-.16-4.29,6.58,0,6.65Z"/><path class="cls-4" d="M127.52,367.65c11.87,6.63,23.64,14.37,36.07,19.88a1.27,1.27,0,0,0,1.28-2.19C153.7,377.6,141,371.58,129.13,364.9c-1.79-1-3.41,1.75-1.61,2.75Z"/><path class="cls-4" d="M129.87,353.38c17,14.28,32.88,30,50.19,43.83a1.17,1.17,0,0,0,1.65-1.66c-13.6-17.42-31.91-32-49.85-44.74-1.51-1.07-3.42,1.37-2,2.57Z"/><path class="cls-4" d="M107.79,371.67c10.38,7.93,22.13,16.25,34.8,20,1.66.5,2.4-1.74,1.11-2.65-10.82-7.67-22.72-13.71-33.45-21.59-2.55-1.87-4.91,2.34-2.46,4.21Z"/><path class="cls-4" d="M213,396.33a.05.05,0,1,0,0-.1.05.05,0,0,0,0,.1Z"/><path class="cls-4" d="M185.83,376.7c13.47,4.18,26.66,9.4,40.25,13.12,1,.27,1.7-1.24.72-1.72-12.72-6.28-26.54-10.48-40-14.83-2.19-.71-3.14,2.76-.95,3.43Z"/><path class="cls-4" d="M206.59,354a42,42,0,0,1,12,12.7c2.88,4.77,4.27,10,6.23,15.16a1.28,1.28,0,0,0,2.49-.34c.21-12.28-9.36-23.85-19-30.35-1.77-1.19-3.36,1.63-1.66,2.83Z"/><path class="cls-4" d="M227.43,360c2.19,8.9,3.17,18.49,6,27.16a1.08,1.08,0,0,0,2.11-.28c-.1-9.19-3.05-18.81-5.17-27.7-.46-1.94-3.46-1.12-3,.82Z"/><path class="cls-5" d="M183.32,365.89c12.93,3,26.36,7,39.68,7.36,2.85.08,3-3.8.63-4.7C211.37,364,198,362,185.29,358.75c-4.63-1.19-6.61,6.06-2,7.14Z"/><path class="cls-5" d="M187.4,364.9c10.84,2,23.71,5.53,34.71,3.2,1.41-.29,1.84-2.64.43-3.25-10.13-4.37-22.51-4.57-33.29-6.64-4.37-.84-6.23,5.87-1.85,6.69Z"/><path class="cls-5" d="M206.31,359.13l6.67.16a2.32,2.32,0,0,0,2.3-2,2.38,2.38,0,0,0-1.68-2.57l-6.35-2.46c-2-.78-4.13,1-4.39,2.92a3.52,3.52,0,0,0,3.45,4Z"/><path class="cls-5" d="M196.31,341a1.41,1.41,0,0,0,0-2.81,1.41,1.41,0,0,0,0,2.81Z"/><path class="cls-5" d="M325,309.67a.05.05,0,1,0,0-.1.05.05,0,0,0,0,.1Z"/><path class="cls-5" d="M293.88,312.79c14.59-2.17,29.84-3.65,43.66-9.08a2,2,0,0,0-.53-3.87c-15.09-.52-30.28,3.28-45,6.17-4.5.88-2.51,7.43,1.87,6.78Z"/><path class="cls-5" d="M314.34,300.61a55.48,55.48,0,0,1,8.22-3.38c2.49-.79,5.31-1,7.55-2.4,1.51-.93,1.46-3.76-.54-4.11-3-.53-6.1.59-9,1.53a65.78,65.78,0,0,0-9,3.74c-3.07,1.54-.37,6.16,2.7,4.62Z"/><path class="cls-5" d="M356.84,342.14c2.31-3,4.65-5.92,7.05-8.81,2.23-2.7,4.72-5.24,6.29-8.39.66-1.31-.72-3-2.11-2.12-5.89,3.7-10.45,10.4-14.87,15.67-2.15,2.56,1.64,6.23,3.64,3.65Z"/><path class="cls-5" d="M343.65,345.13c4.52,0,4.53-7,0-7s-4.53,7,0,7Z"/><path class="cls-5" d="M354.46,232.06c.33-2.41,5.79-4,7.53-5.23,2.24-1.54,4.49-3.15,6.57-4.91a46.31,46.31,0,0,0,11-13.13,1.84,1.84,0,0,0-2.87-2.22C371,211,366,216.28,360.58,221c-3.35,2.86-9.26,6-8.29,11.11.2,1.05,2,1.1,2.17,0Z"/><path class="cls-5" d="M350.61,180.65c9.55,8.18,23.82,17.75,37.05,16.69,1.61-.13,2.61-2.46.9-3.32-5.38-2.71-11.46-4.1-17-6.49a78.12,78.12,0,0,1-17.48-10.33c-2.41-1.89-5.87,1.38-3.45,3.45Z"/><path class="cls-5" d="M373.65,185a1.36,1.36,0,0,0,0-2.71,1.36,1.36,0,0,0,0,2.71Z"/><path class="cls-5" d="M301,195.09c11-1.35,23.37-2.1,33.54-6.64,1.64-.73.73-3.23-.87-3.24-10.83,0-21.89,3.12-32.67,4.26-3.58.38-3.57,6.07,0,5.62Z"/><path class="cls-5" d="M242.91,195.11c3-2.27,6.51-4.38,9.07-7.14a1.37,1.37,0,0,0-1.32-2.27c-3.57,1.14-6.94,3.39-10.26,5.12-2.89,1.52,0,6.2,2.51,4.29Z"/><path class="cls-5" d="M210.69,161.24c5.26,2.25,10.44,4.73,15.92,6.36a1.32,1.32,0,0,0,1-2.4c-4.76-2.88-9.92-5-15-7.28-2.25-1-4.19,2.35-1.94,3.32Z"/><path class="cls-5" d="M182.3,166.42l23.34,2c7.69.64,15.63,1.67,23.34.85,1.7-.19,2.27-2.62.42-3.13-7.34-2.05-15.23-2.35-22.79-3l-24.31-2c-3.37-.27-3.35,5,0,5.25Z"/><path class="cls-5" d="M194.33,169.41c11.46-3.51,23.34-7,34-12.59,1.31-.69.38-2.63-1-2.31-11.6,2.69-22.89,6.83-34.4,9.92-3.2.87-1.81,5.95,1.38,5Z"/><path class="cls-5" d="M214,155.1c6.92-1.07,15.18-2.36,21-6.52,1.81-1.3,1.43-4.82-1.26-4.63-7,.47-13.77,3-20.73,3.87a3.69,3.69,0,1,0,1,7.28Z"/><path class="cls-5" d="M147.54,149.71c8.2-4,16.35-8.23,22.64-14.89a1.69,1.69,0,0,0-2-2.65c-8,4-15.17,9.2-23.06,13.33-2.8,1.46-.34,5.57,2.46,4.21Z"/><path class="cls-5" d="M139.63,155.18c17.81-9.63,36.4-23.11,46.15-41.29a1.18,1.18,0,0,0-1.85-1.42c-7.37,6.67-14.23,13.91-21.82,20.37a145,145,0,0,1-25.46,17.24c-3.35,1.8-.36,6.91,3,5.1Z"/><path class="cls-5" d="M156,153.29c6.65-7.12,12.92-14.44,19-22,5.71-7.12,11.77-15,15.83-23.17a1.88,1.88,0,0,0-2.94-2.27c-7,5.84-13.32,13.6-18.88,20.82-5.95,7.73-11.64,15.49-17,23.61-1.59,2.39,2,5.16,4,3.06Z"/><path class="cls-5" d="M178.75,94.91c.33-2.52,4.7-5.21,6.43-6.81,2-1.82,3.95-3.65,5.88-5.51,3.51-3.39,7.7-6.75,10.37-10.85,1.64-2.5-1.48-4.87-3.78-3.78-6.13,2.92-11.65,8.91-16.54,13.54-3.82,3.63-10.09,8.32-8.43,14.24,1,3.61,5.65,2.44,6.07-.83Z"/><path class="cls-5" d="M166,82.61c5.83-4.38,11.8-8.61,17.36-13.33,1.22-1-.36-3-1.71-2.21-6,3.78-11.77,8.09-17.59,12.22-2,1.43,0,4.79,1.94,3.32Z"/><path class="cls-5" d="M133.73,73.64c15.38-5.57,31.24-10.19,46.36-16.41a1.74,1.74,0,0,0-.92-3.35c-16,3.23-31.59,9-46.92,14.43-3.34,1.17-1.88,6.54,1.48,5.33Z"/><path class="cls-5" d="M273.06,67l8.84-8.76c2.65-2.62,5.89-5.53,7.55-8.9a2,2,0,0,0-2.7-2.7c-3.27,1.9-5.92,5.25-8.37,8.08l-8.17,9.43c-1.68,1.94,1,4.7,2.85,2.85Z"/><path class="cls-5" d="M282.88,65.09a115.3,115.3,0,0,1,12.27-7.89c3.75-2.06,8.5-3.47,11.43-6.65a1.32,1.32,0,0,0-.58-2.19C301.51,47.63,297,50,293,52a64,64,0,0,0-13.26,9.1c-2.17,1.89.75,5.79,3.12,4Z"/><path class="cls-5" d="M304.1,57.33A76.67,76.67,0,0,1,310.93,53c2.17-1.21,4.36-2.38,5.86-4.4a2.13,2.13,0,0,0-1.26-3.1c-5.17-1-10.9,3-15,5.72-3.75,2.53-.15,8.67,3.55,6.07Z"/><path class="cls-5" d="M309.12,55.21l6.07-1.8c2-.59,3.9-1,5.4-2.5a2.53,2.53,0,0,0-1.1-4.18c-2.13-.43-3.88.21-5.91.83l-6.05,1.87c-3.68,1.13-2.13,6.89,1.59,5.78Z"/><path class="cls-5" d="M306.31,64.58l3.95-.28a12.09,12.09,0,0,0,3.8-.53,1.56,1.56,0,0,0,0-3,12.08,12.08,0,0,0-3.8-.52L306.31,60c-2.95-.21-3,4.8,0,4.59Z"/><path class="cls-5" d="M295,102.56l7.84-5c2.35-1.49,5.3-2.8,7.08-5a2,2,0,0,0-2-3.37c-2.76.62-5.21,2.65-7.6,4.1l-7.91,4.83c-2.78,1.69-.21,6.12,2.55,4.37Z"/><path class="cls-5" d="M255.28,90c12.43,8.64,25.32,16.57,39.39,22.25,1.69.69,2.79-2,1.23-2.91-13.1-7.21-26.45-13.94-39.2-21.77-1.56-1-2.89,1.41-1.42,2.43Z"/><path class="cls-5" d="M272.06,89.86c10.78,5.15,21.45,10.7,32.51,15.2,1.54.63,2.54-1.87,1.12-2.66-10.3-5.73-21.2-10.5-31.83-15.61-2.06-1-3.87,2.09-1.8,3.07Z"/><path class="cls-5" d="M331.64,120.84l21-2.24c6.49-.7,13.21-.88,19.47-2.79a1.6,1.6,0,0,0-.42-3.13c-6.64-.45-13.41,1-20,1.77l-20,2.46c-2.47.3-2.54,4.21,0,3.93Z"/><path class="cls-5" d="M321,122.76c8.86-1.84,17.8-3.41,26.48-6,1.93-.58,1.68-3.91-.5-3.68-9.22,1-18.26,3-27.35,4.72-3.25.63-1.88,5.65,1.37,5Z"/><path class="cls-5" d="M358.21,109.74c4.16-3,8.38-5.94,11.85-9.73a1.6,1.6,0,0,0-1.93-2.51c-4.53,2-8.51,4.91-12.52,7.79-2.67,1.92-.1,6.39,2.6,4.45Z"/><path class="cls-5" d="M359.51,113.54a108.49,108.49,0,0,1,10.85,19.4c2.75,6.43,4.27,13.54,7.59,19.68,1,1.83,3.69.9,3.76-1,.27-7.33-3-14.79-6.08-21.3a107.24,107.24,0,0,0-12.36-19.66c-1.65-2.13-5.31.67-3.76,2.89Z"/><path class="cls-5" d="M349.91,141.36a137.86,137.86,0,0,1,12.47,11.57c3.86,4.07,7.19,8.89,11.45,12.52a1.75,1.75,0,0,0,2.73-2.1c-4.42-10.06-14.92-18.61-23.27-25.37-2.36-1.92-5.76,1.41-3.38,3.38Z"/><path class="cls-5" d="M356.3,171.46l.78.46a1.13,1.13,0,0,0,1.54-1.54l-.46-.78a1.36,1.36,0,1,0-1.86,1.86Z"/><path class="cls-5" d="M332.29,192c10-4,20.65-9,27.46-17.58a2,2,0,0,0-2.38-3.09c-9.29,4.95-17.42,11.59-27,16.13-2.51,1.19-.71,5.6,1.91,4.54Z"/><path class="cls-5" d="M355.65,198.65a1,1,0,0,0,0-2.07,1,1,0,0,0,0,2.07Z"/><path class="cls-6" d="M2.15,199.29C10.51,202.18,20,206,29,205.92c2,0,3.07-3,1.09-4-8.12-4-17.68-5.63-26.22-8.67C0,191.87-1.66,198,2.15,199.29Z"/><path class="cls-6" d="M13.74,208.22c2.72,1.19,5.28,2.7,8,3.9s5.2,3.23,7.88,4.7a1.41,1.41,0,0,0,1.92-1.92c-3.31-5.46-8.66-9.79-14-13.16-4.18-2.63-8.13,4.56-3.79,6.48Z"/><path class="cls-6" d="M43.81,252c4.15,6.84,9.36,14.14,16.27,18.41,1.59,1,2.91-1.14,1.87-2.43-4.9-6.09-10.28-11.42-14.34-18.2-1.45-2.43-5.28-.21-3.8,2.22Z"/><path class="cls-6" d="M40.17,260.76c8.3,14.88,17.49,30,29.5,42.17.73.74,2.1-.24,1.47-1.14-9.8-14-20.43-27.31-29.27-42a1,1,0,0,0-1.7,1Z"/><path class="cls-7" d="M64.46,272.12c2.78,8.2,5.37,16.48,8.7,24.47a1.36,1.36,0,0,0,2.63-.72c-2.06-8.39-4.91-16.57-7.53-24.79-.77-2.41-4.62-1.36-3.8,1Z"/><path class="cls-7" d="M75.27,274.76c1.7,8,3.74,15.75,8.1,22.77a1.27,1.27,0,0,0,2.31-1c-1.45-7.85-4.29-15.21-6.71-22.82a1.92,1.92,0,0,0-3.7,1Z"/><path class="cls-7" d="M91.65,280.63a2.35,2.35,0,1,0-2.35-2.35,2.37,2.37,0,0,0,2.35,2.35Z"/><path class="cls-7" d="M91.1,221.24a74.73,74.73,0,0,1,7.1-10c2.37-2.81,5.73-5.22,7.5-8.45a2.38,2.38,0,0,0-2.65-3.45c-3.88,1.22-7.1,4.9-9.79,7.8a63.57,63.57,0,0,0-7.83,10.75c-2.16,3.64,3.52,6.95,5.67,3.31Z"/><path class="cls-7" d="M77.72,222.69c6.64-5.1,14-9.83,19.77-15.9a1.65,1.65,0,0,0-2-2.57c-7.34,3.58-13.92,9-20.62,13.62-3,2.08,0,7,2.84,4.85Z"/><path class="cls-7" d="M24.26,269.76c4.41,9.09,7.23,19.12,12.08,27.94.66,1.21,2.84.73,2.7-.73-.93-10.18-6.6-20.38-11.95-28.87a1.64,1.64,0,0,0-2.83,1.66Z"/><path class="cls-7" d="M37.71,284.35c5.4,8,14,14.68,23.85,15.59,1.44.13,1.55-2,.33-2.4-8.7-3.05-16-7-21.27-14.9-1.19-1.8-4.13-.1-2.91,1.71Z"/><path class="cls-7" d="M96.64,261.34l-.18-.62a.85.85,0,0,0-1.63,0l-.18.62a1,1,0,1,0,2,0Z"/><path class="cls-7" d="M151,261.67c6.57-5.18,13.26-10.25,19.62-15.7,2-1.72-.57-4.88-2.78-3.61-7.29,4.21-14.33,8.85-21.44,13.35-4.56,2.88.21,9.42,4.6,6Z"/><path class="cls-7" d="M194,346.76l4.84-3.52c1.06-.76.47-2.88-1-2.31l-5.42,2.15a2,2,0,0,0-1.31,2.72,2,2,0,0,0,2.86,1Z"/><path class="cls-8" d="M136.09,388.85q13.91,5.75,28,10.92c8.74,3.19,18.19,7.25,27.53,8,2.26.19,2.89-3.05,1.11-4.1-8.08-4.8-18-7.23-26.85-10.42q-14.15-5.13-28.06-10.86c-4-1.62-5.67,4.81-1.76,6.42Z"/><path class="cls-8" d="M176.89,406.37c12.14,3.25,25.42,6.77,38.09,6.47a1.88,1.88,0,0,0,.5-3.68c-12.25-3.24-24.85-4.78-37.07-8.3-3.54-1-5.08,4.56-1.52,5.51Z"/><path class="cls-8" d="M179.66,383c13.78,1,28.21,3.16,42,1.74,2.13-.22,2.88-3.34.53-4-13.66-3.55-28.53-3.6-42.54-4.72-4.45-.35-4.45,6.62,0,6.94Z"/><path class="cls-9" d="M108.6,375.9c12.42,7.23,25.78,13.75,40,16.65,2,.41,3.55-2.49,1.49-3.51-12.73-6.28-25.87-11.63-38.37-18.4-3.44-1.87-6.47,3.28-3.07,5.26Z"/><path class="cls-9" d="M144.45,386.89q16.63,3.08,33,7.49a.79.79,0,0,0,.42-1.53q-16-5.58-32.34-9.84c-2.54-.67-3.6,3.42-1.07,3.88Z"/><path class="cls-10" d="M135,371.52c16.2,7,33.08,14.26,50.46,17.62a1,1,0,0,0,.53-1.89c-16.38-6.72-33.53-11.54-50-18-1.32-.52-2.29,1.75-1,2.31Z"/><path class="cls-10" d="M203,370.18l-1.76.1c-3,.18-3.93,4.69-.74,5.46C217.9,380,237,383.31,255,381.56c1.28-.12,1.76-2.06.32-2.39-17.46-4.07-35.66-5.74-53.34-8.79l-.74,5.46,1.76-.22c3.37-.43,3.57-5.65,0-5.44Z"/><path class="cls-10" d="M224.31,371c6.65.26,13.3.58,19.95.78,6.08.18,12.57.77,18.58-.24,1.94-.32,1.81-3.37,0-3.79-5.93-1.39-12.51-1.19-18.58-1.4-6.64-.23-13.3-.34-19.95-.51-3.32-.08-3.31,5,0,5.16Z"/><path class="cls-10" d="M254.32,367l14-.27a1.17,1.17,0,0,0,0-2.34l-14-1.6c-2.65-.31-2.78,4.27,0,4.21Z"/><path class="cls-10" d="M192.84,355.54c7.95-2.86,15.95-5.6,23.82-8.68,1.53-.6,1-3-.7-2.53-8.12,2.25-16.14,4.84-24.19,7.32-2.49.77-1.36,4.76,1.07,3.89Z"/><path class="cls-10" d="M195,355.44a165.7,165.7,0,0,0,19.33-2.66c6.13-1.24,13.14-2.43,18.49-5.82,1.7-1.07,1.2-4.33-1.11-4.1-5.78.56-11.37,2.87-17,4.21a150.84,150.84,0,0,1-19.7,3.31c-3.19.32-3.28,5.32,0,5.06Z"/><path class="cls-10" d="M67.29,317.25c6.6-5.56,13.39-11.09,18.62-18,1-1.37-1-3.36-2.37-2.38-7,5.06-13.07,11.36-19.57,17.06-2.28,2,1,5.23,3.32,3.31Z"/><path class="cls-10" d="M47.87,320.52c4.66-6.14,9.93-13.16,12.24-20.6.44-1.41-1.46-2-2.23-.94-4.58,6.26-8,13.2-12.88,19.33a1.82,1.82,0,1,0,2.87,2.21Z"/><path class="cls-10" d="M58.7,321.94c4.62-8.06,9-16.15,13.11-24.51,3.78-7.77,8-15.61,10.91-23.78.31-.89-1-1.34-1.46-.62-4.83,7.46-8.62,15.7-12.91,23.49s-8.42,15.78-12.57,23.72c-1,1.92,1.83,3.6,2.92,1.7Z"/><path class="cls-10" d="M61.08,267.72q10.1-9.32,20.61-18.15c7-5.82,14.47-11.29,20.91-17.69a1.46,1.46,0,0,0-1.76-2.29c-15.68,9.1-29.42,23-42.47,35.41-1.8,1.71.9,4.4,2.71,2.72Z"/><path class="cls-10" d="M84.47,271.77c4.66-5.75,9.46-11.4,13.81-17.4,1-1.39-1.19-3-2.36-1.82-5,5.2-9.67,10.79-14.43,16.24-1.79,2.06,1.29,5.07,3,3Z"/><path class="cls-10" d="M95.47,272.77c3.23-3.1,6.49-6.19,9.79-9.2,3.06-2.8,6.58-5.26,9.07-8.6,1.15-1.55-1-3-2.38-2.38-4,1.83-7.18,5.37-10.24,8.38A95,95,0,0,0,93,270.89c-1.1,1.43,1.21,3.05,2.43,1.88Z"/><path class="cls-10" d="M101.14,271.51A112.59,112.59,0,0,1,119.31,251c6.6-5.83,14-10.6,20.9-16,1.19-.94-.11-3-1.46-2.51-17.65,5.86-32.23,21.26-42.55,36.14-2.1,3,2.85,5.9,4.94,2.89Z"/><path class="cls-10" d="M123.85,260c6.12,3.09,14.5-3.77,19.74-6.82a239.32,239.32,0,0,0,21.87-14.7c13.43-9.92,27.72-20.91,36.07-35.62a1.79,1.79,0,0,0-2.43-2.44c-12.65,7.74-23.36,18.5-35,27.71q-9.19,7.29-19,13.82l-8.77,5.88c-1.65,1.11-8.07,6.55-9.86,5.83-3.64-1.46-6.16,4.58-2.68,6.34Z"/><path class="cls-10" d="M168.55,195.65c8.23-4.29,16.49-8.54,24.69-12.88,7.55-4,16.28-7.82,22.77-13.4,1.79-1.54-.13-4.43-2.24-3.84-8.24,2.29-16.33,7.51-23.84,11.57-8.16,4.41-16.27,8.91-24.4,13.37-3.4,1.86-.39,7,3,5.18Z"/><path class="cls-10" d="M165.18,180.48l13.69-16.69c4.12-5,9.79-10.2,12.51-16.09,1-2.17-1.29-5.51-3.72-3.72-5.28,3.89-9.17,10.22-13.3,15.3L160.74,176c-2.53,3.11,1.87,7.58,4.44,4.44Z"/><path class="cls-10" d="M153.94,156.28c2.73-13,9.4-24.38,18-34.37,1.45-1.68-.53-4.87-2.55-3.31-11.58,8.92-18.35,21.94-20.69,36.24-.55,3.38,4.52,4.91,5.25,1.44Z"/><path class="cls-10" d="M145.32,120c10.59-15.93,23.53-29.64,36.21-43.87,1.82-2-.66-5.92-3.13-4-15.81,11.94-28.24,27.95-39,44.47-2.41,3.71,3.48,7.1,5.91,3.45Z"/><path class="cls-10" d="M77.61,86.13,74,84.28l.63,4.88c9.65-9.65,19-19.5,29.18-28.57s21.32-17,31.06-26.36c2-1.93-.54-5-2.9-3.76-11.89,6.41-22.23,15.74-32.25,24.75-10.28,9.25-20.6,18.93-29.48,29.54A3.16,3.16,0,0,0,71.6,90l3.84,1.31c3,1,5-3.68,2.17-5.14Z"/><path class="cls-10" d="M85.52,104.33C96.87,95.7,108.61,87.39,119.31,78c1.16-1-.35-3-1.65-2.13-12,7.44-23.14,16.18-34.51,24.47-2.43,1.77,0,5.86,2.37,4Z"/><path class="cls-10" d="M40.81,161.15c1.92-6.22,4.43-12.55,5.54-19,.38-2.23-2.6-3.85-3.86-1.63-3.33,5.87-5.47,12.61-8,18.86-1.55,3.83,5.06,5.85,6.33,1.74Z"/><path class="cls-10" d="M18,196.32c-2.64-16.38,1.92-32.27,10.89-46,.91-1.41-1.24-3.13-2.36-1.82C15,162,11,180.15,13.63,197.52c.43,2.85,4.8,1.65,4.34-1.2Z"/><path class="cls-10" d="M94.31,177.12a1.5,1.5,0,0,0,0-3,1.5,1.5,0,0,0,0,3Z"/><path class="cls-10" d="M213.87,105.6c7-4.92,14.1-9.64,20.69-15.06,2-1.64-.55-4.62-2.67-3.46-7.28,4-14.13,8.75-21.1,13.26-3.31,2.14-.11,7.51,3.08,5.26Z"/><path class="cls-10" d="M239,88.28c4.56-5,9-10.14,13.27-15.4,3.74-4.61,8.16-9.46,10-15.21.65-2.09-2-4.28-3.86-3-4.93,3.43-8.36,8.86-12.1,13.47-4.07,5-8.3,9.94-12.64,14.74-3.27,3.62,2.07,9,5.37,5.37Z"/><path class="cls-10" d="M239.47,78.27c1.29-11.85,4.17-24.66,2.32-36.52-.34-2.17-3.4-1.75-4,0-3.8,11.37-3,24.64-3.68,36.52-.2,3.48,5,3.35,5.34,0Z"/><path class="cls-10" d="M216.42,153.44q17-7.6,34.44-14.23c10.74-4.08,22.2-7.31,32.36-12.73,2-1,.49-3.61-1.41-3.34-12.09,1.74-23.9,6.91-35.18,11.39q-16.69,6.61-33,14.13c-3.24,1.49-.42,6.21,2.79,4.78Z"/><path class="cls-10" d="M245.1,158.74c9.14-4.44,18.41-8.61,27.84-12.42,8.44-3.4,18.31-6.13,25.89-11.2,1.6-1.06,1.18-4.11-1.06-3.93-9.32.75-18.92,5.34-27.42,9-9.58,4.12-19,8.6-28.28,13.37-3.45,1.78-.42,6.86,3,5.18Z"/><path class="cls-10" d="M292.16,150.14l2.58-1a1.61,1.61,0,0,0,1.14-1.75,1.57,1.57,0,0,0-1.57-1.38l-2.66.34a1.92,1.92,0,1,0,.51,3.78Z"/><path class="cls-10" d="M233.91,248.35c10.14-5.5,21.5-10.09,30.82-16.91,2-1.47.93-5.09-1.8-4.29-11.27,3.34-21.92,10.2-32.14,15.86-3.49,1.92-.38,7.23,3.12,5.34Z"/><path class="cls-10" d="M250.75,258.27c5.15-2,10.36-3.86,15.51-5.86,4.69-1.82,10.15-3.27,14.28-6.16,2.36-1.66,1.77-6-1.59-5.86-5.06.25-10.13,2.39-14.89,4-5.22,1.81-10.35,3.92-15.48,6-4.79,1.93-2.75,9.78,2.17,7.87Z"/><path class="cls-10" d="M253.82,276.58c7-2.95,14.07-5.89,20.95-9.17,6.49-3.09,14.49-6.07,19.91-10.82,2-1.72-.15-4.66-2.42-4.15-6.8,1.55-13.59,6-19.91,8.92-7,3.24-13.83,6.64-20.81,9.82-3,1.37-.82,6.7,2.28,5.4Z"/><path class="cls-10" d="M296.61,265.1c15.77-4.83,31.5-9.56,47-15.23a2.34,2.34,0,0,0-1.24-4.52c-16.07,3.67-31.83,8.26-47.67,12.79-4.46,1.27-2.53,8.32,1.92,7Z"/><path class="cls-10" d="M342.15,350.78a19.15,19.15,0,0,1-3.5,3.64l3.17,2.44c1.93-10,.81-21.2,0-31.33a186.45,186.45,0,0,0-4.74-30.92,1.08,1.08,0,0,0-2.12.29c.09,10.56.71,21,1.13,31.59.39,10-.2,20.53,1.56,30.37.38,2.14,3.66,2,4.16,0a17.7,17.7,0,0,1,2.25-4.6c.7-1.16-1-2.57-1.92-1.48Z"/><path class="cls-10" d="M326.31,364.24c3.38,0,3.39-5.25,0-5.25s-3.38,5.25,0,5.25Z"/><path class="cls-10" d="M283,399.76c3.62,0,3.63-5.62,0-5.62s-3.62,5.62,0,5.62Z"/><path class="cls-10" d="M183.64,403.56c17.17-1.29,35.48-3.32,51.44-10.15,2.51-1.08,1.28-5.56-1.42-5.24-16.75,1.94-33.15,5.94-50,7.33-5.12.42-5.19,8.45,0,8.06Z"/><path class="cls-10" d="M212.16,13.09c5.82,3.06,12.27,4.81,18.59,6.51s13.1,3.6,19.55,3.21c1.62-.1,2.61-2.5.9-3.32-5.84-2.82-12.65-3.93-18.94-5.36s-12.78-3.27-19.32-3.92c-1.54-.16-2.09,2.19-.78,2.88Z"/><path class="cls-10" d="M242.63,19.54l16.3,3.53c4.81,1,9.78,2.57,14.72,2.51.61,0,1-.93.33-1.22-4.45-2.11-9.56-2.8-14.35-3.85l-16.28-3.59c-1.7-.37-2.43,2.25-.72,2.62Z"/><path class="cls-10" d="M267,23.5l.71,2.05a4.78,4.78,0,0,0,.62,1.38,4.07,4.07,0,0,0,1.12,1,1.93,1.93,0,0,0,2.82-1.15,3.62,3.62,0,0,0,.15-1.22,4.9,4.9,0,0,0-.58-1.74l-.9-2A2.16,2.16,0,0,0,267,23.5Z"/><path class="cls-10" d="M237.57,68.27c8.85,3,18.2,2.44,27.42,2.48,10,0,19.9.21,29.8-1.33,1.74-.28,1.75-3.26,0-3.53-9.27-1.42-18.48-1.33-27.85-1.27S248,65.5,239,63.12c-3.35-.89-4.66,4.06-1.42,5.15Z"/><path class="cls-10" d="M267.67,68.28c9.44,1,18.85,2,28.31,2.81,8.68.72,18.37,2.65,27,1.45,2.63-.36,2.18-4.22,0-4.88-8.33-2.5-18.38-2-27-2.56-9.44-.65-18.86-1.11-28.31-1.51-3.07-.13-2.93,4.36,0,4.69Z"/><path class="cls-10" d="M308,50.05c6.35,4.55,12.64,9.13,19.26,13.3,6.14,3.87,12.44,8.65,19.69,10.06a2.36,2.36,0,0,0,2.28-3.92c-5-5.44-12.2-8.44-18.53-12C323.88,53.63,317,50,310.23,46.16c-2.56-1.46-4.58,2.23-2.27,3.89Z"/><path class="cls-10" d="M333.48,51.52c4.33,3,8.7,6,13.16,8.81,3.79,2.4,7.82,5.07,12.39,5.36a2.17,2.17,0,0,0,1.86-3.24c-2.62-3.72-6.89-5.84-10.77-8.07q-6.86-3.93-13.56-8.12c-3.37-2.11-6.25,3.05-3.08,5.26Z"/><path class="cls-10" d="M352.41,53.14a125.48,125.48,0,0,1,9.33,14.57c2.52,4.66,4.46,10,7.7,14.14,1.15,1.5,4,.28,3.84-1.59-1.18-10.72-9.56-21.71-15.93-30-2.2-2.86-7.14-.1-4.94,2.89Z"/><path class="cls-5" d="M191.81,155.3l20-5.78c6.06-1.75,12.83-3.45,18.37-6.48,2-1.08,1.17-4.54-1.18-4.37-6.31.46-12.9,2.67-18.94,4.49l-19.94,6c-3.92,1.18-2.27,7.29,1.69,6.15Z"/><path class="cls-5" d="M191.13,169.92q13-3,25.82-6.43c7.81-2.11,17-4.15,23.82-8.64,1.75-1.16,1.22-4.31-1.14-4.19-8.21.4-16.69,3.8-24.52,6.16q-12.74,3.83-25.62,7.13c-3.87,1-2.23,6.85,1.64,6Z"/><path class="cls-5" d="M76,268.43c1.67-10.68,3.55-23.62-.13-34.07-.64-1.84-3.86-2.34-4.24,0-.86,5.2-.4,10.7-.6,16-.23,5.77-.42,11.53-1,17.28-.35,3.38,5.45,4.21,6,.81Z"/><path class="cls-5" d="M60.83,235.75c4.62-6.81,10.94-13.3,14-21,.66-1.62-1.58-3.22-3-2.28-7,4.78-11.67,13.3-16.19,20.27-2.08,3.21,3,6.1,5.1,3Z"/><path class="cls-5" d="M49.9,229.61a63.64,63.64,0,0,1-.06-6.48c.07-2,.32-4.12-.36-6-.43-1.18-2.18-2-3.14-.83-2.78,3.5-2.42,9.09-2.25,13.32.14,3.75,6,3.73,5.81,0Z"/><path class="cls-5" d="M30.64,232.48c4.09-3,8.77-5.14,12.85-8.15,1.6-1.19,1.32-4.38-1.14-4.2-5.58.41-10.63,3.32-15.16,6.44-3.65,2.5-.05,8.51,3.45,5.91Z"/><path class="cls-5" d="M16.31,226c7.55-.22,15.17-.13,22.67-1A2,2,0,0,0,39,221c-7.53-.47-15.13.07-22.67.29-3,.09-3,4.78,0,4.69Z"/><path class="cls-5" d="M9.34,196.13c9.47,3.76,21,7.77,31.31,6.14,1.27-.2,1.13-2.14,0-2.44-5-1.32-10.31-1.47-15.43-2.37a103,103,0,0,1-15.16-4c-1.69-.58-2.31,2-.72,2.62Z"/><path class="cls-5" d="M12.12,195.39c7.47,2.44,16.14,5.13,24.07,4,2.16-.32,1.54-3.17,0-3.8-7.08-2.88-15.11-3.79-22.37-6.32-3.87-1.35-5.6,4.87-1.7,6.15Z"/><path class="cls-5" d="M13.43,192.82c16.87,3,35.89,5.61,52.81,1.64,2.57-.6,1.74-4.1-.59-4.33-8.19-.8-16.57-.5-24.8-.91a206.41,206.41,0,0,1-25.63-2.91c-4.25-.74-6.07,5.76-1.79,6.51Z"/><path class="cls-5" d="M39,189.42c11.54-1,23.14-1.41,34.37-4.43,1.57-.42,1.09-2.51-.36-2.67-11.36-1.2-22.66.1-34,.91-4,.29-4,6.53,0,6.19Z"/><path class="cls-5" d="M7.47,175.33c6.41,1,15.23,2.93,21.43.42a2.23,2.23,0,0,0,0-4.25c-2.86-1.06-6.06-1-9.07-1.16-3.58-.23-7.12-.6-10.66-1.16-4-.63-5.74,5.54-1.7,6.15Z"/><path class="cls-5" d="M20.18,172.15c2.23-3.79,4.59-7.57,7.11-11.19,1.81-2.59-2-5.17-4.2-3.23a57.44,57.44,0,0,0-9.31,10.68c-2.65,3.93,4,7.88,6.4,3.74Z"/><path class="cls-5" d="M23.43,157.81A111.47,111.47,0,0,0,26.3,145.5c.3-2.14-2.53-3.82-3.77-1.59a115.71,115.71,0,0,0-5.33,12.18c-1.57,3.76,5.18,5.86,6.23,1.72Z"/><path class="cls-5" d="M12.69,140.06c6.09-8.55,14.38-15.06,20.5-23.49a1.71,1.71,0,0,0-1.91-2.48c-10.31,4-18.19,13.85-24.74,22.37-2.75,3.59,3.48,7.35,6.15,3.6Z"/><path class="cls-5" d="M23.35,136.53c5.26-3.52,10.82-6.78,15.52-11,2.42-2.18-.66-5.35-3.24-4.19-5.53,2.48-10.57,6.14-15.69,9.39-3.67,2.33-.2,8.25,3.41,5.83Z"/><path class="cls-5" d="M26.31,155.19c3.74,0,3.75-5.81,0-5.81s-3.74,5.81,0,5.81Z"/><path class="cls-5" d="M30.88,258.4c8.41,3.45,16.79,7.35,25.56,9.78a1.88,1.88,0,0,0,1.45-3.42c-7.83-4.66-16.45-8-24.77-11.68a2.9,2.9,0,1,0-2.24,5.32Z"/><path class="cls-5" d="M10,243.23c8.6,1.69,17.22,3.2,25.88,4.47,8,1.17,17.07,2.79,25.11,1.77,2.51-.32,3.18-3.6.61-4.51-7.67-2.71-16.66-3.36-24.68-4.64q-12.48-2-24.85-4.59c-4.89-1-7,6.54-2.07,7.5Z"/><path class="cls-5" d="M34.67,233.85c9.23,2.59,18.45,5.53,27.83,7.52,2,.43,3.56-2.52,1.48-3.51-8.87-4.23-18.2-7.59-27.32-11.24-4.4-1.76-6.73,5.91-2,7.23Z"/><path class="cls-5" d="M52.63,277.32l7.8,2.28c1.91.56,3.6-2.07,2-3.44l-6.07-5.26a3.84,3.84,0,1,0-3.74,6.42Z"/><path class="cls-5" d="M55.34,285.81c3.5,1.25,7,2.51,10.39,3.93,2.41,1,3.66-2.72,1.7-4-3.16-2.1-6.21-4.33-9.27-6.59-4-2.92-8.2,4.76-2.82,6.69Z"/><path class="cls-5" d="M57.59,313.83a41.51,41.51,0,0,0,7,3.73,22.14,22.14,0,0,0,7.67,1.23c2.36.09,3-3.12,1.16-4.28s-3.52-2.58-5.39-3.69a42.87,42.87,0,0,1-5.32-3.61c-4.7-3.88-10.23,3.28-5.11,6.62Z"/><path class="cls-5" d="M114.07,330.92,121,340c2.09,2.77,4.16,5.93,6.9,8.07,1.19.93,3.59.13,2.9-1.69-2.5-6.57-8.08-12.45-12.16-18.13-2-2.74-6.56,0-4.54,2.65Z"/><path class="cls-5" d="M168.12,314.11A132.39,132.39,0,0,1,178.22,302c3.05-3.27,7.18-7,9.24-10.94,1-2-.72-5-3.18-4.13-4.69,1.72-9.13,6.17-12.39,9.87a120.84,120.84,0,0,0-10.17,13.54c-2.66,4.05,3.64,7.51,6.4,3.74Z"/><path class="cls-5" d="M171.61,311.58c7.63-7.64,16.95-12.74,25.4-19.31,1.76-1.36-.26-3.53-1.91-3.29-11.43,1.68-20.81,9.37-28.66,17.43-3.28,3.37,1.84,8.51,5.17,5.17Z"/><path class="cls-5" d="M204.66,346.54c5,1.54,10,3,15.11,4.08,4.58,1,9.84,2.37,14.53,1.83,2.39-.27,4.18-3.86,1.4-5.15-4.33-2-9.34-2.64-14-3.79-5.07-1.27-10.1-2.62-15.08-4.2-4.61-1.46-6.6,5.8-2,7.23Z"/><path class="cls-5" d="M195.18,349.76c16.12,5.48,32.75,9,49.8,7.89,2.8-.18,3.87-4.76.71-5.25-16.3-2.57-32.61-5.46-48.2-11-5.27-1.9-7.62,6.6-2.31,8.4Z"/><path class="cls-5" d="M227,356.52c9.31.89,18.65,2.16,28,1.6a1.79,1.79,0,0,0,.48-3.5c-8.94-2.73-18.31-3.69-27.54-5-5-.71-6,6.42-.94,6.91Z"/><path class="cls-5" d="M250,348.59c9.44,3,20.23,7,30.28,6.38,2.17-.13,3.49-3.34,1.2-4.45-9.12-4.43-19.81-6.11-29.41-9.43-4.72-1.64-6.84,6-2.07,7.5Z"/><path class="cls-5" d="M251.65,384c12,.06,24.62.72,36.41-1.88,1.38-.3,1.49-2.68,0-2.89-12-1.74-24.33-.94-36.41-1.42-4-.16-4,6.16,0,6.19Z"/><path class="cls-5" d="M246.31,382.39c16.32-.39,34.31,0,49.89-5.32a2,2,0,0,0-.52-3.87c-16.25-1.4-33.06,1.62-49.37,2.16-4.51.15-4.54,7.14,0,7Z"/><path class="cls-5" d="M172.17,376.82c11.5,5.32,24.7,11.82,37.49,12.83,2,.16,2.82-2.94,1-3.84-5.25-2.67-11.28-4.35-16.83-6.33-6.37-2.28-12.62-4.86-18.77-7.68-3.37-1.54-6.33,3.45-2.93,5Z"/><path class="cls-5" d="M176.06,386.31c13.66,4.26,29.12,9.95,43.61,8.84,1.47-.11,2.43-2.3.83-3.06C214,389,207,387.48,200,385.74c-7.42-1.85-14.78-4-22.07-6.3-4.37-1.4-6.26,5.5-1.89,6.87Z"/><path class="cls-5" d="M151,386.33c3.5,0,3.51-5.43,0-5.43s-3.5,5.43,0,5.43Z"/><path class="cls-5" d="M89.07,359.27a4.51,4.51,0,0,1,1.09,1c.31.42.65.8,1,1.2a.75.75,0,0,0,1.28-.53,3.41,3.41,0,0,0-.63-2,7,7,0,0,0-1.58-1.59,1.13,1.13,0,0,0-1.54.4,1.15,1.15,0,0,0,.41,1.54Z"/><path class="cls-5" d="M59.76,347.45c4.61,3.83,10.23,6.41,15.53,9.17a128.57,128.57,0,0,0,16.53,7.25c1.61.57,2.28-1.7,1.08-2.57a131.07,131.07,0,0,0-15.81-9.71c-5-2.64-10.09-5.67-15.56-7.2-1.66-.46-3.23,1.85-1.77,3.06Z"/><path class="cls-5" d="M71.84,320.57c3.81-2.12,6.66-6.39,9.36-9.74a56.79,56.79,0,0,0,7.24-11.66,1.51,1.51,0,0,0-2.36-1.82A56.12,56.12,0,0,0,76.29,307c-2.67,3.39-6.17,7.06-7.41,11.25a2,2,0,0,0,3,2.28Z"/><path class="cls-5" d="M103.2,281.16c3.68-3.52,8.28-7,10.18-11.83A1.93,1.93,0,0,0,111,267c-5,1.62-8.69,6.16-12.39,9.62-3,2.85,1.56,7.46,4.57,4.57Z"/><path class="cls-5" d="M96.59,255.76l1.67-4.94c.63-1.87-2.06-3.48-3.37-2l-3.4,3.93a3.05,3.05,0,1,0,5.1,3Z"/><path class="cls-5" d="M85.65,244.47c3.68,0,3.68-5.71,0-5.71s-3.69,5.71,0,5.71Z"/><path class="cls-5" d="M56.69,182.59c4.18,2.66,10.75,6.61,15.92,5.46,1-.23,1-1.52.27-2.05-1.89-1.43-4.55-2-6.74-2.85a44.11,44.11,0,0,1-7.51-3.88c-2.1-1.33-4,2-1.94,3.32Z"/><path class="cls-5" d="M60.31,175.59c3.39,2.86,6.72,5.81,10.21,8.55,3.08,2.4,6.14,5.07,9.92,6.24a2.27,2.27,0,0,0,2.54-3.3c-2.09-3.55-5.66-6.12-8.87-8.61s-6.78-5.07-10.17-7.59c-2.71-2-6.23,2.52-3.63,4.71Z"/><path class="cls-5" d="M71.93,182.68c4.53,5.6,10.18,11.63,17.38,13.56a1.42,1.42,0,0,0,1.37-2.35c-4.58-5.37-10.54-9.41-15.17-14.79-2.15-2.5-5.6,1.09-3.58,3.58Z"/><path class="cls-5" d="M70.41,172.84c7.44,9.37,18.13,19.3,29.49,23.66,1.49.57,2.86-1.74,1.59-2.74-4.52-3.57-9.58-6.46-14.17-10a165.29,165.29,0,0,1-14.73-13.14c-1.46-1.42-3.39.67-2.18,2.19Z"/><path class="cls-5" d="M175,207.14c9.14-3.22,17.84-7.74,26.37-12.33,8.07-4.35,18.23-8.85,24.61-15.53,1.49-1.56,0-4.48-2.19-3.76-8.63,2.8-16.76,9.14-24.66,13.58-8.54,4.8-17.35,9.21-25.68,14.36-1.87,1.15-.68,4.47,1.55,3.68Z"/><path class="cls-5" d="M174.07,202.85l18.39-12.1c5.8-3.82,11.86-7.24,16.33-12.65.93-1.13.1-3.2-1.55-2.66-6.65,2.15-12,6.41-17.66,10.38l-18.07,12.66c-2.63,1.85-.19,6.18,2.56,4.37Z"/><path class="cls-5" d="M189.76,198.45q12.23-4.8,24.33-9.87c2-.85,1.33-4.09-.94-3.43-8.37,2.41-16.68,4.91-25,7.52-3.72,1.17-1.95,7.17,1.6,5.78Z"/><path class="cls-5" d="M215.65,202c10.74-.81,22.18-.56,32.57-3.62,1.88-.56,2.21-3.81,0-4.16-10.67-1.69-21.84-.1-32.57.47-4.7.24-4.68,7.66,0,7.31Z"/><path class="cls-5" d="M67.62,107c2.29,4.11,7,8.76,8.29,13.28a1.53,1.53,0,0,0,2.54.67c4.85-5.71,7.7-13.28,11.53-19.72,4.13-7,8.74-13.56,12.45-20.75a1.74,1.74,0,0,0-2.72-2.1c-6.49,5.42-11.22,12.24-15.33,19.58-3.67,6.54-8.07,14.33-8.52,21.92l1.92-1.46c-4.34-1.55-7.67-7.83-10-11.52a.09.09,0,0,0-.16.1Z"/><path class="cls-5" d="M85.51,108.42c5.89-7.75,13.81-14.58,18.91-22.82a2.23,2.23,0,0,0-3-3c-8.59,5.16-15.18,14.89-21.07,22.81-2.32,3.11,2.88,6,5.18,3Z"/><path class="cls-10" d="M87.37,116.34a188.33,188.33,0,0,0,9.84-20.2c.5-1.19-1.08-2.22-1.79-1a200.58,200.58,0,0,1-12.83,18.46c-2.12,2.76,3,6,4.78,2.79Z"/><path class="cls-10" d="M95.46,121.45c1.69-11.55,5.6-22,10.13-32.72.94-2.21-2-4.13-3.32-1.94C96.16,97.11,93.21,109.13,91.78,121c-.25,2.08,3.38,2.59,3.68.5Z"/><path class="cls-10" d="M86.08,107.71c5.76-8.86,12.08-17.52,16.73-27,1-2-1.64-4.42-3.24-2.5C92.67,86.48,87.23,95.91,81.39,105c-1.91,3,2.79,5.66,4.69,2.74Z"/><path class="cls-10" d="M76.93,88.47C82.82,84.81,88.8,81.29,94.88,78c5.56-3,12.05-5.53,17-9.51,1.79-1.45-.18-4-2.1-3.6-6.09,1.4-12.14,5.41-17.56,8.47-6,3.41-12,7-17.8,10.77-2.72,1.76-.22,6.11,2.56,4.37Z"/><path class="cls-10" d="M77.68,101.3c5.75-2.55,11.95-4,17.53-6.88,1.66-.87.82-3.38-.92-3.41-6.82-.11-13.24,2.84-19.3,5.67-3.14,1.47-.41,6,2.69,4.62Z"/><path class="cls-10" d="M25.87,134.74c6.83,7.64,13.38,15.52,19.55,23.71,5.62,7.46,10.82,15.32,17.17,22.18,1.08,1.17,2.64-.31,2.06-1.59-8-17.59-23-33-36.2-46.88-1.63-1.72-4.14.84-2.58,2.58Z"/><path class="cls-10" d="M66.71,171.58c2.41,10,5,20.25,9.6,29.48.79,1.59,3.06.42,2.74-1.16-2-10-5.34-19.71-7.73-29.6-.72-3-5.33-1.72-4.61,1.28Z"/><path class="cls-10" d="M37.54,226.3a113.86,113.86,0,0,1,19.9-6.37c6.39-1.46,13-2,19.34-3.63,1.59-.4,1.72-3,0-3.34-14.09-2.62-29.42,2.66-42,8.56-3.26,1.53-.42,6.17,2.79,4.78Z"/><path class="cls-10" d="M51.73,228.31c8.57-1.68,17.82-3.43,25.48-7.81,1.84-1.06.48-3.42-1.34-3.17-8.64,1.17-17,4.06-25.64,5.56-3.54.61-2.07,6.12,1.5,5.42Z"/><path class="cls-10" d="M91.62,243.92l15.82-5.3a1.73,1.73,0,0,0-.92-3.34l-16.17,4c-3,.75-1.65,5.59,1.27,4.61Z"/><path class="cls-10" d="M106.57,254.33c6.87-3.91,14-7.61,20.55-12,1.42-.94.57-3.54-1.23-2.91-7.65,2.7-15.06,6.25-22.49,9.49-3.62,1.58-.43,7.47,3.17,5.43Z"/><path class="cls-10" d="M96.5,270.21c6.75-3.32,13.62-6.47,20.17-10.19,1.94-1.1.64-4.44-1.56-3.68-7.1,2.45-14,5.52-20.93,8.38-4,1.65-1.61,7.42,2.32,5.49Z"/><path class="cls-10" d="M56.94,247.47c4.29,5.64,8.63,11.23,13.07,16.75s8.58,11.43,14.08,15.65c1.62,1.24,3.48-1.09,2.63-2.63-3.21-5.8-8.3-10.81-12.52-15.89q-6.87-8.3-13.5-16.78c-1.66-2.11-5.4.73-3.76,2.9Z"/><path class="cls-10" d="M67.65,286.51a.9.9,0,0,0,0-1.79.9.9,0,0,0,0,1.79Z"/><path class="cls-10" d="M6.91,252.86A134,134,0,0,0,20.6,281.8C26,290.29,32.49,299.21,41,304.85c1.24.83,3-.86,2.11-2.12-5.8-8-12.8-15.1-18.34-23.35a129.36,129.36,0,0,1-14-27.56c-.86-2.35-4.62-1.38-3.8,1Z"/><path class="cls-10" d="M27.29,276.87c7.69,11.4,15.77,22.55,25.11,32.65.57.61,1.7-.22,1.18-.91-8.17-10.91-16.51-21.68-24.1-33-.91-1.35-3.1-.08-2.19,1.27Z"/><path class="cls-10" d="M34.45,271.64a188.52,188.52,0,0,0,30.06,45.79c.7.78,1.74-.34,1.13-1.12a258.52,258.52,0,0,1-29-45.95c-.71-1.47-2.88-.18-2.18,1.28Z"/><path class="cls-10" d="M101,360.52a395.8,395.8,0,0,0,42.8,28.63,1,1,0,0,0,1-1.7c-14-9.71-27.59-20.07-40.61-31.05a2.61,2.61,0,1,0-3.18,4.12Z"/><path class="cls-10" d="M221,388.6a1,1,0,0,0,0-2,1,1,0,0,0,0,2Z"/><path class="cls-10" d="M195.29,350.24l.87-4.07-3.08,1.75c7.65,2.85,15.22,5.89,22.87,8.75S231,363.09,239,364.45a2,2,0,0,0,1.56-3.69c-6.65-4.52-14.58-7-22.06-9.74-7.94-2.93-16-5.44-24.11-7.93a2.5,2.5,0,0,0-3.08,1.75l-.65,4.13c-.47,3,3.95,4.33,4.61,1.27Z"/><path class="cls-10" d="M181.39,353.62c10.2,3.05,20.45,6,30.8,8.48,9.59,2.29,20.21,5.7,30.13,5.55,1.91,0,3-2.95,1-3.84-9.07-4.15-19.76-5.67-29.37-8.26-10.28-2.76-20.55-5.53-30.75-8.62-4.28-1.29-6.12,5.41-1.85,6.69Z"/><path class="cls-10" d="M230.31,358.42c6.68.31,13.34.65,20,1.21,2.25.19,2.78-3.55.54-4-6.58-1.2-13.09-2.62-19.61-4.07-4.91-1.09-6,6.58-.93,6.82Z"/><path class="cls-10" d="M186.09,325.49a162.59,162.59,0,0,0,20.11,3c5.66.48,13.39,1.7,18.39-1.58a1.84,1.84,0,0,0,0-3.15c-4.72-2.69-11.18-1.86-16.45-2.2a146.56,146.56,0,0,1-20.21-2.77c-4.35-.89-6.22,5.77-1.84,6.69Z"/><path class="cls-10" d="M233.11,278.44c14-5.43,27.92-12.83,37.85-24.18,1.31-1.49-.46-4.29-2.27-2.94-11.7,8.69-23.16,16.9-37.05,21.78-3.37,1.19-1.83,6.62,1.47,5.34Z"/><path class="cls-10" d="M254.64,265.78c10.07-7.78,20.3-15.66,28-25.86,1.16-1.53-1.1-3.68-2.63-2.63-10.07,6.94-18.93,15.43-28.69,22.82-3.33,2.53,0,8.24,3.32,5.67Z"/><path class="cls-10" d="M195.42,239.32c22.8-13.62,46.83-24.42,71.24-34.79,3.37-1.44,1-7-2.49-5.91-25.48,8.14-49.64,20.5-72.49,34.3-4.07,2.46-.37,8.85,3.74,6.4Z"/><path class="cls-10" d="M258.32,310.48q15.48-.15,31,.1c9.8.16,20,1,29.78-.34,2.77-.38,2.59-4.88,0-5.42-9.59-2-20-1.59-29.78-1.62q-15.5,0-31,.34c-4.46.11-4.48,7,0,6.94Z"/><path class="cls-10" d="M296.27,304.54q14.52-3.19,29-6.37c1.57-.34.87-2.57-.64-2.35L295,300.11c-2.85.41-1.72,5.07,1.23,4.43Z"/><path class="cls-10" d="M320.31,293.85c3.74,0,3.75-5.81,0-5.81s-3.74,5.81,0,5.81Z"/><path class="cls-10" d="M329,316.64c10.21-.65,21.09-.39,31.1-2.68,1.92-.44,1.3-3-.44-3.22-10-1-20.63.67-30.66,1.31-2.94.19-3,4.78,0,4.59Z"/><path class="cls-10" d="M324.31,310.71c7.56.49,15.1.55,22.67.41a1.5,1.5,0,0,0,0-3,189.79,189.79,0,0,1-21.84-3.49c-4.37-.93-5.35,5.78-.83,6.08Z"/><path class="cls-10" d="M317,319.32c9.55.07,19.11.27,28.67,0,3-.09,2.86-4.23,0-4.59-9.53-1.18-19.11-1.87-28.67-2.69-4.64-.4-4.76,7.28,0,7.31Z"/><path class="cls-10" d="M299.61,372.56c9.56-2.11,19-4.61,28.34-7.58,8.72-2.79,18.14-5.54,25.94-10.48a1.79,1.79,0,0,0-1.37-3.25c-9.14,2.16-17.88,6.28-26.81,9.18s-18.14,5.4-27.37,7.52c-3,.68-1.73,5.27,1.27,4.61Z"/><path class="cls-10" d="M314.73,377.27c4.75-2.56,9.42-5.25,14-8.13,4.16-2.62,8.85-5.29,12-9.09,1.42-1.7.13-5.11-2.42-4.15-4.67,1.74-8.75,4.89-13,7.47-4.61,2.81-9.32,5.43-14.11,7.91-4,2.05-.44,8.11,3.5,6Z"/><path class="cls-10" d="M328.31,352.22a.61.61,0,0,0,0-1.21.61.61,0,0,0,0,1.21Z"/><path class="cls-10" d="M356.31,330.24c7.67,0,7.68-11.91,0-11.91s-7.67,11.91,0,11.91Z"/><path class="cls-10" d="M384.8,309c8.17-19,15.84-38.74,18.09-59.36.16-1.48-2.06-1.62-2.48-.34-6.44,19.45-11,39.39-18.18,58.61-.56,1.48,1.94,2.55,2.57,1.09Z"/><path class="cls-10" d="M394,258.28c.06-7.6.77-15.51.06-23.08-.38-4-2.25-8.73-7-8.11a1.76,1.76,0,0,0-1.22,3c2.75,3.4,2.2,8.21,2.19,12.27v16c0,3.86,6,3.87,6,0Z"/><path class="cls-10" d="M389.62,264.28c.31-7.12.91-14.1-.34-21.11a1.7,1.7,0,0,0-3.26,0c-1.25,7-.66,14-.34,21.11a2,2,0,0,0,3.94,0Z"/><path class="cls-10" d="M354.84,277.41c11.23-1.92,21.64-8.13,27.88-17.79,6.81-10.54,8.74-23.65,8.6-36a1.65,1.65,0,0,0-3.22-.43c-2.84,10.41-4.2,21.54-9.63,31.05a39.41,39.41,0,0,1-24.83,18.83c-2.85.71-1.6,4.82,1.2,4.34Z"/><path class="cls-10" d="M334.11,237.41a186.08,186.08,0,0,0,13.62-15c3.72-4.59,7.77-9.33,9.77-14.95.68-1.92-1.9-3.08-3.21-1.87-4.48,4.1-7.69,9.67-11.48,14.38s-8,9.39-12.35,13.79c-2.33,2.37,1.29,6,3.65,3.65Z"/><path class="cls-10" d="M338.78,194.39c2.6-4.61,5.3-9.18,7.66-13.92.8-1.61-1.36-3.61-2.65-2.05-3.49,4.22-6.67,8.7-9.94,13.09-2.17,2.9,3.09,6.16,4.93,2.88Z"/><path class="cls-10" d="M321.56,185.76c11.16-5.1,22.66-12.67,28.27-23.93a1.75,1.75,0,0,0-2.73-2.1c-9.12,7.85-17.14,16.24-28,21.9-2.77,1.45-.34,5.38,2.41,4.13Z"/><path class="cls-10" d="M336.39,174l12.15-7c3.64-2.11,7.92-3.89,10.87-6.93A2.46,2.46,0,0,0,357,156c-4.09,1.1-7.74,4-11.35,6.14l-12,7.19c-3,1.8-.3,6.46,2.74,4.7Z"/><path class="cls-5" d="M355.14,174.3c3.58,6.86,7,13.84,10.92,20.51.66,1.12,2.21.14,1.7-1-3.15-7.08-6.84-13.94-10.35-20.85-.76-1.5-3.05-.17-2.27,1.33Z"/><path class="cls-5" d="M353.26,159.69a136.34,136.34,0,0,1,11.66,19.87c3.23,6.8,5.07,14.67,8.91,21.12,1,1.75,4,1.07,3.93-1.07-.24-7.32-3.95-14.87-7.08-21.37A137.14,137.14,0,0,0,357.88,157c-2-2.74-6.61-.14-4.62,2.7Z"/><path class="cls-5" d="M390.31,186.12a1.17,1.17,0,0,0,0-2.34,1.17,1.17,0,0,0,0,2.34Z"/><path class="cls-5" d="M397.65,205a1.41,1.41,0,0,0,0-2.81,1.41,1.41,0,0,0,0,2.81Z"/><path class="cls-5" d="M394.49,164.28c1.21,10.55,2.27,21.11,3.35,31.67,1,10.13,2.32,19.45,1.35,29.63a1,1,0,0,0,1.93.52c4.21-8.16,2.48-19.36,1.79-28.17-.89-11.24-2.2-22.45-3.46-33.65-.35-3.14-5.33-3.17-5,0Z"/><path class="cls-5" d="M399,224c4.52-18.51,8.47-38.6,7-57.7-.06-.83-1.43-1.16-1.56-.21-2.6,19.17-3.91,38.17-8.52,57.06-.49,2,2.58,2.84,3.07.85Z"/><path class="cls-5" d="M417.32,190.92c-2,17.2-7,33.5-12.58,49.8a1.08,1.08,0,0,0,2,.83c8.68-15.5,12.86-33.08,14.73-50.63.28-2.64-3.83-2.61-4.12,0Z"/><path class="cls-5" d="M332.58,315.21c10.65-10.27,22.12-23,27.05-37.23.43-1.24-1.42-2.39-2.27-1.32-4.41,5.51-8.22,11.66-12.44,17.34a158.63,158.63,0,0,1-15.59,18c-2.1,2.08,1.12,5.3,3.25,3.24Z"/><path class="cls-5" d="M317.17,285.4A107.56,107.56,0,0,0,350.82,269c9.24-6.89,19.64-16.15,24.44-26.85a1.46,1.46,0,0,0-2.28-1.77c-4.28,3.79-7.88,8.28-12.05,12.19a118.39,118.39,0,0,1-14.1,11.14,117,117,0,0,1-31.38,15.47c-3.95,1.24-2.29,7.44,1.72,6.24Z"/><path class="cls-5" d="M355.74,278.36c3.75-.53,7.49-1.18,11.19-2,3.37-.74,7.12-1.23,10-3.19a2.55,2.55,0,0,0-1.28-4.72c-3.49-.07-6.92,1.38-10.3,2.18-3.69.88-7.4,1.59-11.14,2.2s-2.06,6,1.52,5.51Z"/><path class="cls-5" d="M250.42,356.89q13.44,2,26.91,3.75c9.25,1.22,19,2.76,28.3,2.21,2.59-.15,3.37-4,.64-4.69-8.74-2.19-18-2.56-27-3.31-9.43-.8-18.86-1.47-28.28-2.28-2.44-.21-3.05,4-.58,4.32Z"/><path class="cls-5" d="M279.37,352.38c9.33,2.91,18.74,5.56,28.24,7.88,8,2,18.51,6,26.73,4.24,2.46-.53,2.54-3.83.66-5.05-3.84-2.5-8.92-3-13.35-3.9s-8.64-1.86-12.93-2.88c-9.2-2.19-18.32-4.69-27.38-7.44-4.57-1.38-6.5,5.73-2,7.15Z"/><path class="cls-5" d="M257,385a384.91,384.91,0,0,0,38.67-3c2.92-.37,3.05-5,0-4.69-12.85,1.16-25.77,1.88-38.67,2.29-3.49.12-3.51,5.53,0,5.44Z"/><path class="cls-5" d="M242.31,389.89a.94.94,0,0,0,0-1.88.94.94,0,0,0,0,1.88Z"/><path class="cls-5" d="M217.68,407.74a105.8,105.8,0,0,0,11.92-5.93,48.83,48.83,0,0,0,9.67-7.88c1.47-1.46,0-4.49-2.15-3.68-4,1.51-7.68,2.87-11.51,4.74-4,1.95-8,3.94-12.05,5.71-4.79,2.07-.66,9.15,4.12,7Z"/><path class="cls-5" d="M86.26,256.71c-1.23,0-3.5.25-4.46-.72s-.64-3.32-.63-4.52a63.2,63.2,0,0,1,.67-9.92,2.3,2.3,0,0,0-4.19-1.77,20.57,20.57,0,0,0-3.13,16.86c1.44,5.57,6.57,6.93,11.74,6.73,4.26-.16,4.3-6.65,0-6.66Z"/><path class="cls-5" d="M14,270.59c2.84,3.79,5.82,7.46,9,11,3,3.34,6.35,7.52,10.36,9.68,1.52.83,3.72-1,2.56-2.56-2.56-3.58-6.43-6.34-9.5-9.52A139.22,139.22,0,0,1,17,268.26c-1.33-1.7-4.33.58-3,2.33Z"/><path class="cls-3" d="M14.31,256.9c7.67,0,7.68-11.9,0-11.9s-7.67,11.9,0,11.9Z"/><path class="cls-3" d="M16,254.68,38.53,271.2c7.41,5.43,14.76,11.58,22.9,15.88a1.46,1.46,0,0,0,1.76-2.28c-6.41-6.37-14.37-11.5-21.62-16.84l-23.3-17.17c-2.33-1.71-4.58,2.19-2.27,3.89Z"/><path class="cls-3" d="M26.65,253.32a268.83,268.83,0,0,0,41.23,16.54c2.11.62,2.92-2.54.9-3.26a361.49,361.49,0,0,1-40.14-16.68c-2.26-1.13-4.26,2.28-2,3.4Z"/><path class="cls-3" d="M9.94,231c13,4.39,26.07,9.84,39.44,12.94,1.08.26,1.9-1.38.79-1.88-12.59-5.72-26.38-9.4-39.46-13.86-1.77-.61-2.54,2.2-.77,2.8Z"/><path class="cls-3" d="M17.82,228.74a101.3,101.3,0,0,0,20.1,5.65,1.45,1.45,0,0,0,.77-2.8c-6.67-2.06-13.35-3.92-19.87-6.46-2.24-.88-3.25,2.77-1,3.61Z"/><path class="cls-3" d="M16.47,236.92c15.35,6.54,31.69,13.06,48.47,14.3,1.68.13,1.76-2.24.37-2.76-15.53-5.8-31.61-9.59-47-16-2.52-1.06-4.42,3.37-1.88,4.45Z"/><path class="cls-3" d="M27,206.41c12,1.35,24,2.63,36,3.53,1,.08,1.3-1.68.25-1.84-12-1.81-24.12-3.23-36.24-4.6-1.85-.21-1.84,2.7,0,2.91Z"/><path class="cls-3" d="M29.65,195.41l-7.82-.68v4.73a252.24,252.24,0,0,0,25.17-2c8.55-1.14,17.73-2.31,25.75-5.62,1.57-.65,1.58-3.29-.44-3.22-8,.28-16.06,2.1-24,3.21-8.8,1.24-17.66,2.21-26.53,2.88a2.37,2.37,0,0,0,0,4.73l7.82.36c2.86.13,2.79-4.16,0-4.41Z"/><path class="cls-3" d="M48.18,179.56c20.15-6.24,40.37-13.09,59.42-22.22a1.23,1.23,0,0,0-.94-2.23c-19.81,7-39.4,14.48-59.57,20.47-2.55.75-1.45,4.76,1.09,4Z"/><path class="cls-3" d="M117,101.63c11-8.94,23.22-18.79,31.31-30.55,1-1.43-1.1-2.77-2.28-1.76-5.47,4.7-10.22,10.28-15.45,15.25s-10.73,9.72-16.36,14.28c-2,1.59.83,4.37,2.78,2.78Z"/><path class="cls-3" d="M91.2,68.46Q103,61.68,114.69,54.54c7.27-4.48,14.9-8.78,21.39-14.37,1.11-1-.31-2.48-1.48-1.92-7.89,3.8-15.12,9-22.6,13.55s-15.09,9-22.74,13.34c-2.15,1.22-.21,4.55,1.94,3.32Z"/><path class="cls-3" d="M143,40.27l2.67-.09a.57.57,0,0,0,0-1.13L143,39a.66.66,0,0,0,0,1.31Z"/><path class="cls-3" d="M171.85,110.44c8.2-5.38,16.39-10.77,24.5-16.28,1.48-1,.14-3.4-1.42-2.43-8.33,5.15-16.58,10.42-24.83,15.71-1.87,1.21-.12,4.23,1.75,3Z"/><path class="cls-3" d="M181.45,95.57c12.91-5.84,26.59-9.8,39.4-15.8,1.31-.61.29-2.32-.9-2.14-14.12,2.06-27.78,8.32-40.72,14.14-2.58,1.16-.35,5,2.22,3.8Z"/><path class="cls-3" d="M182.35,155.51,213.06,151c10.11-1.5,20.77-2.13,30.41-5.6a1.84,1.84,0,0,0-.49-3.59c-10.17-.44-20.41,2.09-30.44,3.68l-31.58,5c-3.34.53-1.91,5.55,1.39,5.06Z"/><path class="cls-3" d="M207.62,153.92c13.7-4.71,27.45-9.31,41.07-14.26,1.73-.63,1.06-3.32-.77-2.81-13.92,4-27.73,8.26-41.58,12.45-3,.9-1.63,5.61,1.28,4.62Z"/><path class="cls-3" d="M197.56,181.1c14.44-4.86,28.79-10.17,42.75-16.3,6.87-3,13.66-6.23,20.23-9.84,7-3.86,14.8-7.18,21.21-12,1.19-.9.58-3.27-1.12-2.66-6.55,2.38-12.75,6.05-19.09,9-7.11,3.28-14.31,6.44-21.48,9.57-14.45,6.3-28.93,12.36-43.77,17.67-2.87,1-1.67,5.6,1.27,4.61Z"/><path class="cls-3" d="M282.31,149a.05.05,0,1,0,0-.1.05.05,0,0,0,0,.1Z"/><path class="cls-3" d="M262,198.53c13.59-2.88,31.36-10.16,38-23.38a2.26,2.26,0,0,0-3.07-3.08c-5.94,3.39-11.05,8.18-17,11.72a77.57,77.57,0,0,1-19.72,8.42c-4.11,1.1-2.37,7.2,1.74,6.32Z"/><path class="cls-3" d="M281.69,200.63q10.53-5.74,20.83-11.92c6.34-3.82,13.34-7.71,18.65-12.9,1.89-1.84-.5-4.3-2.61-3.39-6.95,3-13.36,7.81-19.78,11.79s-13.15,7.95-19.84,11.72c-3.05,1.73-.33,6.37,2.75,4.7Z"/><path class="cls-3" d="M308.48,170.1c5.57-8.21,11.16-16.39,16.46-24.78.49-.78-.69-1.43-1.21-.71-5.81,8.06-11.33,16.3-16.87,24.55-.68,1,.94,1.94,1.62.94Z"/><path class="cls-3" d="M301.12,144.13c10.48-6.47,20.81-13,30.94-20a2.07,2.07,0,0,0-2.09-3.56c-10.84,5.8-21.36,12-31.88,18.39-3.3,2-.27,7.22,3,5.18Z"/><path class="cls-3" d="M253.57,147.76q12.82-8.67,26.09-16.65c8.8-5.28,18.15-9.94,26.67-15.66,1.2-.8.48-3.07-1.05-2.48-9.37,3.57-18.34,8.89-27,13.89q-13.81,8-27.15,16.69c-2.62,1.71-.14,6,2.46,4.21Z"/><path class="cls-3" d="M249.76,105.62,271.5,93.17c1.11-.63.13-2.28-1-1.7L248.25,103c-1.71.88-.17,3.55,1.51,2.59Z"/><path class="cls-3" d="M189.89,50.45c9.27-4.18,18.73-7.93,28.28-11.38,8.71-3.16,17.8-5.46,26.12-9.6a1.18,1.18,0,0,0-.59-2.18c-9.89.57-19.38,4.1-28.61,7.46a264.86,264.86,0,0,0-27.37,12c-2.51,1.25-.31,4.85,2.17,3.73Z"/><path class="cls-3" d="M175.34,35.55c18.57-7.27,37.79-13.3,56-21.39.89-.4.25-1.78-.65-1.54-19.09,5.1-37.66,13.24-56,20.58-1.43.57-.82,2.92.65,2.35Z"/></g><path class="cls-11" d="M49,84.94c-4.67,4-8.88,8.67-11.42,14.26s-3.3,12.17-1.14,17.92c1.71,4.56,5.07,8.29,8.58,11.66A109,109,0,0,0,73.9,148.71c1.69.8,3.82,1.52,5.29.37a5.13,5.13,0,0,0,1.48-3.27c1.2-6.84,1.82-14.6,7.14-19.06,1.45-1.22,3.18-2.11,4.43-3.52,2.37-2.66,2.58-6.59,2.12-10.12a47.15,47.15,0,0,0-6.91-18.18c-4.8-7.85-11.7-15.09-20.66-17.18S46.91,80.6,45.09,89.62"/><path class="cls-12" d="M88.52,128.75a101.55,101.55,0,0,0-8.46,45.06c.27,6.25,1.5,13.16,6.49,16.94,5.57,4.22,13.78,2.71,19.61-1.15s10.08-9.61,15.11-14.46c8.08-7.78,18.17-13.21,26.53-20.69,14.76-13.21,23.33-32.18,27.71-51.51C177.8,92.79,178.69,81,172,73.07c-6-7.15-16.77-8.88-25.77-6.34s-16.55,8.63-23.31,15.09A177.37,177.37,0,0,0,83,139"/><path class="cls-13" d="M110.82,64.27C98,83,95.06,106.8,95.84,129.47c.32,9.13,2.17,19.82,10.33,23.92,4.8,2.4,10.68,1.74,15.53-.56s8.84-6,12.63-9.82c9-9.08,17.52-19,22.93-30.65s7.56-25.17,3.74-37.42A23.84,23.84,0,0,0,157.05,67c-4.25-5.28-11.23-7.46-17.9-8.64-4.47-.78-9.09-1.23-13.52-.26C114,60.68,106.72,72,100.77,82.39"/><path class="cls-14" d="M205.87,69.24c-14.77,18.14-28.4,38.84-30,62.18a4.42,4.42,0,0,0,.49,2.9A3.77,3.77,0,0,0,179,135.6c4.23.6,8.37-1.42,12-3.69,8.55-5.36,15.91-12.38,23-19.52,9.93-10,20.14-21.73,20.13-35.8,0-5.27-1.79-10.9-6.11-13.92-5-3.46-12.07-2.46-17,1.08s-7.93,9.13-10,14.8"/><path class="cls-15" d="M308.52,131.58a392.64,392.64,0,0,0-4.86,42.58c-.3,5.05-.19,10.88,3.68,14.15,2.6,2.19,6.34,2.6,9.66,1.87s6.33-2.45,9.27-4.15c7.57-4.39,15.61-9.36,18.94-17.45,2-4.82,2-10.18,1.87-15.39-.13-4.56-.54-9.49-3.56-12.92-1.91-2.17-4.64-3.44-7.35-4.47a67.42,67.42,0,0,0-24-4.34,6.45,6.45,0,0,0-3.23.62,2.33,2.33,0,0,0-1.14,2.81"/><path class="cls-16" d="M300,204.32l-19.59,32.93c-6.52,11-13.21,22.41-14.27,35.11s5.34,27,17.55,30.69c11.7,3.52,24.1-3.68,32.22-12.8,18.73-21,22.73-51.08,24.42-79.19.32-5.37.25-11.56-3.86-15-5.06-4.27-12.71-1.66-18.72,1.13-8.25,3.82-16.65,7.74-23.27,14"/><path class="cls-17" d="M201.13,306.64c-3.46,2.11-7,4.29-9.5,7.48s-3.8,7.65-2.19,11.37c1.72,4,6.2,6.08,10.47,7,11.92,2.48,24.14-1.48,35.68-5.4l20.63-7a49,49,0,0,0,10.12-4.32c12.26-7.6,15.3-24,24.25-35.29,2.61-3.31,6-7,5-11.09-.76-3.26-4.19-5.33-7.53-5.6s-6.61.87-9.76,2l-38,13.42c-8.37,3-16.84,6-24.14,11-7.65,5.29-13.66,12.58-19.43,19.87"/><path class="cls-18" d="M73.3,318.73,63.94,332c-1.41,2-2.88,4.27-2.52,6.69.45,3,3.4,4.78,6.07,6.15q21.24,11,43.45,20c6,2.41,12.24,4.76,18.63,4.06a2.08,2.08,0,0,0,2.24-2.8c-.83-6.07-4.23-11.45-7.54-16.61l-11.22-17.45c-2.57-4-5.24-8.11-9.18-10.78-5.23-3.54-11.89-4-18.21-4.38-5.72-.32-12.87.18-15.1,5.46"/><path class="cls-19" d="M90.92,292.27a55.07,55.07,0,0,0-6.15,44.67,11.06,11.06,0,0,0,2.41,4.72c1.6,1.6,3.92,2.17,6.13,2.67,2.9.66,6.13,1.26,8.72-.22a12.29,12.29,0,0,0,3.9-4.46c3.88-6.26,7.83-12.72,9.1-20a57.63,57.63,0,0,0,.6-9.83l.09-18.62a25.49,25.49,0,0,0-.83-8,8.6,8.6,0,0,0-5.27-5.76c-4-1.22-8,1.61-10.92,4.57-5.84,5.88-10.57,13.36-11.2,21.62"/><path class="cls-20" d="M121.34,243.13c-9.36,20.22-11.33,43.31-8.51,65.4,2,15.45,6.81,31.54,18.65,41.65,3.75,3.2,9.22,5.72,13.45,3.19a13.6,13.6,0,0,0,3.63-3.7,138,138,0,0,0,26-65c1.68-13.67,1.05-28.42-6.52-39.94-7.15-10.89-21.19-17.59-33.72-14s-21.15,18.68-15.93,30.62"/><path class="cls-21" d="M336.61,273.91c-2.68,2.44-3.9,6.12-4.31,9.73-.73,6.43.82,12.92,3.15,19,1.11,2.86,2.57,5.85,5.27,7.31,2.95,1.59,6.73.88,9.5-1s4.68-4.77,6.28-7.71c3.3-6,5.63-12.93,4.52-19.71s-6.45-13.18-13.29-13.72a9.05,9.05,0,0,0-4.13.54,9.58,9.58,0,0,0-5.14,6.25,28.4,28.4,0,0,0-.82,8.29Z"/><path class="cls-22" d="M373,271.62c-.85,2.38-3,4-4.93,5.66-13.82,11.68-21,29.48-24.79,47.17-.23,1.06-.41,2.29.29,3.11a3.54,3.54,0,0,0,2.28.94,49.35,49.35,0,0,0,30.94-5.91l3.81,0c2.21-2.88,1.88-6.88,2-10.51.27-10.63,4.9-20.59,8.05-30.74,1.32-4.27,2.19-9.49-.89-12.73-3.6-3.76-10-2.12-14.22,1a28.06,28.06,0,0,0-8.79,10.91"/><path class="cls-23" d="M292.22,339.62c-.22,3.18,1.77,6.2,4.38,8a23.57,23.57,0,0,0,8.89,3.29,100.63,100.63,0,0,0,23.86,2c2.4-.09,5.1-.42,6.53-2.35,1-1.4,1.09-3.28,1.1-5l.06-8.5c0-4.78-.14-10.09-3.48-13.5-3.08-3.14-7.94-3.65-12.33-3.38-6.79.4-13.63,2.29-19.12,6.3s-9.5,10.33-9.81,17.13"/><path class="cls-24" d="M218.08,321.19c7,7.32,17,10.91,26.6,14.27,9.76,3.41,19.7,6.87,30,7.25,13.44.51,26.53-4.21,38.76-9.8,3.74-1.71,7.8-3.89,9.09-7.8,1.48-4.46-1.5-9.41-5.57-11.76s-8.94-2.72-13.63-3l-51-3.44c-7.66-.52-15.71-1-22.61,2.4s-11.88,11.94-8.58,18.86"/><path class="cls-25" d="M157.71,352.28c-1.05,6,2.67,12.07,7.7,15.53s11.16,4.84,17.16,6c4.49.88,10.19,1.19,12.56-2.72,1.75-2.91.6-6.72-1.21-9.58s-4.29-5.39-5.36-8.61a20.93,20.93,0,0,1-.82-5.69c-.23-5.23-.21-10.48,0-15.71a9.81,9.81,0,0,0-.36-4.08,6,6,0,0,0-5.67-3.42,11.75,11.75,0,0,0-6.48,2.45c-5.05,3.57-8.39,9-11.6,14.29-2.64,4.36-5.39,9.16-4.77,14.22"/><path class="cls-26" d="M102.24,187.54c-4.67.46-7.78,5.51-7.78,10.21s2.29,9.05,4.5,13.19c4.54,8.44,9.5,17.35,17.9,22s18.9,4,28.53,2.65c9.38-1.34,19.93-4.12,24.27-12.55,2.21-4.3,2.38-9.41,4.48-13.77,3.5-7.24,11.68-11.18,15.67-18.16a19.27,19.27,0,0,0-4.41-23.72c-3.5-2.85-7.88-4.32-12.16-5.74-12.44-4.14-26.34-8.22-38.26-2.75-3.93,1.8-7.34,4.54-10.71,7.25l-17.45,14c-4.1,3.3-8.63,7.6-7.93,12.82"/><path class="cls-27" d="M186.93,211.61c-6.33,4.67-5.75,14.08-8.18,21.56-1.95,6-6.08,11-8.68,16.78-3.41,7.5-4.1,15.91-4.74,24.13-.37,4.74-.33,10.4,3.58,13.11a12.91,12.91,0,0,0,5.27,1.76,105.8,105.8,0,0,0,59.75-7.28c4.32-1.88,8.93-4.56,10.12-9.12,1.28-4.94-2.05-9.85-5.57-13.56s-7.63-7.44-8.44-12.49c-2-12.27,16.51-21.27,13.61-33.35-1.64-6.82-9.27-10.09-16-12-8.72-2.4-18-4.14-26.74-1.67s-16.47,10.3-16.08,19.34"/><path class="cls-28" d="M259,145.61a36.76,36.76,0,0,0-9.18,19.77,12,12,0,0,0,.66,6.82c.72,1.49,1.94,2.7,2.54,4.23s.5,3.42.85,5.12c1,4.88,6,8.22,10.93,8.69s9.86-1.37,14.28-3.68a66.49,66.49,0,0,0,20.11-16.18,11.7,11.7,0,0,0,1.88-2.81,12.76,12.76,0,0,0,.69-5l0-10.22c0-2.85,0-5.79-1.13-8.39-1.57-3.59-5.08-6-8.73-7.41A27.58,27.58,0,0,0,255.31,155"/><path class="cls-29" d="M148.56,27.92c-5.24,4.67-6.72,12.35-6.24,19.36.3,4.25,1.54,9,5.23,11.1,2.26,1.31,5,1.38,7.55,1.91,6.62,1.4,12.26,6.06,18.94,7.11,7.05,1.11,14-1.93,20.49-4.92a22.82,22.82,0,0,0,6.28-3.77c3.74-3.53,4.65-9,5.36-14.13a11.59,11.59,0,0,0-.07-5.21c-.7-2.14-2.55-3.67-4.32-5.07-10.5-8.33-22-17-35.4-17.49-5.24-.17-10.88,1.21-14.26,5.2-5,5.87-3.51,15.24-8.28,21.28"/></g></g></g></svg>