<svg xmlns="http://www.w3.org/2000/svg" xmlns:xlink="http://www.w3.org/1999/xlink" viewBox="0 0 460.65 401.5"><defs><style>.cls-1{fill:url(#linear-gradient);}.cls-2{fill:url(#linear-gradient-2);}.cls-12,.cls-3,.cls-4,.cls-6{fill:none;}.cls-3,.cls-4{stroke:#fff;stroke-linecap:round;stroke-linejoin:round;stroke-width:1.25px;}.cls-4{stroke-dasharray:0 3.71;}.cls-5,.cls-7{opacity:0.45;}.cls-5{fill:url(#linear-gradient-3);}.cls-6,.cls-8,.cls-9{stroke:#e6e6e6;stroke-width:1.5px;}.cls-12,.cls-6,.cls-8,.cls-9{stroke-miterlimit:10;}.cls-7{fill:url(#linear-gradient-4);}.cls-8,.cls-9{fill-opacity:0.45;}.cls-8{fill:url(#linear-gradient-5);}.cls-9{fill:url(#linear-gradient-6);}.cls-10{opacity:0.5;}.cls-11{fill:url(#linear-gradient-7);}.cls-12{stroke-width:1.34px;stroke:url(#linear-gradient-8);}.cls-13{fill:url(#linear-gradient-9);}.cls-14{fill:url(#linear-gradient-10);}.cls-15{fill:url(#linear-gradient-11);}.cls-16{fill:url(#linear-gradient-12);}.cls-17{fill:url(#linear-gradient-13);}.cls-18{fill:url(#linear-gradient-14);}.cls-19{fill:url(#linear-gradient-15);}.cls-20{fill:url(#linear-gradient-16);}.cls-21{fill:url(#linear-gradient-17);}.cls-22{fill:url(#linear-gradient-18);}.cls-23{fill:url(#linear-gradient-19);}.cls-24{fill:url(#linear-gradient-20);}.cls-25{fill:url(#linear-gradient-21);}.cls-26{fill:url(#linear-gradient-22);}.cls-27{fill:url(#linear-gradient-23);}.cls-28{fill:url(#linear-gradient-24);}.cls-29{fill:url(#linear-gradient-25);}.cls-30{fill:url(#linear-gradient-26);}</style><linearGradient id="linear-gradient" x1="205.39" y1="260.94" x2="368.54" y2="260.94" gradientUnits="userSpaceOnUse"><stop offset="0" stop-color="#a08049"/><stop offset="0.27" stop-color="#b89a65"/><stop offset="0.63" stop-color="#d5c06c"/><stop offset="1" stop-color="#fdf1c4"/></linearGradient><linearGradient id="linear-gradient-2" x1="286.97" y1="181.58" x2="286.97" y2="138.11" xlink:href="#linear-gradient"/><linearGradient id="linear-gradient-3" x1="277.21" y1="92.84" x2="296.72" y2="169.08" gradientUnits="userSpaceOnUse"><stop offset="0" stop-color="#fff" stop-opacity="0.9"/><stop offset="1" stop-color="#ccc" stop-opacity="0.9"/></linearGradient><linearGradient id="linear-gradient-4" x1="430.78" y1="132.48" x2="433.75" y2="144.08" xlink:href="#linear-gradient-3"/><linearGradient id="linear-gradient-5" x1="237.83" y1="184.49" x2="374.08" y2="184.49" xlink:href="#linear-gradient-3"/><linearGradient id="linear-gradient-6" x1="38.9" y1="-13.34" x2="271.11" y2="411.49" xlink:href="#linear-gradient-3"/><linearGradient id="linear-gradient-7" x1="116.01" y1="231.64" x2="139.42" y2="231.64" gradientUnits="userSpaceOnUse"><stop offset="0" stop-color="#a08049" stop-opacity="0.8"/><stop offset="0.27" stop-color="#b89a65" stop-opacity="0.8"/><stop offset="0.63" stop-color="#d5c06c" stop-opacity="0.6"/><stop offset="1" stop-color="#fdf1c4" stop-opacity="0.7"/></linearGradient><linearGradient id="linear-gradient-8" x1="136.58" y1="98.4" x2="142.54" y2="98.4" xlink:href="#linear-gradient-7"/><linearGradient id="linear-gradient-9" x1="133.93" y1="180.82" x2="145.62" y2="180.82" xlink:href="#linear-gradient-7"/><linearGradient id="linear-gradient-10" x1="111.64" y1="250.03" x2="123.25" y2="250.03" xlink:href="#linear-gradient-7"/><linearGradient id="linear-gradient-11" x1="121.01" y1="327.81" x2="130.91" y2="327.81" xlink:href="#linear-gradient-7"/><linearGradient id="linear-gradient-12" x1="128.47" y1="299.36" x2="207.94" y2="299.36" xlink:href="#linear-gradient-7"/><linearGradient id="linear-gradient-13" x1="36.79" y1="202.44" x2="116.51" y2="202.44" xlink:href="#linear-gradient-7"/><linearGradient id="linear-gradient-14" x1="143.1" y1="146.17" x2="219.79" y2="146.17" xlink:href="#linear-gradient-7"/><linearGradient id="linear-gradient-15" x1="140.78" y1="65.58" x2="158.88" y2="65.58" xlink:href="#linear-gradient-7"/><linearGradient id="linear-gradient-16" x1="50.27" y1="64.93" x2="132.99" y2="64.93" xlink:href="#linear-gradient-7"/><linearGradient id="linear-gradient-17" x1="73.57" y1="228.44" x2="88.44" y2="228.44" xlink:href="#linear-gradient-7"/><linearGradient id="linear-gradient-18" x1="82.85" y1="160.11" x2="90.26" y2="160.11" xlink:href="#linear-gradient-7"/><linearGradient id="linear-gradient-19" x1="79.84" y1="364.34" x2="95.92" y2="364.34" xlink:href="#linear-gradient-7"/><linearGradient id="linear-gradient-20" x1="93.74" y1="302.58" x2="108.55" y2="302.58" xlink:href="#linear-gradient-7"/><linearGradient id="linear-gradient-21" x1="83.85" y1="279.17" x2="99.63" y2="279.17" xlink:href="#linear-gradient-7"/><linearGradient id="linear-gradient-22" x1="27.17" y1="319.17" x2="86.09" y2="319.17" xlink:href="#linear-gradient-7"/><linearGradient id="linear-gradient-23" x1="13.3" y1="172.99" x2="76.42" y2="172.99" xlink:href="#linear-gradient-7"/><linearGradient id="linear-gradient-24" x1="104.81" y1="227.6" x2="233.66" y2="227.6" xlink:href="#linear-gradient-7"/><linearGradient id="linear-gradient-25" x1="92.93" y1="113.95" x2="204.8" y2="113.95" xlink:href="#linear-gradient-7"/><linearGradient id="linear-gradient-26" x1="56.93" y1="116.78" x2="86.09" y2="116.78" xlink:href="#linear-gradient-7"/></defs><title>perfect-mug-separate</title><g id="Layer_2" data-name="Layer 2"><g id="Leaf_Glass_Perfect_Mug" data-name="Leaf Glass Perfect Mug"><g id="Leaf_Glass_Perfect_Mug_-_Separate" data-name="Leaf Glass Perfect Mug - Separate"><g id="Steeper"><path class="cls-1" d="M205.39,165.72H368.54a0,0,0,0,1,0,0v162a28.41,28.41,0,0,1-28.41,28.41H233.81a28.41,28.41,0,0,1-28.41-28.41v-162A0,0,0,0,1,205.39,165.72Z"/><path class="cls-2" d="M178.39,141H395.55a0,0,0,0,1,0,0v.63a35.16,35.16,0,0,1-35.16,35.16H213.55a35.16,35.16,0,0,1-35.16-35.16V141a0,0,0,0,1,0,0Z"/><line class="cls-3" x1="205.39" y1="194.08" x2="205.39" y2="194.08"/><line class="cls-4" x1="209.1" y1="194.08" x2="366.69" y2="194.08"/><line class="cls-3" x1="368.54" y1="194.08" x2="368.54" y2="194.08"/><line class="cls-3" x1="205.39" y1="198.61" x2="205.39" y2="198.61"/><line class="cls-4" x1="209.1" y1="198.61" x2="366.69" y2="198.61"/><line class="cls-3" x1="368.54" y1="198.61" x2="368.54" y2="198.61"/><line class="cls-3" x1="205.39" y1="203.15" x2="205.39" y2="203.15"/><line class="cls-4" x1="209.1" y1="203.15" x2="366.69" y2="203.15"/><line class="cls-3" x1="368.54" y1="203.15" x2="368.54" y2="203.15"/><line class="cls-3" x1="205.39" y1="207.68" x2="205.39" y2="207.68"/><line class="cls-4" x1="209.1" y1="207.68" x2="366.69" y2="207.68"/><line class="cls-3" x1="368.54" y1="207.68" x2="368.54" y2="207.68"/><line class="cls-3" x1="205.39" y1="212.21" x2="205.39" y2="212.21"/><line class="cls-4" x1="209.1" y1="212.21" x2="366.69" y2="212.21"/><line class="cls-3" x1="368.54" y1="212.21" x2="368.54" y2="212.21"/><line class="cls-3" x1="205.39" y1="216.74" x2="205.39" y2="216.74"/><line class="cls-4" x1="209.1" y1="216.74" x2="366.69" y2="216.74"/><line class="cls-3" x1="368.54" y1="216.74" x2="368.54" y2="216.74"/><line class="cls-3" x1="205.39" y1="221.27" x2="205.39" y2="221.27"/><line class="cls-4" x1="209.1" y1="221.27" x2="366.69" y2="221.27"/><line class="cls-3" x1="368.54" y1="221.27" x2="368.54" y2="221.27"/><line class="cls-3" x1="205.39" y1="225.81" x2="205.39" y2="225.81"/><line class="cls-4" x1="209.1" y1="225.81" x2="366.69" y2="225.81"/><line class="cls-3" x1="368.54" y1="225.81" x2="368.54" y2="225.81"/><line class="cls-3" x1="205.39" y1="230.34" x2="205.39" y2="230.34"/><line class="cls-4" x1="209.1" y1="230.34" x2="366.69" y2="230.34"/><line class="cls-3" x1="368.54" y1="230.34" x2="368.54" y2="230.34"/><line class="cls-3" x1="205.39" y1="234.87" x2="205.39" y2="234.87"/><line class="cls-4" x1="209.1" y1="234.87" x2="366.69" y2="234.87"/><line class="cls-3" x1="368.54" y1="234.87" x2="368.54" y2="234.87"/><line class="cls-3" x1="205.39" y1="239.4" x2="205.39" y2="239.4"/><line class="cls-4" x1="209.1" y1="239.4" x2="366.69" y2="239.4"/><line class="cls-3" x1="368.54" y1="239.4" x2="368.54" y2="239.4"/><line class="cls-3" x1="205.39" y1="243.93" x2="205.39" y2="243.93"/><line class="cls-4" x1="209.1" y1="243.93" x2="366.69" y2="243.93"/><line class="cls-3" x1="368.54" y1="243.93" x2="368.54" y2="243.93"/><line class="cls-3" x1="205.39" y1="248.46" x2="205.39" y2="248.46"/><line class="cls-4" x1="209.1" y1="248.46" x2="366.69" y2="248.46"/><line class="cls-3" x1="368.54" y1="248.46" x2="368.54" y2="248.46"/><line class="cls-3" x1="205.39" y1="253" x2="205.39" y2="253"/><line class="cls-4" x1="209.1" y1="253" x2="366.69" y2="253"/><line class="cls-3" x1="368.54" y1="253" x2="368.54" y2="253"/><line class="cls-3" x1="205.39" y1="257.53" x2="205.39" y2="257.53"/><line class="cls-4" x1="209.1" y1="257.53" x2="366.69" y2="257.53"/><line class="cls-3" x1="368.54" y1="257.53" x2="368.54" y2="257.53"/><line class="cls-3" x1="205.39" y1="262.06" x2="205.39" y2="262.06"/><line class="cls-4" x1="209.1" y1="262.06" x2="366.69" y2="262.06"/><line class="cls-3" x1="368.54" y1="262.06" x2="368.54" y2="262.06"/><line class="cls-3" x1="205.39" y1="266.59" x2="205.39" y2="266.59"/><line class="cls-4" x1="209.1" y1="266.59" x2="366.69" y2="266.59"/><line class="cls-3" x1="368.54" y1="266.59" x2="368.54" y2="266.59"/><line class="cls-3" x1="205.39" y1="271.12" x2="205.39" y2="271.12"/><line class="cls-4" x1="209.1" y1="271.12" x2="366.69" y2="271.12"/><line class="cls-3" x1="368.54" y1="271.12" x2="368.54" y2="271.12"/><line class="cls-3" x1="205.39" y1="275.66" x2="205.39" y2="275.66"/><line class="cls-4" x1="209.1" y1="275.66" x2="366.69" y2="275.66"/><line class="cls-3" x1="368.54" y1="275.66" x2="368.54" y2="275.66"/><line class="cls-3" x1="205.39" y1="280.19" x2="205.39" y2="280.19"/><line class="cls-4" x1="209.1" y1="280.19" x2="366.69" y2="280.19"/><line class="cls-3" x1="368.54" y1="280.19" x2="368.54" y2="280.19"/><line class="cls-3" x1="205.39" y1="284.72" x2="205.39" y2="284.72"/><line class="cls-4" x1="209.1" y1="284.72" x2="366.69" y2="284.72"/><line class="cls-3" x1="368.54" y1="284.72" x2="368.54" y2="284.72"/><line class="cls-3" x1="205.39" y1="289.25" x2="205.39" y2="289.25"/><line class="cls-4" x1="209.1" y1="289.25" x2="366.69" y2="289.25"/><line class="cls-3" x1="368.54" y1="289.25" x2="368.54" y2="289.25"/><line class="cls-3" x1="205.39" y1="293.78" x2="205.39" y2="293.78"/><line class="cls-4" x1="209.1" y1="293.78" x2="366.69" y2="293.78"/><line class="cls-3" x1="368.54" y1="293.78" x2="368.54" y2="293.78"/><line class="cls-3" x1="205.39" y1="298.32" x2="205.39" y2="298.32"/><line class="cls-4" x1="209.1" y1="298.32" x2="366.69" y2="298.32"/><line class="cls-3" x1="368.54" y1="298.32" x2="368.54" y2="298.32"/><line class="cls-3" x1="205.39" y1="302.85" x2="205.39" y2="302.85"/><line class="cls-4" x1="209.1" y1="302.85" x2="366.69" y2="302.85"/><line class="cls-3" x1="368.54" y1="302.85" x2="368.54" y2="302.85"/><line class="cls-3" x1="205.39" y1="307.38" x2="205.39" y2="307.38"/><line class="cls-4" x1="209.1" y1="307.38" x2="366.69" y2="307.38"/><line class="cls-3" x1="368.54" y1="307.38" x2="368.54" y2="307.38"/><line class="cls-3" x1="205.39" y1="311.91" x2="205.39" y2="311.91"/><line class="cls-4" x1="209.1" y1="311.91" x2="366.69" y2="311.91"/><line class="cls-3" x1="368.54" y1="311.91" x2="368.54" y2="311.91"/><line class="cls-3" x1="205.39" y1="316.44" x2="205.39" y2="316.44"/><line class="cls-4" x1="209.1" y1="316.44" x2="366.69" y2="316.44"/><line class="cls-3" x1="368.54" y1="316.44" x2="368.54" y2="316.44"/><line class="cls-3" x1="205.39" y1="320.98" x2="205.39" y2="320.98"/><line class="cls-4" x1="209.1" y1="320.98" x2="366.69" y2="320.98"/><line class="cls-3" x1="368.54" y1="320.98" x2="368.54" y2="320.98"/><line class="cls-3" x1="205.39" y1="325.51" x2="205.39" y2="325.51"/><line class="cls-4" x1="209.1" y1="325.51" x2="366.69" y2="325.51"/><line class="cls-3" x1="368.54" y1="325.51" x2="368.54" y2="325.51"/><line class="cls-3" x1="205.39" y1="330.04" x2="205.39" y2="330.04"/><line class="cls-4" x1="209.1" y1="330.04" x2="366.69" y2="330.04"/><line class="cls-3" x1="368.54" y1="330.04" x2="368.54" y2="330.04"/><line class="cls-3" x1="205.39" y1="334.57" x2="205.39" y2="334.57"/><line class="cls-4" x1="209.1" y1="334.57" x2="366.69" y2="334.57"/><line class="cls-3" x1="368.54" y1="334.57" x2="368.54" y2="334.57"/></g><path class="cls-5" d="M414.77,130.55v.82a9.64,9.64,0,0,1-9.65,9.65H168.82a9.66,9.66,0,0,1-9.66-9.65v-.82a9.66,9.66,0,0,1,9.66-9.65h236.3A9.65,9.65,0,0,1,414.77,130.55Z"/><path class="cls-6" d="M414.77,130.55v.82a9.64,9.64,0,0,1-9.65,9.65H168.82a9.66,9.66,0,0,1-9.66-9.65v-.82a9.66,9.66,0,0,1,9.66-9.65h236.3A9.65,9.65,0,0,1,414.77,130.55Z"/><path class="cls-7" d="M459.9,137.86a3.14,3.14,0,0,1-3.16,3.16H405.12a9.66,9.66,0,0,0,9.06-6.32h42.56A3.15,3.15,0,0,1,459.9,137.86Z"/><path class="cls-6" d="M459.9,137.86a3.14,3.14,0,0,1-3.16,3.16H405.12a9.66,9.66,0,0,0,9.06-6.32h42.56A3.15,3.15,0,0,1,459.9,137.86Z"/><g id="Leaf_Glass_Perfect_Mug-2" data-name="Leaf Glass Perfect Mug"><path class="cls-8" d="M260.62,58.68s64.09,4,86,27.75,33.56,45.64,24.17,111.41-76.22,113.88-133,112.42l1.88-20.77s52.79-2.61,76-25.43,43.85-51.45,45.19-94-4.57-99-102.06-92.25Z"/><path class="cls-9" d="M192.37,400.75H73.61A40.8,40.8,0,0,1,33,363.64L.78,8.22A6.85,6.85,0,0,1,7.6.75H258.37a6.86,6.86,0,0,1,6.83,7.47L233,363.64A40.79,40.79,0,0,1,192.37,400.75Z"/><g id="Leaves_2" data-name="Leaves 2" class="cls-10"><path class="cls-11" d="M116.06,362.83c1.71-10.86,3.2-21.85,3.88-32.78.13-2.72.22-5.46.15-8.15l-.11-4.16c0-1.41,0-2.81,0-4.21,0-5.61.46-11.15.8-16.7s.76-11.07,1-16.6c.11-2.77.16-5.53.12-8.29a51.48,51.48,0,0,0-.59-8.12l-.22-1a9.4,9.4,0,0,1-.2-1.14c-.1-.74-.12-1.46-.15-2.18,0-1.43,0-2.84.12-4.25.16-2.81.46-5.59.8-8.36s.78-5.52,1.21-8.27.93-5.49,1.46-8.21c3.83-21.85,11.53-43.27,10.57-65.22q0-4.11-.21-8.23c-.14-2.82-.13-5.65-.06-8.44.14-5.6.56-11.15,1-16.68s.81-11.05.87-16.53c0-1.36,0-2.73-.14-4.06a9.62,9.62,0,0,0-.85-3.69c-.62-1.22-1.28-2.42-2-3.58-.35-.58-.72-1.15-1.11-1.69a13,13,0,0,0-1.21-1.49l.85-1a12.74,12.74,0,0,1,1.52,1.65c.45.56.86,1.14,1.26,1.72.81,1.17,1.53,2.38,2.22,3.6a8.57,8.57,0,0,1,.51,1c.12.37.26.74.34,1.1a18.47,18.47,0,0,1,.41,2.15c.19,1.42.28,2.83.35,4.24.22,5.62,0,11.18-.23,16.73s-.42,11.07-.47,16.57c0,2.75,0,5.47.23,8.19s.32,5.59.38,8.4.05,5.63-.13,8.44a69.07,69.07,0,0,1-1.17,8.37c-1.11,5.51-2.06,11-3.33,16.43-2.42,10.83-4.59,21.69-6.72,32.55-1,5.44-2.09,10.87-2.95,16.31-.45,2.72-.85,5.45-1.12,8.17-.14,1.36-.22,2.72-.26,4.06,0,.67,0,1.33.07,2a8.54,8.54,0,0,0,.12.92c0,.29.14.71.2,1.06.81,5.72.47,11.24.47,16.82s-.21,11.11-.25,16.65,0,11.08.07,16.57c0,1.38.08,2.75.16,4.11l.25,4.16c.14,2.84.07,5.66,0,8.47-.24,5.62-.76,11.19-1.48,16.73s-1.58,11-2.66,16.54Z"/><path class="cls-12" d="M141.94,86.32s-4.1,8.28-4.18,15.44-.53,8.85-.53,8.85"/><path class="cls-13" d="M145.47,175.79c-1.86,1.72-3.76,3.44-5.51,5.25a28.24,28.24,0,0,0-4.57,5.89l-1.23-.54a16.94,16.94,0,0,1,1.94-3.55,27.7,27.7,0,0,1,2.53-3.07,36.66,36.66,0,0,1,2.86-2.72,31,31,0,0,1,3.18-2.34Z"/><path class="cls-14" d="M112.78,244c1.06.78,2.08,1.54,3.11,2.33L119,248.8a12.11,12.11,0,0,1,2.82,2.93,6.36,6.36,0,0,1,.89,2,11.57,11.57,0,0,1,.13,1.15,5.43,5.43,0,0,1-.25,1.16l-1.34,0c-.59-1-1.14-1.81-1.73-2.81s-1.23-2-2-3a17.73,17.73,0,0,0-2.53-2.74,24.18,24.18,0,0,0-3-2.31Z"/><path class="cls-15" d="M130.91,322.3a21,21,0,0,1-2.09,3.25,17.81,17.81,0,0,1-2.69,2.8c-.53.44-1,.75-1.4,1.16a7.32,7.32,0,0,0-1.13,1.3,7,7,0,0,0-1.25,3.1l-1.34-.08a8.28,8.28,0,0,1,1.48-3.78,8.68,8.68,0,0,1,1.31-1.52c.48-.47,1-.86,1.48-1.21a17.4,17.4,0,0,0,2.48-2.59,20.34,20.34,0,0,0,1.94-3Z"/><path class="cls-16" d="M128.48,324.89s-.64-16.31,7.86-24.14,19.24-20.13,30.65-24.61,27.52-2,34.45,3.58,6.49,8.5,6.49,8.5-8.05.45-11.18,6.49-30.88,22.59-40.27,22.82S134.94,317.38,128.48,324.89Z"/><path class="cls-17" d="M36.79,157.13s15.66-.23,25.28,0,37.36,23,42.73,36,10.07,31.1,10.74,41.84,1,12.87,1,12.87A50,50,0,0,1,95.4,232.46c-8.94-11.35-23.49-14.93-30.87-27.91s-13.42-26.84-19-33.33A58.56,58.56,0,0,1,36.79,157.13Z"/><path class="cls-18" d="M143.1,176.83s5.1-20.15,11.81-29.77,17.9-23,29.53-27.29,30-1.35,35.35-4.25c-2.91,13-12.31,36-17.45,41.51s-11.63,14.64-23.94,16.2S152.77,173.27,143.1,176.83Z"/><path class="cls-19" d="M140.78,89s0-14.39,1.16-20.77,11.35-19,13.7-22.48L158,42.19s2,16.11,0,20.3-7.89,14.6-11.08,18.8S140.78,89,140.78,89Z"/><path class="cls-20" d="M50.27,27.26s25.84,1.85,34.56,3.36,8.06,8.55,11.41,11.57S116,53.43,121.58,64.68,132,87.82,133,102.59c-11.08-3.85-23.49-24.32-28.69-28.52S84.67,56.79,75.44,52.93,64.36,38,60,34.81,50.27,27.26,50.27,27.26Z"/></g><g id="Leaves"><path class="cls-21" d="M74.75,220.55A27.92,27.92,0,0,1,79,223.37a33.34,33.34,0,0,1,3.78,3.46A31.65,31.65,0,0,1,86,230.89a11.21,11.21,0,0,1,1.17,2.35,8.15,8.15,0,0,1,.54,2.6l-1.25.49a28.93,28.93,0,0,1-2.88-3.87,41.06,41.06,0,0,0-2.83-3.83c-1-1.22-2.12-2.42-3.25-3.58s-2.32-2.3-3.51-3.38Z"/><path class="cls-22" d="M84.62,146.37A58,58,0,0,1,86.93,153q.94,3.39,1.65,6.82c.43,2.3.81,4.61,1.08,6.93.15,1.16.25,2.33.37,3.49a8.54,8.54,0,0,1-.33,3.53l-1.34.06a9,9,0,0,1-.78-3.39c-.1-1.14-.17-2.28-.31-3.42-.22-2.27-.56-4.54-.93-6.79s-.78-4.52-1.28-6.75-1-4.48-1.69-6.64Z"/><path class="cls-23" d="M81.25,352.89l4.09,5.21c1.33,1.77,2.68,3.51,3.94,5.42s2.4,3.69,3.45,5.62a40.18,40.18,0,0,1,2.75,6l-1.16.66a39.44,39.44,0,0,1-3.65-5.53c-1.08-1.9-2-3.93-2.94-5.89a32.62,32.62,0,0,0-3.39-5.52,57.6,57.6,0,0,0-4.12-5.09Z"/><path class="cls-24" d="M107.94,290.73a33.83,33.83,0,0,0-4.63,5.29,10.56,10.56,0,0,0-.93,1.49c-.26.53-.49,1.07-.71,1.61-.44,1.06-1,2-1.48,2.93-.21.45-.4,1-.59,1.55L99,305.25l-1,3.36-2.07,6.81-1.32-.24a66.12,66.12,0,0,1,.93-7.16c.22-1.19.47-2.37.76-3.55a26.78,26.78,0,0,1,1.08-3.58,10,10,0,0,1,2-3.32c.43-.46.9-.88,1.35-1.31s.86-.88,1.27-1.32c1.65-1.79,3.35-3.47,5.06-5.19Z"/><path class="cls-25" d="M96.75,400.85c-1.3-.13-1.56-.43-1.57-.75l-.14-1-.26-1.91-.48-3.82c-.26-2.55-.52-5.11-.7-7.67-.38-5.11-.54-10.25-.6-15.38s0-10.27.24-15.41.53-10.17.62-15.27c.2-10.16-.11-20.34-.7-30.47-.3-5.06-.69-10.12-1.22-15.15s-1.1-10.05-1.91-15l-1.34-7.5c-.24-1.27-.43-2.55-.61-3.82s-.39-2.55-.54-3.83c-.68-5.1-1.16-10.21-1.61-15.31-.79-10.22-1.32-20.44-1.46-30.68a268.11,268.11,0,0,1,1-30.75A106.81,106.81,0,0,1,88.4,172a75.28,75.28,0,0,1,5.4-14.49l1.19.61a64.16,64.16,0,0,0-2.6,7.08c-.75,2.4-1.42,4.84-2,7.31a104.6,104.6,0,0,0-2.25,14.94,265.35,265.35,0,0,0-.11,30.38c.44,10.15,1.08,20.3,2.05,30.41.5,5,1,10.09,1.75,15.09.15,1.26.37,2.5.56,3.74s.39,2.49.64,3.72c.45,2.43.94,5,1.37,7.56a225.19,225.19,0,0,1,2.5,30.72c.26,10.25.06,20.49-.3,30.71-.09,2.56-.2,5.11-.33,7.67s-.3,5.11-.38,7.62a147.87,147.87,0,0,0,.37,15.18c.34,5.06.88,10.1,1.43,15.14.29,2.51.54,5,.86,7.55l.44,3.77.23,1.88.12.94c.08.31-.08.64-1.3,1.14Z"/><path class="cls-26" d="M27.17,278.15s16.33,12.09,23,20.81S75.49,328.71,78,332.52s8.14,27.67,8.14,27.67-16.33-11.34-29.46-16.93-26.33-28.63-27-40.49S27.17,278.15,27.17,278.15Z"/><path class="cls-27" d="M13.3,123.35s18.12,17,25.06,25.05,27.29,32.89,31.09,44.07,7,30.17,7,30.17-31.58-4.22-43.66-21.89S16.88,170.1,16.21,156.68,13.3,123.35,13.3,123.35Z"/><path class="cls-28" d="M105.05,292.71s-1.15-25.07,1.54-34.47,13-34.67,28.86-48.09S157.6,187.1,171,181.29s28.63-10.52,40.94-11.86a59.52,59.52,0,0,0,21.7-6.94s-3.36,14.32-11.41,19.92-16.33,23.26-23.49,32.88-35.12,38-47.43,47.2-26,22.82-39.37,26Z"/><path class="cls-29" d="M92.93,161.15s.91-21.25,11-37.8,18.35-27.75,32.89-35.8S175.05,74.8,186.46,73s18.34-6.26,18.34-6.26S178.4,94,162.07,105.45s-43.18,30-53,40.27A203.65,203.65,0,0,1,92.93,161.15Z"/><path class="cls-30" d="M56.93,79.94S63.19,92.7,67.66,96.28s14.32,15,15,22.14,3.44,35.19,3.44,35.19-6.35-17.07-13.5-28.48S59.61,98.74,56.93,79.94Z"/></g></g></g></g></g></svg>