<svg xmlns="http://www.w3.org/2000/svg" xmlns:xlink="http://www.w3.org/1999/xlink" viewBox="0 0 360.87 401.5"><defs><style>.cls-1{fill:url(#linear-gradient);}.cls-2{fill:url(#linear-gradient-2);}.cls-3,.cls-4,.cls-9{fill:none;stroke-width:1.28px;}.cls-3,.cls-4{stroke:#fff;stroke-linecap:round;stroke-linejoin:round;}.cls-4{stroke-dasharray:0 3.78;}.cls-28,.cls-29,.cls-5,.cls-6{fill-opacity:0.45;stroke:#e6e6e6;stroke-width:1.5px;}.cls-28,.cls-29,.cls-5,.cls-6,.cls-9{stroke-miterlimit:10;}.cls-5{fill:url(#linear-gradient-3);}.cls-6{fill:url(#linear-gradient-4);}.cls-7{opacity:0.34;}.cls-8{fill:url(#linear-gradient-5);}.cls-9{stroke:url(#linear-gradient-6);}.cls-10{fill:url(#linear-gradient-7);}.cls-11{fill:url(#linear-gradient-8);}.cls-12{fill:url(#linear-gradient-9);}.cls-13{fill:url(#linear-gradient-10);}.cls-14{fill:url(#linear-gradient-11);}.cls-15{fill:url(#linear-gradient-12);}.cls-16{fill:url(#linear-gradient-13);}.cls-17{fill:url(#linear-gradient-14);}.cls-18{fill:url(#linear-gradient-15);}.cls-19{fill:url(#linear-gradient-16);}.cls-20{fill:url(#linear-gradient-17);}.cls-21{fill:url(#linear-gradient-18);}.cls-22{fill:url(#linear-gradient-19);}.cls-23{fill:url(#linear-gradient-20);}.cls-24{fill:url(#linear-gradient-21);}.cls-25{fill:url(#linear-gradient-22);}.cls-26{fill:url(#linear-gradient-23);}.cls-27{fill:url(#linear-gradient-24);}.cls-28{fill:url(#linear-gradient-25);}.cls-29{fill:url(#linear-gradient-26);}</style><linearGradient id="linear-gradient" x1="47.9" y1="143.58" x2="214.3" y2="143.58" gradientUnits="userSpaceOnUse"><stop offset="0" stop-color="#a08049"/><stop offset="0.27" stop-color="#b89a65"/><stop offset="0.63" stop-color="#d5c06c"/><stop offset="1" stop-color="#fdf1c4"/></linearGradient><linearGradient id="linear-gradient-2" x1="131.1" y1="62.64" x2="131.1" y2="18.31" xlink:href="#linear-gradient"/><linearGradient id="linear-gradient-3" x1="230.7" y1="195.31" x2="360.12" y2="195.31" gradientUnits="userSpaceOnUse"><stop offset="0" stop-color="#fff" stop-opacity="0.9"/><stop offset="1" stop-color="#ccc" stop-opacity="0.9"/></linearGradient><linearGradient id="linear-gradient-4" x1="107.75" y1="45.93" x2="180.86" y2="331.55" gradientUnits="userSpaceOnUse"><stop offset="0" stop-color="#fff" stop-opacity="0.5"/><stop offset="0.29" stop-color="#ededed" stop-opacity="0.64"/><stop offset="0.73" stop-color="#d5d5d5" stop-opacity="0.83"/><stop offset="1" stop-color="#ccc" stop-opacity="0.9"/></linearGradient><linearGradient id="linear-gradient-5" x1="114.97" y1="240.11" x2="137.21" y2="240.11" gradientUnits="userSpaceOnUse"><stop offset="0" stop-color="#a08049" stop-opacity="0.8"/><stop offset="0.27" stop-color="#b89a65" stop-opacity="0.8"/><stop offset="0.63" stop-color="#d5c06c" stop-opacity="0.6"/><stop offset="1" stop-color="#fdf1c4" stop-opacity="0.7"/></linearGradient><linearGradient id="linear-gradient-6" x1="134.52" y1="113.54" x2="140.18" y2="113.54" xlink:href="#linear-gradient-5"/><linearGradient id="linear-gradient-7" x1="132" y1="191.83" x2="143.1" y2="191.83" xlink:href="#linear-gradient-5"/><linearGradient id="linear-gradient-8" x1="110.82" y1="257.58" x2="121.85" y2="257.58" xlink:href="#linear-gradient-5"/><linearGradient id="linear-gradient-9" x1="119.72" y1="331.46" x2="129.13" y2="331.46" xlink:href="#linear-gradient-5"/><linearGradient id="linear-gradient-10" x1="126.81" y1="304.43" x2="202.31" y2="304.43" xlink:href="#linear-gradient-5"/><linearGradient id="linear-gradient-11" x1="39.72" y1="212.36" x2="115.45" y2="212.36" xlink:href="#linear-gradient-5"/><linearGradient id="linear-gradient-12" x1="140.71" y1="158.92" x2="213.56" y2="158.92" xlink:href="#linear-gradient-5"/><linearGradient id="linear-gradient-13" x1="138.51" y1="82.36" x2="155.7" y2="82.36" xlink:href="#linear-gradient-5"/><linearGradient id="linear-gradient-14" x1="52.53" y1="81.74" x2="131.1" y2="81.74" xlink:href="#linear-gradient-5"/><linearGradient id="linear-gradient-15" x1="74.67" y1="237.06" x2="88.79" y2="237.06" xlink:href="#linear-gradient-5"/><linearGradient id="linear-gradient-16" x1="83.47" y1="172.15" x2="90.52" y2="172.15" xlink:href="#linear-gradient-5"/><linearGradient id="linear-gradient-17" x1="80.62" y1="366.16" x2="95.89" y2="366.16" xlink:href="#linear-gradient-5"/><linearGradient id="linear-gradient-18" x1="93.82" y1="307.5" x2="107.89" y2="307.5" xlink:href="#linear-gradient-5"/><linearGradient id="linear-gradient-19" x1="84.43" y1="285.26" x2="99.42" y2="285.26" xlink:href="#linear-gradient-5"/><linearGradient id="linear-gradient-20" x1="30.58" y1="323.26" x2="86.55" y2="323.26" xlink:href="#linear-gradient-5"/><linearGradient id="linear-gradient-21" x1="17.41" y1="184.39" x2="77.36" y2="184.39" xlink:href="#linear-gradient-5"/><linearGradient id="linear-gradient-22" x1="104.34" y1="236.27" x2="226.74" y2="236.27" xlink:href="#linear-gradient-5"/><linearGradient id="linear-gradient-23" x1="93.05" y1="128.3" x2="199.32" y2="128.3" xlink:href="#linear-gradient-5"/><linearGradient id="linear-gradient-24" x1="58.85" y1="130.99" x2="86.55" y2="130.99" xlink:href="#linear-gradient-5"/><linearGradient id="linear-gradient-25" x1="121.15" y1="-27.86" x2="141.05" y2="49.89" xlink:href="#linear-gradient-3"/><linearGradient id="linear-gradient-26" x1="277.78" y1="12.56" x2="280.81" y2="24.4" xlink:href="#linear-gradient-3"/></defs><title>perfect-mug</title><g id="Layer_2" data-name="Layer 2"><g id="Leaf_Glass_Perfect_Mug" data-name="Leaf Glass Perfect Mug"><g id="Leaf_Glass_Perfect_Mug_-_Complete" data-name="Leaf Glass Perfect Mug - Complete"><g id="Steeper"><path class="cls-1" d="M47.9,46.46H214.3a0,0,0,0,1,0,0V211.73a29,29,0,0,1-29,29H76.88a29,29,0,0,1-29-29V46.46A0,0,0,0,1,47.9,46.46Z"/><path class="cls-2" d="M20.36,21.28H241.85a0,0,0,0,1,0,0v.64A35.86,35.86,0,0,1,206,57.79H56.22A35.86,35.86,0,0,1,20.36,21.93v-.64a0,0,0,0,1,0,0Z"/><line class="cls-3" x1="47.9" y1="75.39" x2="47.9" y2="75.39"/><line class="cls-4" x1="51.69" y1="75.39" x2="212.41" y2="75.39"/><line class="cls-3" x1="214.3" y1="75.39" x2="214.3" y2="75.39"/><line class="cls-3" x1="47.9" y1="80.02" x2="47.9" y2="80.02"/><line class="cls-4" x1="51.69" y1="80.02" x2="212.41" y2="80.02"/><line class="cls-3" x1="214.3" y1="80.02" x2="214.3" y2="80.02"/><line class="cls-3" x1="47.9" y1="84.64" x2="47.9" y2="84.64"/><line class="cls-4" x1="51.69" y1="84.64" x2="212.41" y2="84.64"/><line class="cls-3" x1="214.3" y1="84.64" x2="214.3" y2="84.64"/><line class="cls-3" x1="47.9" y1="89.26" x2="47.9" y2="89.26"/><line class="cls-4" x1="51.69" y1="89.26" x2="212.41" y2="89.26"/><line class="cls-3" x1="214.3" y1="89.26" x2="214.3" y2="89.26"/><line class="cls-3" x1="47.9" y1="93.88" x2="47.9" y2="93.88"/><line class="cls-4" x1="51.69" y1="93.88" x2="212.41" y2="93.88"/><line class="cls-3" x1="214.3" y1="93.88" x2="214.3" y2="93.88"/><line class="cls-3" x1="47.9" y1="98.51" x2="47.9" y2="98.51"/><line class="cls-4" x1="51.69" y1="98.51" x2="212.41" y2="98.51"/><line class="cls-3" x1="214.3" y1="98.51" x2="214.3" y2="98.51"/><line class="cls-3" x1="47.9" y1="103.13" x2="47.9" y2="103.13"/><line class="cls-4" x1="51.69" y1="103.13" x2="212.41" y2="103.13"/><line class="cls-3" x1="214.3" y1="103.13" x2="214.3" y2="103.13"/><line class="cls-3" x1="47.9" y1="107.75" x2="47.9" y2="107.75"/><line class="cls-4" x1="51.69" y1="107.75" x2="212.41" y2="107.75"/><line class="cls-3" x1="214.3" y1="107.75" x2="214.3" y2="107.75"/><line class="cls-3" x1="47.9" y1="112.37" x2="47.9" y2="112.37"/><line class="cls-4" x1="51.69" y1="112.37" x2="212.41" y2="112.37"/><line class="cls-3" x1="214.3" y1="112.37" x2="214.3" y2="112.37"/><line class="cls-3" x1="47.9" y1="116.99" x2="47.9" y2="116.99"/><line class="cls-4" x1="51.69" y1="116.99" x2="212.41" y2="116.99"/><line class="cls-3" x1="214.3" y1="116.99" x2="214.3" y2="116.99"/><line class="cls-3" x1="47.9" y1="121.62" x2="47.9" y2="121.62"/><line class="cls-4" x1="51.69" y1="121.62" x2="212.41" y2="121.62"/><line class="cls-3" x1="214.3" y1="121.62" x2="214.3" y2="121.62"/><line class="cls-3" x1="47.9" y1="126.24" x2="47.9" y2="126.24"/><line class="cls-4" x1="51.69" y1="126.24" x2="212.41" y2="126.24"/><line class="cls-3" x1="214.3" y1="126.24" x2="214.3" y2="126.24"/><line class="cls-3" x1="47.9" y1="130.86" x2="47.9" y2="130.86"/><line class="cls-4" x1="51.69" y1="130.86" x2="212.41" y2="130.86"/><line class="cls-3" x1="214.3" y1="130.86" x2="214.3" y2="130.86"/><line class="cls-3" x1="47.9" y1="135.48" x2="47.9" y2="135.48"/><line class="cls-4" x1="51.69" y1="135.48" x2="212.41" y2="135.48"/><line class="cls-3" x1="214.3" y1="135.48" x2="214.3" y2="135.48"/><line class="cls-3" x1="47.9" y1="140.11" x2="47.9" y2="140.11"/><line class="cls-4" x1="51.69" y1="140.11" x2="212.41" y2="140.11"/><line class="cls-3" x1="214.3" y1="140.11" x2="214.3" y2="140.11"/><line class="cls-3" x1="47.9" y1="144.73" x2="47.9" y2="144.73"/><line class="cls-4" x1="51.69" y1="144.73" x2="212.41" y2="144.73"/><line class="cls-3" x1="214.3" y1="144.73" x2="214.3" y2="144.73"/><line class="cls-3" x1="47.9" y1="149.35" x2="47.9" y2="149.35"/><line class="cls-4" x1="51.69" y1="149.35" x2="212.41" y2="149.35"/><line class="cls-3" x1="214.3" y1="149.35" x2="214.3" y2="149.35"/><line class="cls-3" x1="47.9" y1="153.97" x2="47.9" y2="153.97"/><line class="cls-4" x1="51.69" y1="153.97" x2="212.41" y2="153.97"/><line class="cls-3" x1="214.3" y1="153.97" x2="214.3" y2="153.97"/><line class="cls-3" x1="47.9" y1="158.59" x2="47.9" y2="158.59"/><line class="cls-4" x1="51.69" y1="158.59" x2="212.41" y2="158.59"/><line class="cls-3" x1="214.3" y1="158.59" x2="214.3" y2="158.59"/><line class="cls-3" x1="47.9" y1="163.22" x2="47.9" y2="163.22"/><line class="cls-4" x1="51.69" y1="163.22" x2="212.41" y2="163.22"/><line class="cls-3" x1="214.3" y1="163.22" x2="214.3" y2="163.22"/><line class="cls-3" x1="47.9" y1="167.84" x2="47.9" y2="167.84"/><line class="cls-4" x1="51.69" y1="167.84" x2="212.41" y2="167.84"/><line class="cls-3" x1="214.3" y1="167.84" x2="214.3" y2="167.84"/><line class="cls-3" x1="47.9" y1="172.46" x2="47.9" y2="172.46"/><line class="cls-4" x1="51.69" y1="172.46" x2="212.41" y2="172.46"/><line class="cls-3" x1="214.3" y1="172.46" x2="214.3" y2="172.46"/><line class="cls-3" x1="47.9" y1="177.08" x2="47.9" y2="177.08"/><line class="cls-4" x1="51.69" y1="177.08" x2="212.41" y2="177.08"/><line class="cls-3" x1="214.3" y1="177.08" x2="214.3" y2="177.08"/><line class="cls-3" x1="47.9" y1="181.71" x2="47.9" y2="181.71"/><line class="cls-4" x1="51.69" y1="181.71" x2="212.41" y2="181.71"/><line class="cls-3" x1="214.3" y1="181.71" x2="214.3" y2="181.71"/><line class="cls-3" x1="47.9" y1="186.33" x2="47.9" y2="186.33"/><line class="cls-4" x1="51.69" y1="186.33" x2="212.41" y2="186.33"/><line class="cls-3" x1="214.3" y1="186.33" x2="214.3" y2="186.33"/><line class="cls-3" x1="47.9" y1="190.95" x2="47.9" y2="190.95"/><line class="cls-4" x1="51.69" y1="190.95" x2="212.41" y2="190.95"/><line class="cls-3" x1="214.3" y1="190.95" x2="214.3" y2="190.95"/><line class="cls-3" x1="47.9" y1="195.57" x2="47.9" y2="195.57"/><line class="cls-4" x1="51.69" y1="195.57" x2="212.41" y2="195.57"/><line class="cls-3" x1="214.3" y1="195.57" x2="214.3" y2="195.57"/><line class="cls-3" x1="47.9" y1="200.19" x2="47.9" y2="200.19"/><line class="cls-4" x1="51.69" y1="200.19" x2="212.41" y2="200.19"/><line class="cls-3" x1="214.3" y1="200.19" x2="214.3" y2="200.19"/><line class="cls-3" x1="47.9" y1="204.82" x2="47.9" y2="204.82"/><line class="cls-4" x1="51.69" y1="204.82" x2="212.41" y2="204.82"/><line class="cls-3" x1="214.3" y1="204.82" x2="214.3" y2="204.82"/><line class="cls-3" x1="47.9" y1="209.44" x2="47.9" y2="209.44"/><line class="cls-4" x1="51.69" y1="209.44" x2="212.41" y2="209.44"/><line class="cls-3" x1="214.3" y1="209.44" x2="214.3" y2="209.44"/><line class="cls-3" x1="47.9" y1="214.06" x2="47.9" y2="214.06"/><line class="cls-4" x1="51.69" y1="214.06" x2="212.41" y2="214.06"/><line class="cls-3" x1="214.3" y1="214.06" x2="214.3" y2="214.06"/><line class="cls-3" x1="47.9" y1="218.68" x2="47.9" y2="218.68"/><line class="cls-4" x1="51.69" y1="218.68" x2="212.41" y2="218.68"/><line class="cls-3" x1="214.3" y1="218.68" x2="214.3" y2="218.68"/></g><g id="Leaf_Glass_Perfect_Mug-2" data-name="Leaf Glass Perfect Mug"><path class="cls-5" d="M252.35,75.81s60.88,3.83,81.71,26.36S365.93,145.52,357,208,284.6,316.17,230.7,314.79l1.79-19.73s50.14-2.48,72.24-24.16,41.65-48.88,42.93-89.25-4.35-94.1-97-87.64Z"/><path class="cls-6" d="M187.51,400.75H74.7A38.76,38.76,0,0,1,36.1,365.5L5.51,27.87A6.52,6.52,0,0,1,12,20.77H250.22a6.52,6.52,0,0,1,6.48,7.1L226.11,365.5A38.76,38.76,0,0,1,187.51,400.75Z"/><g id="Leaves_2" data-name="Leaves 2" class="cls-7"><path class="cls-8" d="M115,364.73c1.63-10.32,3-20.76,3.69-31.14.13-2.59.21-5.19.14-7.75l-.1-3.94c0-1.34,0-2.68,0-4,0-5.32.44-10.59.76-15.86l.51-7.89.38-7.88.13-3.94c0-1.31,0-2.62,0-3.93a47.81,47.81,0,0,0-.56-7.72l-.21-.93a8.54,8.54,0,0,1-.18-1.07c-.1-.71-.12-1.39-.15-2.08,0-1.36,0-2.7.11-4,.16-2.67.44-5.31.76-7.95s.74-5.24,1.16-7.85.88-5.22,1.39-7.81c3.63-20.75,11-41.1,10-61.95q0-3.9-.19-7.82c-.14-2.67-.13-5.36-.06-8,.13-5.31.53-10.58.91-15.84s.77-10.5.83-15.7c0-1.3,0-2.59-.13-3.86a9.09,9.09,0,0,0-.82-3.5c-.58-1.16-1.21-2.3-1.88-3.4q-.5-.84-1.05-1.62a11.48,11.48,0,0,0-1.15-1.4l.81-1a11.42,11.42,0,0,1,1.44,1.56c.43.53.82,1.08,1.2,1.64.76,1.11,1.45,2.25,2.11,3.42a7.19,7.19,0,0,1,.48,1,9.65,9.65,0,0,1,.33,1,16.58,16.58,0,0,1,.38,2c.18,1.35.28,2.69.34,4,.21,5.34,0,10.62-.22,15.89s-.4,10.52-.45,15.74c0,2.62,0,5.2.22,7.78s.31,5.31.36,8,.05,5.35-.12,8a66.1,66.1,0,0,1-1.11,7.95c-1.06,5.24-2,10.47-3.17,15.61-2.29,10.28-4.36,20.61-6.38,30.92-1,5.17-2,10.32-2.81,15.5-.42,2.58-.8,5.17-1.06,7.75-.13,1.3-.21,2.58-.24,3.86,0,.63,0,1.27.06,1.87a7.79,7.79,0,0,0,.12.88c0,.27.13.67.19,1,.78,5.44.43,10.68.46,16l-.16,7.91-.1,7.91c-.06,5.26,0,10.52.07,15.74,0,1.3.08,2.61.15,3.9l.24,4c.14,2.7.07,5.38,0,8-.23,5.34-.72,10.63-1.41,15.89s-1.5,10.48-2.52,15.71Z"/><path class="cls-9" d="M139.61,102.06s-3.89,7.86-4,14.66-.51,8.41-.51,8.41"/><path class="cls-10" d="M143,187.05c-1.77,1.63-3.56,3.27-5.24,5a27.19,27.19,0,0,0-4.33,5.6l-1.17-.51a15.69,15.69,0,0,1,1.84-3.37,27.08,27.08,0,0,1,2.41-2.92,31.55,31.55,0,0,1,2.72-2.58,27.9,27.9,0,0,1,3-2.23Z"/><path class="cls-11" d="M111.91,251.89c1,.73,2,1.46,3,2.2l2.91,2.32a11.63,11.63,0,0,1,2.68,2.78,6,6,0,0,1,.85,1.88,10.32,10.32,0,0,1,.11,1.09,4.47,4.47,0,0,1-.23,1.11l-1.28,0c-.56-1-1.08-1.73-1.64-2.67s-1.17-1.89-1.87-2.84a16.45,16.45,0,0,0-2.4-2.61,24.29,24.29,0,0,0-2.8-2.19Z"/><path class="cls-12" d="M129.13,326.22a20.23,20.23,0,0,1-2,3.1,16.86,16.86,0,0,1-2.55,2.66c-.5.41-.94.71-1.33,1.1a7,7,0,0,0-1.08,1.23,6.69,6.69,0,0,0-1.18,2.94l-1.28-.07a8,8,0,0,1,1.41-3.6,9,9,0,0,1,1.25-1.43c.45-.45,1-.82,1.4-1.16a15.58,15.58,0,0,0,2.35-2.45,18.42,18.42,0,0,0,1.85-2.87Z"/><path class="cls-13" d="M126.82,328.68s-.6-15.49,7.47-22.92,18.28-19.13,29.12-23.38,26.14-1.91,32.72,3.4,6.17,8.07,6.17,8.07-7.65.43-10.63,6.17-29.33,21.46-38.25,21.67S133,321.56,126.82,328.68Z"/><path class="cls-14" d="M39.72,169.32s14.88-.21,24,0,35.49,21.89,40.59,34.22,9.56,29.54,10.2,39.74.92,12.22.92,12.22a47.46,47.46,0,0,1-20-14.61c-8.5-10.79-22.31-14.19-29.33-26.52S53.32,188.87,48,182.71A55.8,55.8,0,0,1,39.72,169.32Z"/><path class="cls-15" d="M140.71,188s4.85-19.14,11.22-28.28,17-21.89,28-25.93,28.48-1.27,33.58-4C210.8,142.12,201.87,164,197,169.23s-11,13.9-22.73,15.39S149.9,184.66,140.71,188Z"/><path class="cls-16" d="M138.51,104.57s0-13.67,1.1-19.72,10.78-18,13-21.36l2.23-3.35s1.92,15.3,0,19.29-7.49,13.86-10.52,17.85S138.51,104.57,138.51,104.57Z"/><path class="cls-17" d="M52.53,46s24.54,1.75,32.83,3.18,7.65,8.13,10.84,11S115,70.82,120.27,81.5s9.88,22,10.83,36c-10.51-3.66-22.31-23.1-27.25-27.09S85.2,74,76.43,70.34,65.92,56.16,61.77,53.13,52.53,46,52.53,46Z"/></g><g id="Leaves"><path class="cls-18" d="M75.78,229.57a27.1,27.1,0,0,1,4.06,2.67,32.77,32.77,0,0,1,3.58,3.29,28.77,28.77,0,0,1,3.06,3.87,11.23,11.23,0,0,1,1.11,2.22,7.67,7.67,0,0,1,.51,2.48l-1.18.46a28.19,28.19,0,0,1-2.74-3.67,37.52,37.52,0,0,0-2.69-3.64c-1-1.16-2-2.3-3.09-3.4s-2.2-2.19-3.33-3.22Z"/><path class="cls-19" d="M85.16,159.1a56.87,56.87,0,0,1,2.2,6.31c.59,2.14,1.12,4.3,1.56,6.48s.77,4.38,1,6.58c.15,1.11.24,2.21.35,3.32a8,8,0,0,1-.31,3.35l-1.27.06A8.48,8.48,0,0,1,88,182c-.09-1.08-.16-2.17-.29-3.25-.21-2.16-.54-4.31-.89-6.46s-.74-4.28-1.22-6.4-1-4.25-1.6-6.31Z"/><path class="cls-20" d="M82,355.28l3.89,5c1.27,1.67,2.55,3.32,3.74,5.14s2.29,3.51,3.28,5.34a39.16,39.16,0,0,1,2.62,5.69l-1.11.63a37.77,37.77,0,0,1-3.46-5.25c-1-1.81-1.92-3.74-2.8-5.6A31.67,31.67,0,0,0,84.89,361,55.13,55.13,0,0,0,81,356.11Z"/><path class="cls-21" d="M107.31,296.23a33,33,0,0,0-4.4,5,9.26,9.26,0,0,0-.88,1.41c-.24.5-.47,1-.67,1.53-.43,1-1,1.87-1.41,2.78-.2.43-.38,1-.56,1.47L98.86,310l-1,3.2-2,6.46-1.25-.23a62,62,0,0,1,.88-6.8c.21-1.13.44-2.25.73-3.37a24.63,24.63,0,0,1,1-3.41,9.43,9.43,0,0,1,1.87-3.14c.84-.86,1.74-1.64,2.49-2.51,1.56-1.71,3.19-3.28,4.8-4.93Z"/><path class="cls-22" d="M96.68,400.84c-1.24-.12-1.48-.4-1.49-.71l-.13-.91-.25-1.81-.46-3.63c-.25-2.43-.49-4.85-.66-7.28-.36-4.87-.52-9.74-.57-14.62s0-9.75.23-14.64.5-9.65.59-14.5c.18-9.66-.1-19.32-.67-28.94-.29-4.82-.65-9.62-1.16-14.4s-1-9.55-1.81-14.26L89,278c-.22-1.21-.4-2.42-.58-3.64s-.37-2.42-.51-3.63c-.65-4.85-1.1-9.7-1.53-14.55-.75-9.7-1.25-19.41-1.39-29.13A255,255,0,0,1,86,197.85a100.6,100.6,0,0,1,2.79-14.42,71.93,71.93,0,0,1,5.13-13.76l1.13.58a90.66,90.66,0,0,0-6.47,27.86,252.52,252.52,0,0,0-.1,28.86c.42,9.64,1,19.28,1.94,28.88.48,4.8,1,9.59,1.66,14.34.15,1.19.36,2.37.54,3.55s.37,2.37.6,3.54c.43,2.3.9,4.75,1.3,7.18a213.79,213.79,0,0,1,2.38,29.18c.25,9.74.06,19.46-.29,29.17-.08,2.43-.19,4.86-.3,7.29S96,355,95.9,357.34a138.85,138.85,0,0,0,.36,14.42c.32,4.8.83,9.59,1.35,14.38.28,2.39.52,4.78.82,7.17l.41,3.58.23,1.79.11.89c.08.29-.08.61-1.23,1.09Z"/><path class="cls-23" d="M30.58,284.29s15.52,11.48,21.89,19.77,24,28.26,26.36,31.87,7.72,26.29,7.72,26.29-15.51-10.77-28-16.09-25-27.19-25.65-38.46S30.58,284.29,30.58,284.29Z"/><path class="cls-24" d="M17.41,137.23s17.21,16.15,23.8,23.8,25.93,31.24,29.54,41.87,6.61,28.65,6.61,28.65-30-4-41.46-20.79S20.81,181.65,20.17,168.9,17.41,137.23,17.41,137.23Z"/><path class="cls-25" d="M104.57,298.11s-1.09-23.81,1.46-32.73,12.32-32.94,27.41-45.69,21-21.89,33.79-27.42,27.2-10,38.89-11.26a56.73,56.73,0,0,0,20.62-6.59s-3.19,13.6-10.84,18.92-15.52,22.1-22.32,31.23-33.36,36.13-45.05,44.85-24.65,21.67-37.4,24.65Z"/><path class="cls-26" d="M93.05,173.14s.86-20.18,10.43-35.91,17.42-26.35,31.24-34,36.34-12.11,47.18-13.81a48.79,48.79,0,0,0,17.42-6s-25.07,25.93-40.59,36.77-41,28.48-50.36,38.25A194.5,194.5,0,0,1,93.05,173.14Z"/><path class="cls-27" d="M58.85,96s5.95,12.12,10.2,15.52,13.6,14.24,14.24,21S86.55,166,86.55,166s-6-16.21-12.82-27S61.4,113.85,58.85,96Z"/></g></g><path class="cls-28" d="M261.46,10.59v.85a10,10,0,0,1-.6,3.39,9.88,9.88,0,0,1-9.25,6.45h-241A9.85,9.85,0,0,1,.75,11.44v-.85A9.85,9.85,0,0,1,10.61.75h241A9.85,9.85,0,0,1,261.46,10.59Z"/><path class="cls-29" d="M307.49,18.05a3.23,3.23,0,0,1-3.23,3.23H251.61a9.88,9.88,0,0,0,9.25-6.45h43.4A3.22,3.22,0,0,1,307.49,18.05Z"/></g></g></g></svg>