<svg xmlns="http://www.w3.org/2000/svg" xmlns:xlink="http://www.w3.org/1999/xlink" viewBox="0 0 209.96 609.58"><defs><style>.cls-1{fill:#202535;}.cls-2{fill:#2d3143;}.cls-3{fill:#474b5d;}.cls-4{clip-path:url(#clip-path);}.cls-5{fill:#ccc;}.cls-6{fill:#fcfdfe;}.cls-7{fill:#6a9272;}.cls-10,.cls-14,.cls-8{fill:none;stroke-miterlimit:10;stroke-width:1.56px;}.cls-10,.cls-8{stroke:#6a9272;}.cls-8{stroke-linecap:round;}.cls-9{fill:#37594b;}.cls-11{fill:#f5f6fc;}.cls-12{fill:#c1e5c9;}.cls-13{fill:#6c9785;}.cls-14{stroke:#37594b;}</style><clipPath id="clip-path"><path class="cls-1" d="M8.64,111.14H199.2l-3.89,439.3c0,33.09-15.62,59.14-55.47,59.14H79.69c-45.74,0-65.63-20.23-64.06-80.94Z"/></clipPath></defs><title>sloth-tea-press</title><g id="Layer_2" data-name="Layer 2"><g id="Sloth_Tea_Press" data-name="Sloth Tea Press"><g id="Sloth_Tea_Press-2" data-name="Sloth Tea Press"><g id="Cap"><path class="cls-2" d="M199.66,59.58l-.46,51.56H8.64l-.83-50s0-.54,0-1.56Z"/><path class="cls-3" d="M200,20.52l-.34,39.06H7.8C7.7,51.78,6.92,16.89,0,1,43.75-4.48,96.88,14.27,115.63,20.52Z"/></g><path class="cls-1" d="M8.64,111.14H199.2l-3.89,439.3c0,33.09-15.62,59.14-55.47,59.14H79.69c-45.74,0-65.63-20.23-64.06-80.94Z"/><g class="cls-4"><path class="cls-5" d="M52.88,541.76h6.35c5,0,5.92,3.32,5.92,9,0,2.79.42,9.19-6.06,9.19H52.88Zm3.81,15.38h1.84c2.33,0,2.77-1.73,2.77-6.29,0-3.36,0-6.3-2.65-6.3h-2Z"/><path class="cls-5" d="M64.48,559.93l5-18.19h5l4.94,18.19h-4l-1-4H69.23l-1,4Zm7.34-14.68h0L70,553.11h3.64Z"/><path class="cls-5" d="M76.44,541.76h4L83.23,555h0l3.19-13.22h3.76L85.43,560H81Z"/><path class="cls-5" d="M91.26,559.93V541.76h3.81V560H91.26Z"/><path class="cls-5" d="M96.45,541.76h6.35c5,0,5.92,3.32,5.92,9,0,2.79.43,9.19-6.06,9.19H96.47l0-18.17Zm3.8,15.38h1.83c2.34,0,2.78-1.73,2.78-6.29,0-3.36,0-6.3-2.66-6.3h-2Z"/><path class="cls-5" d="M127.93,541.76v3h-4.58V560h-3.81V544.79h-5.29v-3Z"/><path class="cls-5" d="M129,559.93V541.76h9.92v2.79h-6.11V549h5.65v2.8h-5.65v5.32h6.32v2.79Z"/><path class="cls-5" d="M140,559.93l5-18.19h5L155,559.93h-4l-1-4h-5.17l-1,4Zm7.32-14.68h-.05l-1.74,7.86h3.64Z"/><path class="cls-5" d="M112.82,555.63a4.53,4.53,0,0,0,.14,1.53c.17.41.47.59,1.05.59a1.15,1.15,0,0,0,1.09-1.29c0-2.67-5.17-2.08-5.17-6.09,0-2.71,2.24-3.54,4.15-3.54a3.37,3.37,0,0,1,3.64,3.86h-2.89a2.71,2.71,0,0,0-.29-1.61.88.88,0,0,0-.75-.28c-.65,0-1,.5-1,1.35,0,2,5.17,1.9,5.17,5.94a3.7,3.7,0,0,1-3.95,3.84c-2.55,0-4.27-.78-4.1-4.29h2.91Z"/><path class="cls-6" d="M57.25,210.36S51,211.92,51,219.74,61.94,230.67,66.63,226c3.12,3.12,17.19,7.81,25,0,4.69,1.56,17.19-9.38,1.56-15.63,1.56-7.81-4.69-10.94-7.81-9.37,0-3.13-12.5-10.94-17.19,3.12C58.82,201,57.25,210.36,57.25,210.36Z"/><path class="cls-6" d="M64.05,492.77S58.32,493.89,58,501s9.38,10.41,13.84,6.39c2.68,3,15.19,7.88,22.63,1.18,4.16,1.64,16-7.67,2.15-14.06,1.78-7-3.73-10.12-6.63-8.86.15-2.82-10.79-10.48-15.7,2C65.91,484.36,64.05,492.77,64.05,492.77Z"/><path class="cls-6" d="M10,194.34s1.29-2.08,2.85-1.69c.52-3,5.73-10.54,8.07,6.64,4.3.92,4.56,8.34,0,9.12-.52,4.56-6.25,3.78-8.2-1l-2.48,1.68Z"/><path class="cls-6" d="M104,168.27c2,4.79,11.33,4,13.68,0,4.1.88,10.54-5,2.14-8-2-5-10.35-8.2-16.6-1.36C97,159.48,90.93,167.5,104,168.27Z"/><path class="cls-6" d="M23.36,440c1.52,4.25,8.41,3.55,10.15,0,3.05.78,7.83-4.43,1.6-7.12-1.53-4.42-7.69-7.29-12.33-1.21C18.14,432.19,13.65,439.31,23.36,440Z"/><path class="cls-6" d="M197.77,272.08s-3.89.13-3,8.46c-6.38-.13-7.42,7.43-5.6,10.16-5.21,1.95-8.46,16.54,3.26,15.89,1.43,2,5,1.82,5,1.82Z"/><g id="Single_Leaf" data-name="Single Leaf"><path class="cls-7" d="M169.4,135.49s13,.91,17.71,11.07.26,25.91,4.56,33.59c-14.33-1.43-20.71-9.5-22.27-17.83S170.44,142.78,169.4,135.49Z"/><path class="cls-8" d="M165.23,125.6s4.89,7.27,5.15,11.52"/></g><path class="cls-9" d="M10,197.86a303.19,303.19,0,0,0,7.88,36.2,148.66,148.66,0,0,0,6,17.27,59.5,59.5,0,0,0,8.87,15.22,20,20,0,0,0,6.15,5,11.59,11.59,0,0,0,3.4,1,10.22,10.22,0,0,0,1.75.11c.31,0,.55,0,.91-.05l1.09-.09a93.69,93.69,0,0,0,17.43-3.73c11.64-3.37,23-8.19,35.57-11.29A59.69,59.69,0,0,1,109,256a27.15,27.15,0,0,1,10.84,1.27,18.34,18.34,0,0,1,2.72,1.23c.44.23.86.51,1.29.78l1,.73a48.44,48.44,0,0,1,3.91,3.07,60.38,60.38,0,0,1,6.84,7c2.08,2.42,3.93,4.94,5.83,6.9a9.66,9.66,0,0,0,6.19,3.35c.31,0,.61,0,.92,0s.7,0,.87,0a3.31,3.31,0,0,0,1.27-.35,7.42,7.42,0,0,0,2.53-2.32,36.82,36.82,0,0,0,4-7.72c2.27-5.64,4.22-11.6,6.66-17.4a68.62,68.62,0,0,1,4.21-8.51,39,39,0,0,1,2.68-4,36.79,36.79,0,0,1,3.19-3.58,152.35,152.35,0,0,1,14-12.53c4.93-3.92,9.91-7.61,15.2-11.28l2.61,4.8a98.77,98.77,0,0,0-15.9,9,96.15,96.15,0,0,0-14.1,11.73c-4.38,4.16-7.06,9.67-9.15,15.39s-3.51,11.73-5.39,17.76a39.12,39.12,0,0,1-3.86,9.08,12.64,12.64,0,0,1-4,4.15,8.79,8.79,0,0,1-3.1,1.16c-.59.11-1,.12-1.44.17s-.93,0-1.4,0a14.09,14.09,0,0,1-5.67-1.23,19.6,19.6,0,0,1-4.63-3c-2.65-2.26-4.73-4.56-6.88-6.66a77,77,0,0,0-6.56-5.82c-1.14-.89-2.29-1.76-3.48-2.56l-.88-.59c-.24-.14-.46-.29-.7-.41A10.53,10.53,0,0,0,117,265a19,19,0,0,0-7.5-.71,54.23,54.23,0,0,0-8.45,1.46c-5.75,1.38-11.55,3.37-17.42,5.3s-11.84,3.87-18,5.48a100.92,100.92,0,0,1-19,3.22l-1.23.06c-.41,0-.94,0-1.41,0a17.28,17.28,0,0,1-2.87-.33,18.68,18.68,0,0,1-5.34-2,26.12,26.12,0,0,1-7.87-7,47.72,47.72,0,0,1-5.12-8.45,84.7,84.7,0,0,1-3.66-8.88A142.66,142.66,0,0,1,14.29,235c-1.22-6.14-2.19-12.31-2.87-18.5S10.2,204.07,10,197.86Z"/><g id="Leaf"><path class="cls-10" d="M137.76,532.5s16.15-40.89,29.69-61.2,35.94-67.19,40.1-81.25"/><path class="cls-7" d="M138.57,488.29s7.9-.3,10.25,18.36C140.23,504.7,138.09,495.42,138.57,488.29Z"/><path class="cls-7" d="M149.64,504.86s8.47-5.44,15-4.46,9.67,6.15,16.7,5.47c-8.3,5.47-10.55,5-18.26,1.76S149.64,504.86,149.64,504.86Z"/><path class="cls-7" d="M154.47,494.68s12.13-7.76,20.33-7.17,15.83,3.32,19.83,2.93c-6.84,5.86-15.72,7.81-24.51,6.54S160.12,494.23,154.47,494.68Z"/><path class="cls-7" d="M162.19,479.94s11.25-3.95,15.94-2.78,20.89,4.06,27.14-.22c-6.64-6.81-15.43-10.33-25-5.84S162.19,479.94,162.19,479.94Z"/><path class="cls-7" d="M152.89,498s-2.39-15.34,0-23.43,1.21-44.63,3.75-50.68c-7.42,14.26-13.28,40.22-11.52,50.68S152.89,498,152.89,498Z"/><path class="cls-7" d="M162.19,479.94s-5.55-24.27-2-42.23a180,180,0,0,1,10.74-34.18s-3.52,24.8-3.71,35.35S162.26,472.56,162.19,479.94Z"/><path class="cls-7" d="M172.66,463s-.32-10.6,1.89-18.41,1.23-46.48,4.75-53.51c-5.67,15.23-8.79,22.26-8.4,42S172.66,463,172.66,463Z"/><path class="cls-7" d="M182.9,444.39s-1.06-20,1.57-34.42,7.72-40.23,7.72-40.23-13.67,30.86-12.89,43.94S179.29,435.26,182.9,444.39Z"/><path class="cls-7" d="M189.55,431.31s-2.05-10.79,0-18.8,7.24-29.1,7.28-34.18c-4.06,5.47-9.53,20.51-10.31,31.64s1.76,23.9,1.76,23.9"/><path class="cls-7" d="M171.9,464.21s3.49-.44,9.45-3.32,13.18-4,18.65-3.07c-.78,5.47-5.57,8.21-13.63,7.62a81.36,81.36,0,0,0-15.5.48Z"/><path class="cls-7" d="M180,449.86s5.55-3.46,8.09,0,8.39,5.62,13.86,4.64c-.78-5.08-6.63-9.79-13.86-8S180,449.86,180,449.86Z"/><path class="cls-7" d="M186.37,437.66s3.17-1.7,10-2.29S210,441.73,210,441.73s-12.5,5.84-17.77,2.66C187.3,439.66,186.37,437.66,186.37,437.66Z"/></g><g id="Sloth"><path class="cls-11" d="M45.06,307.41h0c-1.86,9.5-7.45,16.77-13.42,17.36-3.75.38-6.5-3-8.3-6.5a58.9,58.9,0,0,1-1.07-14.84c.89-9,12.59-18.52,20.28-2.42.37.78.73,1.61,1.07,2.51s.76,2,1.1,3.11A2.7,2.7,0,0,0,45.06,307.41Z"/><path class="cls-12" d="M67.37,360c-30.23,0-40.85-24.45-44-41.69,1.8,3.47,4.55,6.88,8.3,6.5,6-.59,11.56-7.86,13.42-17.36,2.41,3.71,4.63-34.54,10.6-34.37,6.25.2,8.4,44.73,12.5,44.73s3.53-48.64,11.71-48.64S116,360,67.37,360Z"/><path class="cls-13" d="M27.6,306s-2.6,1-2.34,5.44.39,5.47,1.56,5.47.85-4.95,1.47-6.64S30.08,306.51,27.6,306Z"/><path class="cls-13" d="M43.62,303.53a4.83,4.83,0,0,1-2.6.32,3.53,3.53,0,0,1-2.68-2.08c.69-1.69,2.55-1.67,4.21-.75C42.92,301.8,43.28,302.63,43.62,303.53Z"/><path class="cls-13" d="M34.89,307.53s.68,0-1,2.3-.81,4.55.57,4.55S41,310,40.81,309,39,306,34.89,307.53Z"/><circle cx="28.29" cy="305.96" r="1.47"/><ellipse cx="34.38" cy="305.96" rx="1.47" ry="2.69" transform="translate(-112.1 35.15) rotate(-22)"/><circle cx="38.35" cy="301.77" r="1.47"/></g><g id="Leaf_2" data-name="Leaf 2"><path class="cls-14" d="M134.35,274.16s-2.06,53.91-28.62,79.69a310.88,310.88,0,0,1-53.39,41.41"/><path class="cls-9" d="M131.1,299.19s-5.58,2.32-16.13,2.58a182.07,182.07,0,0,0-21.62,2.08S111.82,291,131.1,299.19Z"/><path class="cls-9" d="M131.34,298a27.57,27.57,0,0,0,5.38,6.78,20.17,20.17,0,0,1,4.82,6.61s2.21-9.86-3-13.39-6.77-2.36-6.77-2.36Z"/><path class="cls-9" d="M129.9,304.79s-6.81-1.07-17.67.88-17.31,6.65-24,7.23C109.57,314.66,122.68,314.45,129.9,304.79Z"/><path class="cls-9" d="M131.1,303.43a23.39,23.39,0,0,1,9.53,15.72c1.75,10.94,1.37,34,1.37,34s-6.69-20.51-7.65-28.72S131.1,303.43,131.1,303.43Z"/><path class="cls-9" d="M127.25,314.75s-8.11,4.79-14,4.79-30.66.39-41.6,7.23c28.71.39,34.57,1,42.38-2.54A44.4,44.4,0,0,0,127.25,314.75Z"/><path class="cls-9" d="M127.55,313.75s1.75,7.16,4.87,15.95,6.21,18.36,1.93,37.5c-3.49-13.48-6-28.91-5.64-34.18S127.55,313.75,127.55,313.75Z"/><path class="cls-9" d="M123.81,324.79s-11.31,5.1-19.9,5.36-30.73,7.3-30.73,7.3,18.75-3.4,28.38-2.74S119.78,333,123.81,324.79Z"/><path class="cls-9" d="M122.38,328.28s2.18,6,4.87,17,4.41,20.83.3,31.25c-3.85-18.75-5.7-25-5.17-31A171.13,171.13,0,0,0,122.38,328.28Z"/><path class="cls-9" d="M117.94,337.45a205.65,205.65,0,0,0-23.41,0c-10.42.78-31.51,8.07-31.51,8.07s18.75-2.87,31.77-2.08S115.84,341.48,117.94,337.45Z"/><path class="cls-9" d="M114.71,342.84s8.53,5.28,7.58,23.51-9,28.91-9,28.91.26-18.57,2.08-26.21S114.71,342.84,114.71,342.84Z"/><path class="cls-9" d="M110.91,348.1s-12-3.1-20.43-2.58S63,352.4,63,352.4a200.29,200.29,0,0,1,25.26,0C99.74,353.33,107.11,353.36,110.91,348.1Z"/><path class="cls-9" d="M112.23,346.39s3.4,10.85,1,26.21a257.87,257.87,0,0,1-6,28.39s-2.4-16.84,0-27.3S112.82,350.9,112.23,346.39Z"/><path class="cls-9" d="M99.47,359.74a64.79,64.79,0,0,0-23.69,0C63,362.19,52.34,364,52.34,364S68,371,75.9,369.05,92.94,362.77,99.47,359.74Z"/><path class="cls-9" d="M103.6,355.9a55.69,55.69,0,0,1,1.09,31c-6.77,14.59-8.6,21.62-8.6,21.62s-.41-20.57,2.4-28.13S103.6,355.9,103.6,355.9Z"/><path class="cls-9" d="M93.35,365.18s6.13,12.89,1.44,21.74-9.63,25.27-9.63,25.27,3.1-22.7,5.32-30S93.35,365.18,93.35,365.18Z"/><path class="cls-9" d="M83.08,373.69s-3.26-2.39-11.4-1.09-12.3,7-17,8.34C64.32,381.72,75.28,374.25,83.08,373.69Z"/><path class="cls-9" d="M81.22,375.16s2.18,4.34.81,12.16-4.88,19.53-4.49,26c-3.71-9.37-2.21-20.5,0-24.61S81.22,375.16,81.22,375.16Z"/><path class="cls-9" d="M73.18,381.26a29.15,29.15,0,0,1-1.5,14c-2.73,7.88-7,18-7,18s-1.37-11.65,1.76-18S73.18,381.26,73.18,381.26Z"/></g></g></g></g></g></svg>