<svg xmlns="http://www.w3.org/2000/svg" xmlns:xlink="http://www.w3.org/1999/xlink" viewBox="0 0 209.96 710.44"><defs><style>.cls-1{fill:#202535;}.cls-2{fill:url(#linear-gradient);}.cls-3{fill:#403f44;}.cls-4{fill:#24262d;}.cls-5{fill:#24262f;}.cls-6{fill:url(#linear-gradient-2);}.cls-7{clip-path:url(#clip-path);}.cls-8{fill:#ccc;}.cls-9{fill:#fcfdfe;}.cls-10{fill:#6a9272;}.cls-11,.cls-13,.cls-17{fill:none;stroke-miterlimit:10;stroke-width:1.56px;}.cls-11,.cls-13{stroke:#6a9272;}.cls-11{stroke-linecap:round;}.cls-12{fill:#37594b;}.cls-14{fill:#f5f6fc;}.cls-15{fill:#c1e5c9;}.cls-16{fill:#6c9785;}.cls-17{stroke:#37594b;}.cls-18{fill:#2d3143;}.cls-19{fill:#474b5d;}</style><linearGradient id="linear-gradient" x1="176.56" y1="226.44" x2="26.48" y2="105.77" gradientUnits="userSpaceOnUse"><stop offset="0" stop-color="#fff" stop-opacity="0.9"/><stop offset="1" stop-color="#ccc" stop-opacity="0.9"/></linearGradient><linearGradient id="linear-gradient-2" x1="179.18" y1="228.54" x2="23.71" y2="103.54" gradientUnits="userSpaceOnUse"><stop offset="0" stop-color="#fff" stop-opacity="0.4"/><stop offset="1" stop-color="#ccc" stop-opacity="0.6"/></linearGradient><clipPath id="clip-path"><path class="cls-1" d="M8.64,212H199.2l-3.89,439.3c0,33.1-15.62,59.14-55.47,59.14H79.69c-45.74,0-65.63-20.23-64.07-80.94Z"/></clipPath></defs><title>sloth-tea-press-open</title><g id="Layer_2" data-name="Layer 2"><g id="Sloth_Tea_Press" data-name="Sloth Tea Press"><g id="Sloth_Tea_Press_-_Open" data-name="Sloth Tea Press - Open"><g id="Inside"><rect class="cls-2" x="32.64" y="107.13" width="142.17" height="121.48"/><rect class="cls-3" x="46.7" y="133.7" width="114.06" height="16.02"/><rect class="cls-4" x="28.34" y="107.13" width="150.78" height="16.02"/><rect class="cls-5" x="39.27" y="119.24" width="128.91" height="16.02"/><rect class="cls-6" x="28.34" y="107.13" width="150.78" height="121.48"/></g><g id="Outer_Press" data-name="Outer Press"><path class="cls-1" d="M8.64,212H199.2l-3.89,439.3c0,33.1-15.62,59.14-55.47,59.14H79.69c-45.74,0-65.63-20.23-64.07-80.94Z"/><g class="cls-7"><path class="cls-8" d="M52.88,642.62h6.35c5,0,5.92,3.32,5.92,9,0,2.79.42,9.19-6.06,9.19H52.88ZM56.69,658h1.84c2.33,0,2.77-1.73,2.77-6.29,0-3.36,0-6.3-2.65-6.3h-2Z"/><path class="cls-8" d="M64.48,660.79l5-18.19h5l4.94,18.19h-4l-1-4H69.23l-1,4Zm7.34-14.68h0L70,654h3.64Z"/><path class="cls-8" d="M76.44,642.62h4l2.82,13.22h0l3.19-13.22h3.76l-4.8,18.19H81Z"/><path class="cls-8" d="M91.26,660.79V642.62h3.81v18.19H91.26Z"/><path class="cls-8" d="M96.45,642.62h6.35c5,0,5.92,3.32,5.92,9,0,2.79.43,9.19-6.06,9.19H96.47l0-18.17Zm3.8,15.38h1.83c2.34,0,2.78-1.73,2.78-6.29,0-3.36,0-6.3-2.66-6.3h-2Z"/><path class="cls-8" d="M127.93,642.62v3h-4.58v15.16h-3.81V645.65h-5.29v-3Z"/><path class="cls-8" d="M129,660.79V642.62h9.92v2.79h-6.11v4.48h5.65v2.79h-5.65V658h6.32v2.79Z"/><path class="cls-8" d="M140,660.79l5-18.19h5L155,660.79h-4l-1-4h-5.17l-1,4Zm7.32-14.68h-.05L145.52,654h3.64Z"/><path class="cls-8" d="M112.82,656.49A4.51,4.51,0,0,0,113,658c.17.41.47.59,1.05.59a1.15,1.15,0,0,0,1.09-1.29c0-2.67-5.17-2.07-5.17-6.09,0-2.71,2.24-3.54,4.15-3.54a3.37,3.37,0,0,1,3.64,3.86h-2.89a2.73,2.73,0,0,0-.29-1.61.91.91,0,0,0-.75-.28c-.65,0-1,.5-1,1.35,0,2,5.17,1.9,5.17,5.94a3.7,3.7,0,0,1-3.95,3.84c-2.55,0-4.27-.78-4.1-4.29h2.91Z"/><path class="cls-9" d="M57.25,311.22S51,312.79,51,320.6s10.94,10.94,15.63,6.25c3.12,3.12,17.19,7.81,25,0,4.69,1.56,17.19-9.38,1.56-15.63,1.56-7.81-4.69-10.93-7.81-9.37,0-3.13-12.5-10.94-17.19,3.12C58.82,301.85,57.25,311.22,57.25,311.22Z"/><path class="cls-9" d="M64.05,593.63s-5.73,1.12-6.1,8.19,9.38,10.41,13.84,6.39c2.68,3,15.19,7.88,22.63,1.18,4.16,1.64,16-7.67,2.15-14.06,1.78-7-3.73-10.12-6.63-8.86.15-2.82-10.79-10.48-15.7,2C65.91,585.22,64.05,593.63,64.05,593.63Z"/><path class="cls-9" d="M10,295.2s1.29-2.08,2.85-1.69c.52-3,5.73-10.54,8.07,6.65,4.3.91,4.56,8.33,0,9.11-.52,4.56-6.25,3.78-8.2-1l-2.48,1.68Z"/><path class="cls-9" d="M104,269.13c2,4.79,11.33,4,13.68,0,4.1.88,10.54-5,2.14-8-2-5-10.35-8.21-16.6-1.37C97,260.34,90.93,268.36,104,269.13Z"/><path class="cls-9" d="M23.36,540.86c1.52,4.25,8.41,3.55,10.15,0,3.05.78,7.83-4.43,1.6-7.12-1.53-4.42-7.69-7.28-12.33-1.21C18.14,533.05,13.65,540.17,23.36,540.86Z"/><path class="cls-9" d="M197.77,372.94s-3.89.13-3,8.47c-6.38-.13-7.42,7.42-5.6,10.15-5.21,1.95-8.46,16.54,3.26,15.89,1.43,1.95,5,1.82,5,1.82Z"/><g id="Single_Leaf" data-name="Single Leaf"><path class="cls-10" d="M169.4,236.35s13,.91,17.71,11.07.26,25.91,4.56,33.59c-14.33-1.43-20.71-9.5-22.27-17.83S170.44,243.65,169.4,236.35Z"/><path class="cls-11" d="M165.23,226.46s4.89,7.27,5.15,11.52"/></g><path class="cls-12" d="M10,298.72a303.19,303.19,0,0,0,7.88,36.2,148.81,148.81,0,0,0,6,17.28,59.61,59.61,0,0,0,8.87,15.21,20,20,0,0,0,6.15,5,11.93,11.93,0,0,0,3.4,1.05,10.22,10.22,0,0,0,1.75.1c.31,0,.55,0,.91-.05l1.09-.09a93.69,93.69,0,0,0,17.43-3.73c11.64-3.37,23-8.18,35.57-11.29a60.76,60.76,0,0,1,9.86-1.58,27.15,27.15,0,0,1,10.84,1.27,18.34,18.34,0,0,1,2.72,1.23c.44.23.86.51,1.29.78l1,.73a48.44,48.44,0,0,1,3.91,3.07,60.38,60.38,0,0,1,6.84,7c2.08,2.42,3.93,4.94,5.83,6.91a9.69,9.69,0,0,0,6.19,3.34c.31,0,.61,0,.92,0s.7,0,.87,0a3.31,3.31,0,0,0,1.27-.35,7.42,7.42,0,0,0,2.53-2.32,36.82,36.82,0,0,0,4-7.72c2.27-5.64,4.22-11.6,6.66-17.4a68.49,68.49,0,0,1,4.21-8.5,38.08,38.08,0,0,1,2.68-4,36.79,36.79,0,0,1,3.19-3.58,152.35,152.35,0,0,1,14-12.53c4.93-3.91,9.91-7.61,15.2-11.28l2.61,4.8a98.77,98.77,0,0,0-15.9,9,96.15,96.15,0,0,0-14.1,11.73c-4.38,4.16-7.06,9.67-9.15,15.39s-3.51,11.73-5.39,17.76a39.12,39.12,0,0,1-3.86,9.08,12.64,12.64,0,0,1-4,4.15,8.61,8.61,0,0,1-3.1,1.16c-.59.11-1,.12-1.44.17s-.93,0-1.4,0a14.27,14.27,0,0,1-5.67-1.24,19.29,19.29,0,0,1-4.63-3c-2.65-2.26-4.73-4.56-6.88-6.66a77,77,0,0,0-6.56-5.82c-1.14-.89-2.29-1.75-3.48-2.56l-.88-.59c-.24-.13-.46-.29-.7-.41a10.53,10.53,0,0,0-1.53-.66,19,19,0,0,0-7.5-.71,54.23,54.23,0,0,0-8.45,1.46c-5.75,1.38-11.55,3.37-17.42,5.3s-11.84,3.87-18,5.48a100.93,100.93,0,0,1-19,3.23l-1.23.05c-.41,0-.94,0-1.41,0a17.28,17.28,0,0,1-2.87-.33,18.37,18.37,0,0,1-5.34-2,26.29,26.29,0,0,1-7.87-7,47.72,47.72,0,0,1-5.12-8.45A83.82,83.82,0,0,1,19.16,354a142.22,142.22,0,0,1-4.87-18.23c-1.22-6.14-2.19-12.3-2.87-18.5S10.2,304.93,10,298.72Z"/><g id="Leaf"><path class="cls-13" d="M137.76,633.36s16.15-40.89,29.69-61.2,35.94-67.19,40.1-81.25"/><path class="cls-10" d="M138.57,589.15s7.9-.29,10.25,18.36C140.23,605.56,138.09,596.28,138.57,589.15Z"/><path class="cls-10" d="M149.64,605.72s8.47-5.43,15-4.46,9.67,6.15,16.7,5.47c-8.3,5.47-10.55,5-18.26,1.76S149.64,605.72,149.64,605.72Z"/><path class="cls-10" d="M154.47,595.54s12.13-7.75,20.33-7.17,15.83,3.32,19.83,2.93c-6.84,5.86-15.72,7.81-24.51,6.54S160.12,595.09,154.47,595.54Z"/><path class="cls-10" d="M162.19,580.8s11.25-3.95,15.93-2.78,20.9,4.06,27.15-.22c-6.64-6.81-15.43-10.33-25-5.83S162.19,580.8,162.19,580.8Z"/><path class="cls-10" d="M152.89,598.81s-2.39-15.33,0-23.43,1.21-44.63,3.75-50.68c-7.42,14.26-13.28,40.22-11.52,50.68S152.89,598.81,152.89,598.81Z"/><path class="cls-10" d="M162.19,580.8s-5.55-24.26-2-42.23a180,180,0,0,1,10.74-34.18s-3.52,24.8-3.71,35.35S162.26,573.42,162.19,580.8Z"/><path class="cls-10" d="M172.66,563.81s-.32-10.59,1.89-18.41,1.23-46.48,4.75-53.51c-5.67,15.23-8.79,22.26-8.4,42S172.66,563.81,172.66,563.81Z"/><path class="cls-10" d="M182.9,545.26s-1.06-20,1.57-34.43,7.72-40.23,7.72-40.23-13.67,30.86-12.89,43.94S179.29,536.12,182.9,545.26Z"/><path class="cls-10" d="M189.55,532.17s-2.05-10.79,0-18.8,7.24-29.1,7.28-34.18c-4.06,5.47-9.53,20.51-10.31,31.64s1.76,23.9,1.76,23.9"/><path class="cls-10" d="M171.9,565.07s3.49-.44,9.45-3.31,13.18-4,18.65-3.08c-.78,5.47-5.57,8.21-13.63,7.62a82.34,82.34,0,0,0-15.5.48Z"/><path class="cls-10" d="M180,550.73s5.55-3.47,8.09,0,8.39,5.61,13.86,4.63c-.78-5.07-6.63-9.79-13.86-8S180,550.73,180,550.73Z"/><path class="cls-10" d="M186.37,538.52s3.17-1.7,10-2.29S210,542.59,210,542.59s-12.5,5.84-17.77,2.67C187.3,540.52,186.37,538.52,186.37,538.52Z"/></g><g id="Sloth"><path class="cls-14" d="M45.06,408.27v0c-1.86,9.5-7.45,16.76-13.42,17.36-3.75.37-6.5-3-8.3-6.5a59,59,0,0,1-1.07-14.85c.89-9,12.59-18.51,20.28-2.42.37.78.73,1.61,1.07,2.52s.76,2,1.1,3.1A2.7,2.7,0,0,0,45.06,408.27Z"/><path class="cls-15" d="M67.37,460.83c-30.23,0-40.85-24.45-44-41.68,1.8,3.46,4.55,6.87,8.3,6.5,6-.6,11.56-7.86,13.42-17.36,2.41,3.7,4.63-34.55,10.6-34.38,6.25.2,8.4,44.74,12.5,44.74S71.69,370,79.87,370,116,460.83,67.37,460.83Z"/><path class="cls-16" d="M27.6,406.83s-2.6,1-2.34,5.43.39,5.47,1.56,5.47.85-4.94,1.47-6.64S30.08,407.38,27.6,406.83Z"/><path class="cls-16" d="M43.62,404.4a4.93,4.93,0,0,1-2.6.31,3.53,3.53,0,0,1-2.68-2.08c.69-1.69,2.55-1.67,4.21-.75C42.92,402.66,43.28,403.49,43.62,404.4Z"/><path class="cls-16" d="M34.89,408.39s.68-.05-1,2.3-.81,4.55.57,4.55,6.51-4.42,6.36-5.34S39,406.88,34.89,408.39Z"/><circle cx="28.29" cy="406.83" r="1.47"/><ellipse cx="34.37" cy="406.83" rx="1.47" ry="2.69" transform="translate(-149.88 42.49) rotate(-22)"/><circle cx="38.35" cy="402.63" r="1.47"/></g><g id="Leaf_2" data-name="Leaf 2"><path class="cls-17" d="M134.35,375s-2.06,53.91-28.62,79.69a310.88,310.88,0,0,1-53.39,41.41"/><path class="cls-12" d="M131.1,400.05s-5.58,2.32-16.13,2.58a182.07,182.07,0,0,0-21.62,2.08S111.82,391.87,131.1,400.05Z"/><path class="cls-12" d="M131.34,398.87a27.57,27.57,0,0,0,5.38,6.78,20.17,20.17,0,0,1,4.82,6.61s2.21-9.86-3-13.39-6.77-2.36-6.77-2.36Z"/><path class="cls-12" d="M129.9,405.65s-6.81-1.07-17.67.89-17.31,6.64-24,7.22C109.57,415.52,122.68,415.31,129.9,405.65Z"/><path class="cls-12" d="M131.1,404.29A23.36,23.36,0,0,1,140.62,420C142.38,431,142,454,142,454s-6.69-20.51-7.65-28.71S131.1,404.29,131.1,404.29Z"/><path class="cls-12" d="M127.25,415.61s-8.11,4.79-14,4.79-30.66.39-41.6,7.23c28.71.39,34.57,1,42.38-2.54A44.23,44.23,0,0,0,127.25,415.61Z"/><path class="cls-12" d="M127.55,414.61s1.75,7.16,4.87,15.95,6.21,18.36,1.93,37.5c-3.49-13.48-6-28.91-5.64-34.18S127.55,414.61,127.55,414.61Z"/><path class="cls-12" d="M123.81,425.65s-11.31,5.1-19.9,5.36-30.73,7.3-30.73,7.3,18.75-3.4,28.38-2.74S119.78,433.84,123.81,425.65Z"/><path class="cls-12" d="M122.38,429.15s2.18,6,4.87,17,4.41,20.83.3,31.25c-3.85-18.75-5.7-25-5.17-31A170.91,170.91,0,0,0,122.38,429.15Z"/><path class="cls-12" d="M117.94,438.31a208.28,208.28,0,0,0-23.41,0c-10.42.78-31.51,8.07-31.51,8.07s18.75-2.87,31.77-2.08S115.84,442.34,117.94,438.31Z"/><path class="cls-12" d="M114.71,443.7s8.53,5.28,7.58,23.51-9,28.91-9,28.91.26-18.57,2.08-26.21S114.71,443.7,114.71,443.7Z"/><path class="cls-12" d="M110.91,449s-12-3.1-20.43-2.58S63,453.26,63,453.26a200.29,200.29,0,0,1,25.26,0C99.74,454.19,107.11,454.22,110.91,449Z"/><path class="cls-12" d="M112.23,447.25s3.4,10.85,1,26.21a257.87,257.87,0,0,1-6,28.39s-2.4-16.84,0-27.3S112.82,451.76,112.23,447.25Z"/><path class="cls-12" d="M99.47,460.6a64.79,64.79,0,0,0-23.69,0c-12.76,2.45-23.44,4.27-23.44,4.27s15.62,6.95,23.56,5S92.94,463.63,99.47,460.6Z"/><path class="cls-12" d="M103.6,456.76a55.72,55.72,0,0,1,1.09,31c-6.77,14.58-8.6,21.61-8.6,21.61s-.41-20.57,2.4-28.12S103.6,456.76,103.6,456.76Z"/><path class="cls-12" d="M93.35,466s6.13,12.89,1.44,21.75-9.63,25.26-9.63,25.26,3.1-22.7,5.32-30S93.35,466,93.35,466Z"/><path class="cls-12" d="M83.08,474.55s-3.26-2.39-11.4-1.09-12.3,7-17,8.34C64.32,482.58,75.28,475.11,83.08,474.55Z"/><path class="cls-12" d="M81.22,476s2.18,4.34.81,12.16-4.88,19.53-4.49,26c-3.71-9.37-2.21-20.5,0-24.6S81.22,476,81.22,476Z"/><path class="cls-12" d="M73.18,482.12a29.15,29.15,0,0,1-1.5,14c-2.73,7.88-7,18-7,18s-1.37-11.65,1.76-18S73.18,482.12,73.18,482.12Z"/></g></g></g><g id="Cap"><path class="cls-18" d="M199.66,59.58l-.46,51.56H8.64l-.83-50s0-.54,0-1.56Z"/><path class="cls-19" d="M200,20.52l-.34,39.06H7.8C7.7,51.78,6.92,16.89,0,1,43.75-4.48,96.88,14.27,115.63,20.52Z"/></g></g></g></g></svg>