<svg xmlns="http://www.w3.org/2000/svg" viewBox="0 0 416.41 417.9"><defs><style>.cls-1{fill:#c32100;}.cls-2{fill:#c30021;}.cls-3{fill:#c03a21;}.cls-4{fill:#843229;}.cls-5{fill:#983328;}.cls-6{fill:#802900;}.cls-7{fill:#af3c20;}.cls-8{fill:#bb5d19;}.cls-9{fill:#e66c2c;}.cls-10{fill:#b84a1a;}.cls-11{fill:#47110c;}.cls-12{fill:#bb5b1b;}.cls-13{fill:#4a1009;}.cls-14{fill:#ce4446;}.cls-15{fill:#ef762f;}.cls-16{fill:#88260e;}.cls-17{fill:#5e1c11;}.cls-18{fill:#ffd27f;}.cls-19{fill:#450a00;}.cls-20{fill:#b24820;}.cls-21{fill:#f18593;}.cls-22{fill:#8c0523;}.cls-23{fill:#260900;}.cls-24{fill:#a53213;}.cls-25{fill:#c3580a;}.cls-26{fill:#4d0500;}.cls-27{fill:#3f2e23;}.cls-28{fill:#912b18;}.cls-29{fill:#2d160f;}.cls-30{fill:#37231e;}.cls-31{fill:#ce6b35;}.cls-32{fill:#5b140b;}.cls-33{fill:#f9752b;}.cls-34{fill:#c44f31;}.cls-35{fill:#b65649;}.cls-36{fill:#2f1914;}.cls-37{fill:#430204;}.cls-38{fill:#552419;}.cls-39{fill:#542730;}.cls-40{fill:#3e1416;}.cls-41{fill:#7c2216;}.cls-42{fill:#331214;}.cls-43{fill:#311611;}.cls-44{fill:#f5bbbc;}.cls-45{fill:#fdd0d8;}.cls-46{fill:#ffc8d0;}.cls-47{fill:#f7b4af;}.cls-48{fill:#ffd1de;}.cls-49{fill:#fce5b5;}</style></defs><title>sweet-tart-tea</title><g id="Layer_2" data-name="Layer 2"><g id="Sweet_Tart" data-name="Sweet Tart"><g id="Sweet_Tart-2" data-name="Sweet Tart"><path class="cls-1" d="M303,180.55a113.27,113.27,0,0,0-12.52,35.89,2.11,2.11,0,0,0,.09,1.41,2.08,2.08,0,0,0,1.74.75c5.3.39,10.6-.7,15.71-2.16a107.5,107.5,0,0,0,32-15.27c2.31-1.62,4.72-3.57,5.29-6.33.82-3.9-2.37-7.5-5.75-9.6s-7.34-3.59-9.75-6.76c-1.08-1.41-1.78-3.1-2.95-4.44a8.41,8.41,0,0,0-9.31-2.16c-3,1.26-5,4.15-7.66,6a12.23,12.23,0,0,1-7.93,2"/><path class="cls-1" d="M344.06,189.48c8.19-3.9,17.57-4.23,26.64-4.49a15.91,15.91,0,0,0-7.06,11.64c-.19,2.06,0,4.15-.22,6.2-.32,2.74-1.43,5.33-1.84,8.06-.29,1.91-.23,3.9-.86,5.73s-2.22,3.54-4.15,3.47c-2.14-.07-3.59-2.15-5.46-3.18-2.08-1.16-4.68-1-6.82-2-2.45-1.2-3.9-3.75-5.07-6.21a21.48,21.48,0,0,1-2.41-7.83,8.78,8.78,0,0,1,2.9-7.38c1.5-1.18,3.42-1.66,5.18-2.4s3.53-1.92,4-3.76"/><path class="cls-1" d="M191.84,239.4a6.69,6.69,0,0,0-1.3,7.07,10.09,10.09,0,0,0,5.23,5.27c1.9.89,4.15,1.44,5.35,3.15.67,1,.92,2.14,1.58,3.09,1.36,2,4.12,2.44,6.48,2.06s4.56-1.45,6.92-1.89c4.34-.8,8.74.57,13.08,1.36a50.68,50.68,0,0,0,15.45.42,4.62,4.62,0,0,0,4.56-4.21c2.75-9.13.66-19-1.91-28.14a9.35,9.35,0,0,0-1.22-3,7,7,0,0,0-2.39-1.95c-7.14-3.86-15.88-.55-23.28,2.78l-32.57,14.65"/><path class="cls-1" d="M234.78,194.73c-1.33,1.59-2.75,3.66-1.93,5.55a5.59,5.59,0,0,0,1.84,2q8.53,6.66,17.55,12.65c2.46,1.63,5.05,3.27,8,3.72,3.91.6,7.91-1.07,10.9-3.65a33.56,33.56,0,0,0,7-9.47,121.2,121.2,0,0,0,8.48-19.07c1.07-3.09,2-6.3,1.82-9.56-.24-4.15-2.29-7.94-4.29-11.57a6.51,6.51,0,0,0-1.33-1.86,4.6,4.6,0,0,0-2.59-.95c-4-.38-7.74,2.29-10.49,5.28s-5.08,6.48-8.53,8.64-7.8,2.76-11.47,4.67c-7.18,3.75-11.09,12.14-18.34,15.75"/><path class="cls-1" d="M185.3,167.32c-2.6,2.1-3.2,6-2.33,9.19s2.92,6,4.93,8.67c2.26,3,4.58,6,7.68,8.17s7.18,3.17,10.67,1.78c3.7-1.47,6-5.29,9.62-6.94,2.2-1,4.95-1.28,6.34-3.25a16.85,16.85,0,0,0,1.4-3.45c1.53-3.69,5.65-5.54,8.11-8.69,2.77-3.54,3.19-8.35,3.22-12.85,0-2.42-.12-5-1.67-6.92A11,11,0,0,0,229,150.3l-10.91-4.82c-2.35-1-4.93-2.09-7.41-1.42-3.47.95-5.15,4.76-7.63,7.36-2.77,2.9-6.68,4.34-10.28,6.08s-7.27,4.15-8.63,7.92c-.86,2.38-.68,5-1.53,7.43"/><path class="cls-1" d="M22.64,286.14c-1.1,5.07,4.77,8.88,6.19,13.87,1,3.44-.25,7.21.74,10.64,1.26,4.36,5.62,6.9,9,10a26.35,26.35,0,0,1,8.31,19.92c-.07,2.23-.32,4.78,1.25,6.37A6.31,6.31,0,0,0,51,348.37a26.58,26.58,0,0,0,33.57-26c0-1.66-.18-3.41.6-4.87s2.52-2.42,3.71-3.7c3.43-3.69,2-9.78-.8-13.95s-6.81-7.66-8.53-12.39c-.83-2.32-1.22-5-3.17-6.52a6.75,6.75,0,0,0-3.55-1.18c-6.5-.6-12.49,3.25-18.81,4.85-8.23,2.08-16.86.32-25.3-.57-1.91-.2-3.95-.33-5.62.61s-2.62,3.37-1.38,4.83"/><path class="cls-1" d="M71.7,344.57c-1.78,9.49,8.57,17.38,8.94,27,.06,1.63-.16,3.32.42,4.85a9.59,9.59,0,0,0,2.21,3.08,32.32,32.32,0,0,0,7,6.14,11.17,11.17,0,0,0,9,1.33c3.41-1.14,5.69-4.34,7.22-7.58s2.58-6.76,4.69-9.67c2.28-3.14,5.72-5.46,7.31-9,.91-2,1.14-4.28,1.88-6.37,1.44-4,4.66-7.12,7-10.68s3.87-8.41,1.56-12c-1.06-1.66-2.78-2.79-3.88-4.42-2.27-3.33-1.57-8-3.78-11.39-2.1-3.21-6.4-4.36-10.21-3.91s-7.33,2.2-10.87,3.68-7.38,2.74-11.17,2.14a21.31,21.31,0,0,0-4.32-.66c-4.23.2-6.71,4.75-8.19,8.72a163.63,163.63,0,0,0-6.87,23.88"/><path class="cls-1" d="M226.84,341.82c-1.31-.56-2.87.38-3.51,1.65a8.63,8.63,0,0,0-.55,4.2,3.6,3.6,0,0,0,.5,2.05c.56.75,1.61.93,2.42,1.42,1.55.93,2.18,2.95,3.72,3.91a4.3,4.3,0,0,0,4.78-.43,6.89,6.89,0,0,0,2.39-4.38c.17-1,.23-2.18,1-2.88a2.94,2.94,0,0,1,1.08-.6c2.31-.8,5-.49,7-1.94a1.59,1.59,0,0,0,.55-.66c.26-.75-.54-1.42-1.25-1.75a20.06,20.06,0,0,0-8-1.32q-5.4-.07-10.79.33c-.71.06-1.64.33-1.64,1.05"/><path class="cls-1" d="M341.66,211.5c-.34,5-.67,10.14.23,15.11s3.18,9.87,7.19,12.94c2.42,1.86,5.49,3.1,7,5.73a12.76,12.76,0,0,1,1.34,5.07c.72,6.32,1.49,13.53,6.65,17.26a18.48,18.48,0,0,0,5.07,2.36,68.72,68.72,0,0,0,12.51,2.86,2.7,2.7,0,0,0,1.69-.16,2.53,2.53,0,0,0,.94-2.06c.64-6.82-3.05-13.43-8-18.19s-11-8.07-16.82-11.75c-1.83-1.16-3.71-2.46-4.66-4.41-1.3-2.69-.49-5.87-.72-8.85a12.56,12.56,0,0,0-17-10.8"/><path class="cls-1" d="M345.08,73.84c4.32-7.32,15.09-9.83,22.2-5.18a31.75,31.75,0,0,1,6.87,6.87l10.67,13.14a110.7,110.7,0,0,0,9,10.21c3.66,3.54,8.09,7.06,8.79,12.11a3.06,3.06,0,0,1-.11,1.59,3.67,3.67,0,0,1-1.49,1.51c-7.85,5.31-16.36,10.83-25.83,10.67a5,5,0,0,1-3.36-1,5.49,5.49,0,0,1-1.31-2.57c-3.19-10.61-5.71-22.17-13.73-29.82-2.77-2.64-6.1-4.69-8.58-7.6s-4-7.13-2.38-10.58"/><path class="cls-1" d="M142.37,146.09a52.7,52.7,0,0,0-10.52,6.76c-3.11,2.79-5.6,6.48-6.12,10.63a7.08,7.08,0,0,0,.25,3.3c1,2.8,4.33,4.05,7.3,4.19,7.08.35,13.67-3.48,19.36-7.71s11.14-9.09,17.85-11.37c3.69-1.26,7.71-1.71,11.08-3.69,2.21-1.3,4.16-3.26,6.69-3.69a6.17,6.17,0,0,1,6.78,4.55,45.43,45.43,0,0,0,13.27-24.81,5.59,5.59,0,0,0-.13-3.22,5.45,5.45,0,0,0-2.1-2.08,49.37,49.37,0,0,0-10-5.13c-7.16-2.69-14.83-3.68-22.42-4.65a2,2,0,0,0-1.46.2,1.67,1.67,0,0,0-.5.86c-1.44,4.57,1.88,10-.53,14.13-1.27,2.17-3.75,3.26-6,4.39-6.11,3.1-11.47,7.45-16.78,11.77a48,48,0,0,0-7.94,7.52"/><path class="cls-1" d="M24.18,180.37a8.25,8.25,0,0,0-4,2c-3.41,3.3-2.56,8.88-1.45,13.49a5,5,0,0,0,1.48,3c2,1.56,4.74-.59,6.74-2.2a18.37,18.37,0,0,1,10.94-4.07c2.44-.07,4.89.34,7.34.26,4.64-.15,9-2.07,13.26-4a15.84,15.84,0,0,0,5.26-3.22c.89-.94,1.54-2.09,2.48-3,1.91-1.77,4.66-2.18,7.18-2.84,7.26-1.91,13.49-6.48,19.52-11l7.81-5.77c2.27-1.69,4.82-4,4.22-6.8l-30,7.33a24.62,24.62,0,0,0-5.57,1.85,53,53,0,0,0-5.26,3.7c-4.78,3.29-10.63,4.58-16.3,5.8l-25.77,5.54"/><path class="cls-1" d="M63,132.81c.34,3.3.66,6.76-.59,9.83-.56,1.37-1.41,2.61-2,4A23.48,23.48,0,0,0,59,153.32c-.22,1.88-.4,3.94.65,5.51,2.05,3,7.31,2.27,9.44,5.27,1,1.36,1.06,3.25,2.23,4.43,1.65,1.64,4.43,1.05,6.55.09,1.86-.84,3.73-2,4.56-3.86a9.73,9.73,0,0,0,.45-4.59q-.42-6.12-1.23-12.19c-.5-3.75-1.23-7.73-3.86-10.45a34.67,34.67,0,0,0-4.91-3.64c-1.43-1-2.72-2.25-4.23-3.15a6.68,6.68,0,0,0-5-1,3.61,3.61,0,0,0-2.72,3.94"/><path class="cls-1" d="M9.08,146.08c-4.61,3-4.91,9.63-4.31,15.13a10.49,10.49,0,0,1,0,3.49,16.77,16.77,0,0,1-1,2.55c-2.49,6-.48,12.85,1.54,19A8.14,8.14,0,0,0,7,189.53a7.37,7.37,0,0,0,4.26,1.78,34.46,34.46,0,0,0,6.09.42,7.12,7.12,0,0,0,4.33-1.13c1.28-1,1.82-2.65,2.31-4.19,1.59-5,3.69-10.36,8.24-13,1.11-.64,2.39-1.14,3.07-2.23a4,4,0,0,0-.44-4.32A11.71,11.71,0,0,0,31.27,164c-5.75-3.48-11.9-7.43-14.17-13.76-.47-1.3-.81-2.75-1.87-3.64a5.3,5.3,0,0,0-2.83-1,17.79,17.79,0,0,0-7.25.65"/><path class="cls-1" d="M24,96.86c-3.58,1.41-7.78,3.66-7.84,7.52,0,2.28,1.54,4.33,3.46,5.57a11.05,11.05,0,0,0,10.32.77c1.72-.77,3.2-2,4.88-2.81,5-2.51,11.86-2,15.21-6.44a15.1,15.1,0,0,0,2.23-6.32l1.47-7.58a2.65,2.65,0,0,0,0-1.25A2.45,2.45,0,0,0,52.54,85c-2.85-1.77-6.33-2.1-9.62-2.81s-6.76-2.08-8.36-5a5.85,5.85,0,0,0-.68-1.13c-1.27-1.43-3.86-.24-4.48,1.57s0,3.78.38,5.65a25.35,25.35,0,0,1,.47,7.32A4.85,4.85,0,0,1,29.54,93a5.26,5.26,0,0,1-1.81,1.38l-6.45,3.54"/><path class="cls-1" d="M76.53,51a15.17,15.17,0,0,0-2,5.1,5.14,5.14,0,0,0,1.81,4.93c1.85,1.28,4.59.76,6.31,2.22S84.16,67.6,85,69.8c2.14,5.61,10.18,5.74,14.65,9.75,2.63,2.35,4.45,6.31,8,6.52a5.9,5.9,0,0,0,5.06-2.91,15.39,15.39,0,0,0,1.92-5.76,176,176,0,0,0,2-22.71c.13-2.83.23-5.79-1-8.33-2.29-4.65-8.56-6.78-9.77-11.82-.38-1.56-.23-3.32-1.2-4.6a5.58,5.58,0,0,0-4.05-1.75c-3.53-.36-7.6.39-9.56,3.35-1.23,1.85-1.42,4.24-2.63,6.1a14.94,14.94,0,0,1-3.34,3.2A44.09,44.09,0,0,0,74.64,53"/><path class="cls-1" d="M106.35,24a29.51,29.51,0,0,0-1.78,5.56,2.33,2.33,0,0,0,0,1.2,2.43,2.43,0,0,0,1.19,1.13l10.78,6.23c2.2,1.26,4.63,2.58,7.13,2.14,3-.52,5-3.35,6.44-6a62.85,62.85,0,0,0,5.6-13.74,2.49,2.49,0,0,0,0-1.7,2.2,2.2,0,0,0-1.19-1c-2.8-1.24-6-.91-9-.18s-5.86,1.85-8.9,2.14c-2.72.26-5.53-.14-8.14.65s-5,3.4-4.24,6"/><path class="cls-1" d="M157.64,41.46a38.6,38.6,0,0,0,.87,13.71c.72,2.93,1.94,6,4.46,7.62,4.32,2.84,11.27.91,14.24,5.14,1.43,2,1.33,4.92,2.91,6.85,1.94,2.36,5.48,2.36,8.32,3.5,3.15,1.27,5.43,4,8,6.21s6,4.09,9.24,3.12c3.57-1.07,5.38-5.13,5.73-8.85s-.31-7.52.47-11.16a4.63,4.63,0,0,0,.14-2.52c-1.06-2.87-6.29-.36-8.23-2.73-1.36-1.67.11-4.07,1.34-5.84a11.92,11.92,0,0,0,2.33-5.58,5.72,5.72,0,0,0-2.32-5.34c-2.68-1.69-7-.49-8.71-3.13-.82-1.24-.7-2.91-1.48-4.18-1.22-2-4-2.14-6.3-2.08l-19.17.5a27.07,27.07,0,0,0-8,1,9.15,9.15,0,0,0-5.86,5.21"/><path class="cls-1" d="M199.23,27.53c-2.78,1.12-3.7,4.58-3.85,7.57a10,10,0,0,0,1,5.6c2.59,4.38,9.33,3.65,13.35,6.78a12.92,12.92,0,0,0,2.69,2c1.51.64,3.23.18,4.77-.37a40.67,40.67,0,0,0,5.49-2.42C225.8,45,229,42.5,229.32,39a3.62,3.62,0,0,0-1.76-3.67,12.07,12.07,0,0,0-2.83-.38c-3.49-.59-4.87-5-8-6.71a10.34,10.34,0,0,0-4.37-1,57.77,57.77,0,0,0-10.68.24c-1.93.22-4.2.81-4.83,2.65"/><path class="cls-1" d="M130,74.12c-1.48-2.16-1.12-5.15.05-7.49s3-4.27,4.55-6.4c3.58-5,5.83-11.54,11.39-14.15a7,7,0,0,1,5.86-.28c2.17,1.06,3.27,3.5,4,5.8a54.27,54.27,0,0,1,2.7,15,8.27,8.27,0,0,0,.86,4.25c1.5,2.36,4.85,2.38,7.65,2.46s6.29,1.18,6.54,4c.17,1.91-1.38,3.54-3,4.55a15.05,15.05,0,0,1-7.91,2.27c-2.64,0-6.1-.23-7.07,2.23-.83,2.1.79,5.29-1.22,6.35a3.56,3.56,0,0,1-2.1.15c-4.79-.63-10.09-1.54-13.08-5.35a31.77,31.77,0,0,1-2.52-4.35,23.72,23.72,0,0,0-9.42-9.32"/><path class="cls-2" d="M102.47,99.13,100,124.52a4.14,4.14,0,0,0,.52,3.11c.6.72,1.62.94,2.37,1.51,2.8,2.07.53,6.62,1.6,9.93,1.23,3.82,6.39,4.63,10.26,3.61s7.61-3.2,11.61-2.81c2.86.28,5.47,1.86,8.34,2.13,3.75.36,7.3-1.57,10.58-3.44,4.43-2.51,8.91-5.08,12.46-8.72a26,26,0,0,1,3.16-3c2.07-1.49,4.73-2,6.67-3.67a7.69,7.69,0,0,0-.37-11.49c-1.8-1.34-4.07-1.78-6.16-2.58s-4.21-2.22-4.66-4.41c-.16-.77-.09-1.58-.31-2.33-.75-2.65-4.23-3.2-7-3.12s-6.17-.12-7.33-2.62c-.76-1.64-.14-3.56-.26-5.36-.38-5.32-6.57-7.79-10.48-11.42-2.17-2-4-4.72-6.81-5.5s-6,.78-8.39,2.76a24.85,24.85,0,0,0-6.27,8c-3,6.11-3.6,13.51-8,18.68"/><path class="cls-2" d="M136.1,11.19A11.53,11.53,0,0,0,139.72,23c2.34,2,5.58,3.08,6.89,5.83.76,1.61.69,3.47,1,5.23.7,4.68,5.12,9.25,9.68,8,1.61-.44,3-1.52,4.48-2.23,4-1.88,8.65-1.1,13.06-1.31s9.51-2.2,10.39-6.52c.85-4.13-2.56-7.73-5-11.17A28.5,28.5,0,0,1,175,5.45c-2.71-.65-5.51-1.3-8.27-.87-2.94.45-5.55,2.08-8.06,3.66L152,12.45a5.82,5.82,0,0,1-2,.92,6,6,0,0,1-2.82-.36l-8-2.37a7.62,7.62,0,0,0-3.45-.48,2.63,2.63,0,0,0-2.32,2.26"/><path class="cls-2" d="M211.7,11.58c-3.9,3.09-7.32,7.15-8.39,12s.7,10.57,5.06,13a15.8,15.8,0,0,0,6.4,1.61,46.91,46.91,0,0,0,14.56-1.09c3.56-.84,7.07-2.11,10.72-2.15s7.3,1.16,10.94.77c2.48-.27,4.83-1.26,7.29-1.67,5.35-.9,10.8,1,16.22.72A8.55,8.55,0,0,0,279.79,33c1.43-1.26,2.07-3.54,1-5.12-.58-.85-1.53-1.37-2.18-2.17-2.15-2.63-.08-6.73-1.27-9.92C276,12.05,271,11.33,267,12s-8.18,1.94-11.73.12a2.78,2.78,0,0,1-1.51-1.54c-.25-.87.23-1.78.27-2.68.1-2.61-3.24-3.93-5.83-3.66s-5.29,1.35-7.72.4c-1.53-.6-2.66-1.91-4-2.9C234.38.06,231.23-.71,229,.84c-1.85,1.29-2.46,3.73-3.93,5.43-1.77,2-4.57,2.77-7.23,3.14S212.45,9.89,210,11s-4.46,3.72-3.94,6.35"/><path class="cls-3" d="M226.69,45.76a45.38,45.38,0,0,0,.65,24.57,3.28,3.28,0,0,0,.63,1.3,3,3,0,0,0,1.37.74c6.1,1.85,13.75-1.78,18.56,2.4a14.58,14.58,0,0,1,3,4.32l6.74,12.79a4.71,4.71,0,0,0,1,1.46,4.29,4.29,0,0,0,2.13.77,31.16,31.16,0,0,0,15.43-1.43,5.08,5.08,0,0,0,4.08-5.23A30.42,30.42,0,0,0,272.56,64c-3.17-3.45-7.26-6.34-8.86-10.74a24.84,24.84,0,0,0-1.56-4.44c-1.87-3.17-6-3.87-9.49-5.14-6-2.19-11.19-6.94-17.54-7A9.44,9.44,0,0,0,230,38.08c-3.6,2.27-4.69,7.15-4.05,11.36"/><path class="cls-4" d="M273.82,66.71c-.45-4.5,3.82-8.29,8.24-9.28s9,0,13.51.33a10.47,10.47,0,0,1,4.24.86c2,1.07,2.92,3.41,3.05,5.64a38.17,38.17,0,0,1-.69,6.64,2.54,2.54,0,0,0,.13,1.52,2.21,2.21,0,0,0,1.38.92c2,.59,4.14.22,6.17.62s4.16,2.13,3.73,4.16-2.72,2.69-4.56,3.46c-8.22,3.49-11.54,13.36-18.34,19.15-5.63,4.8-13.21,6.44-20.46,7.93-1.94.4-4.37.61-5.5-1-1.26-1.82.2-4.23,1.61-5.93l8.21-9.91c1.95-2.36,3.95-4.8,4.88-7.72,2-6.35-1.54-13.22-6.2-18"/><path class="cls-5" d="M327,90a20.64,20.64,0,0,0-2.58,10,4.84,4.84,0,0,0,.39,2.2,12.23,12.23,0,0,0,1.9,2.18c2,2.41,1.34,6.08,2.7,8.9,1,2.09,3,3.49,4.93,4.75q4.74,3.1,9.7,5.89c2.62,1.46,5.56,2.91,8.49,2.27s5.12-3.32,7-5.8l4.19-5.66c1.87-2.53,3.85-5.44,3.36-8.56-.62-4-4.88-6.2-8.77-7.13s-8.19-1.27-11.21-3.9c-2.33-2-3.51-5.09-5.77-7.18A9.74,9.74,0,0,0,325.15,93"/><path class="cls-6" d="M289.63,110.47l2.29-6a2.91,2.91,0,0,1,1.33-1.81,2.84,2.84,0,0,1,2.2.31,61.24,61.24,0,0,1,13.77,8.45,7.86,7.86,0,0,1,2.44,2.76c.69,1.56.39,3.36.07,5-1.23,6.36-2.61,12.84-5.9,18.42s-8.88,10.2-15.34,10.67a7.08,7.08,0,0,1-2.86-.28,10.6,10.6,0,0,1-3.27-2.3,35.68,35.68,0,0,0-24.51-8.83c-1.79,0-3.86.13-5-1.22-1.28-1.5-.65-3.78.11-5.59,1.24-3,2.74-5.94,5.18-8,8.09-6.91,21.46-1,30.71-6.22a5.29,5.29,0,0,0,1.92-1.65c1.63-2.56-.84-5.71-3.11-7.73"/><path class="cls-7" d="M294.46,153.45c.09,2.06-3.48,3.62-2.31,5.32a3.54,3.54,0,0,0,1.51.93c3.1,1.44,3.84,5.5,3.77,8.92a43.93,43.93,0,0,1-1.59,10.81c10.1.66,20.11-6.9,22.24-16.8,3-1.2,6.1,2.16,9.33,1.88a8,8,0,0,0,3.36-1.38,58,58,0,0,0,7.86-5.81,28.41,28.41,0,0,1-6.67-3.87c-2.87-2.48-4.87-6.22-8.47-7.42-1.42-.47-3-.49-4.31-1.21s-2.2-2.61-1.2-3.72c-6.61-.32-12.68,3.34-18.28,6.88-3.12,2-6.35,4.05-8.23,7.22"/><path class="cls-8" d="M372.5,187a15.61,15.61,0,0,0,12.22,8.73,6.26,6.26,0,0,1,3.24.83c1.26,1,1.38,2.79,1.28,4.37-.27,4.27-1.6,8.83-5.07,11.32a5.45,5.45,0,0,1-3.53,1.16c-2.42-.21-4-2.56-6.16-3.72-2.5-1.35-6.08-1.32-7.34-3.87a6.34,6.34,0,0,1-.5-2,32.16,32.16,0,0,1,.59-11.19,8.74,8.74,0,0,1,1.61-3.73,3.63,3.63,0,0,1,3.65-1.33"/><path class="cls-9" d="M320.57,220.76a8.9,8.9,0,0,1,6.13-7.29c.92-.27,1.89-.4,2.78-.76,1.92-.8,3.19-2.6,4.37-4.31l5.1,4.12a5.33,5.33,0,0,1,1.55,1.66,5.45,5.45,0,0,1,.38,2.38l.05,8.94c0,1.9,0,3.9-1,5.53s-2.9,2.73-4.07,4.34a39.56,39.56,0,0,0-2.09,4.23c-.76,1.38-2.1,2.67-3.67,2.56-2-.13-3.29-2.3-5.24-2.55-1.32-.18-2.57.58-3.79,1.11s-2.82.81-3.77-.13a3.39,3.39,0,0,1-.81-1.94,21.21,21.21,0,0,1,.7-7.83A118.4,118.4,0,0,1,320.94,218"/><path class="cls-9" d="M355.89,245.89a37.08,37.08,0,0,0-9.74,3.86c-4.39,2.56-8.1,6.12-11.76,9.65a6.92,6.92,0,0,0-2.24,3.21c-.71,3.17,3,5.41,4.61,8.22.93,1.6,1.22,3.52,2.23,5.07,1.33,2.05,3.7,3.14,5.94,4.13l6.32,2.77c2.59,1.14,6,2.16,8,.17,1.26-1.25,1.41-3.19,1.49-5l.7-15.48c.16-3.46.3-7-.91-10.26s-4.12-6.11-7.58-6.15"/><path class="cls-10" d="M320.44,315.33c-1.4,1.9-1.75,4.43-3.23,6.27-1.37,1.69-3.77,3.1-3.44,5.24.41,2.61,4.4,2.94,5.59,5.3a10.69,10.69,0,0,0,1,2.32,3.5,3.5,0,0,0,1.46.87A21.39,21.39,0,0,0,340,333.74a5.21,5.21,0,0,0,2.09-1.91,5.65,5.65,0,0,0,.48-2.11,11.38,11.38,0,0,0-.57-5.38,13.43,13.43,0,0,0-2.11-3.18,24.43,24.43,0,0,0-5.73-5.66,20.11,20.11,0,0,0-8-2.5,8.88,8.88,0,0,0-4.75.27c-1.48.63-2.64,2.29-2.17,3.83"/><path class="cls-11" d="M320.64,336.51c-2.09,1.3-4.05,3.25-4.25,5.71a10.06,10.06,0,0,0,1,4.34L321.81,358a4.41,4.41,0,0,0,1.33,2.1c1.41,1,3.35.09,5.09,0,4.4-.2,7.82,5.22,12.14,4.4,2.78-.52,4.36-3.34,5.95-5.68a28.32,28.32,0,0,1,9.24-8.55,6.55,6.55,0,0,0,1.72-1.22,4.43,4.43,0,0,0,.92-2.1,9.88,9.88,0,0,0-2.47-8.65c-2.86-3-7.28-3.88-11.4-4.41-3.35-.44-6.72-.77-10.09-1-6-.39-12.86-.08-16.82,4.45"/><path class="cls-12" d="M351.5,315c-4,0-7.32,4.61-6,8.41,1,2.91,4,4.68,6.88,5.73a12.22,12.22,0,0,0,3.07.76c1.9.16,4.17-.28,5.43,1.15s.73,3.45,1.77,4.85a3.63,3.63,0,0,0,4,1,8.47,8.47,0,0,0,3.49-2.51,28,28,0,0,0,6.56-11.91,5.58,5.58,0,0,1,1.25-2.77c1.17-1.1,3.38-1.14,3.87-2.67.29-.92-.24-1.9-.18-2.86.24-3.65,7.51-2.83,8.07-6.45.24-1.5-.95-2.83-2.1-3.82a26.48,26.48,0,0,0-12-6.3,15.76,15.76,0,0,0-12.93,2.86c-3.89,3.2-5.78,8.56-10.15,11.07-2.29,1.31-5.56,2.32-5.66,5"/><path class="cls-13" d="M337.88,282c-7.9,3-8.73,14.93-16.24,18.78-1.93,1-4.67,2.17-4.17,4.29.28,1.17,1.53,1.82,2.68,2.2,3.92,1.33,8.14,1.42,12.28,1.5,7.72.14,15.6.27,23-2a72.73,72.73,0,0,0,9.37-3.87l10.47-4.9a4,4,0,0,0,2.13-1.68c.87-1.86-1.35-3.68-3.31-4.29s-4.42-1.3-4.83-3.32c-.36-1.82,1.28-3.42,1.6-5.25.45-2.64-1.85-4.87-3.93-6.56-2.6-2.1-5.41-4.29-8.74-4.59-2.42-.22-4.8.59-7.09,1.4-6,2.12-12.75,4.88-15,10.86"/><path class="cls-13" d="M330.2,265.41c-3.38-.21-6.35,2.08-8.91,4.3-1.8,1.55-3.77,3.66-3.19,6,.49,2,2.59,3,4,4.5,1,1.1,1.76,2.56,3.11,3.25a4.73,4.73,0,0,0,4-.1,16.8,16.8,0,0,0,3.44-2.3,7.24,7.24,0,0,1,2.36-1.39c1.55-.46,3.34.05,4.77-.71,1.63-.87,2.1-3.1,1.53-4.86a12,12,0,0,0-3.19-4.44c-2.36-2.39-5.22-5-8.55-4.58-.48.06-1.05.29-1.1.77"/><path class="cls-14" d="M284.71,344.18l-3-1.95c-.85-.57-2-1.13-2.83-.53a2.59,2.59,0,0,0-.75,2.07,14.75,14.75,0,0,0,.52,6c1.41,3.74,5.68,5.91,6.84,9.74.89,2.89-.22,6.08.59,9,1.06,3.77,4.88,5.92,7.65,8.67,3.2,3.19,5.19,7.93,4,12.28a7.25,7.25,0,0,0-.45,2.18c.06,1.89,2.17,3.17,4,3.07a10.74,10.74,0,0,0,5.13-2.24c5.25-3.5,10.83-7.43,12.8-13.42,1.44-4.36.69-9.1,1.11-13.66.49-5.29,2.45-11.07-.35-15.58-2.34-3.78-7.13-5.09-11.5-5.9-3.89-.73-7.82-1.32-11.76-1.76-5.09-.57-11-.56-14.31,3.38"/><path class="cls-15" d="M234.12,365.19a26.14,26.14,0,0,0-7.86,3.76c-1.49,1.06-3,2.76-2.41,4.48.93,2.6,5,1.66,7.22,3.29s1.81,4.62,1.34,7.13c4.82-.5,8.27-4.66,11.72-8.07s8.59-6.44,12.89-4.22c3.33,1.73,5.11,6.21,8.84,6.64s6.32-3.35,9.72-4.76c2.87-1.19,6.81-1,8.17-3.82.71-1.46.36-3.19-.06-4.76-1.11-4.18-2.6-8.37-5.29-11.76s-6.74-5.93-11.07-5.89c-2.1,0-4.37.78-5.43,2.59-1.33,2.27-.56,5.75-2.76,7.2a5.7,5.7,0,0,1-2.89.67l-12.59.61c-3,.15-6.07.32-8.74,1.66s-4.82,4.19-4.39,7.14"/><path class="cls-16" d="M236.62,380.5a19.48,19.48,0,0,0-1.38,8c0,1.33.32,2.81,1.4,3.59a4.81,4.81,0,0,0,1.93.69c6.42,1.18,13.11.6,19.43,2.25,3.78,1,7.88,2.73,11.4,1,3.16-1.55,4.49-5.37,4.85-8.88.34-3.28-.19-7.12-3-8.91a14.49,14.49,0,0,0-4.15-1.44c-6.71-1.82-13-6.93-19.79-5.46-4,.86-7.16,3.89-9.76,7.05-1.28,1.56-2.55,3.37-2.44,5.38"/><path class="cls-17" d="M218.68,376.35c-3.11,2.45-6.57,6-5.4,9.74a12.3,12.3,0,0,0,2.33,3.63,27.38,27.38,0,0,1,3.81,6.64c1.2,3,1.81,6.59.11,9.34-1.06,1.72-2.85,2.84-4.16,4.38s-2.05,4-.71,5.5c1,1.09,2.55,1.24,4,1.32l16,.91c3.73.21,8,.24,10.58-2.46,2.44-2.54,2.62-6.79,5.38-9,2.57-2,6.79-1.77,8.5-4.57,1.52-2.49-.21-5.92-2.76-7.35s-5.61-1.47-8.52-1.72c-5.17-.43-11-2.21-13-7-.52-1.26-.74-2.64-1.38-3.84a10.92,10.92,0,0,0-1.69-2.2c-2.32-2.51-5.05-4.89-8.4-5.63s-7.37.7-8.55,3.91"/><path class="cls-18" d="M204.18,367.41c-1.69.91-3.84.41-5.6,1.17a5.16,5.16,0,0,0-2.87,4.41,8.94,8.94,0,0,0,1.51,5.23c2.35,3.79,6.82,6.4,11.25,5.85a13.32,13.32,0,0,0,8.26-4.85,35.54,35.54,0,0,0,5-8.41,7.83,7.83,0,0,1,1.86-2.85,26.12,26.12,0,0,1,3.21-1.75c2.37-1.5,3.19-4.5,3.83-7.23.42-1.76.74-3.88-.54-5.15a5.42,5.42,0,0,0-3.37-1.14c-2.14-.21-4.84-.13-5.76,1.82a8.14,8.14,0,0,0-.39,2.84,7.9,7.9,0,0,1-5.74,6.85c-3.15.81-6.76-.36-9.57,1.29-1.71,1-2.71,2.84-3.64,4.59-.16.31-.29.74,0,.95s.51-.52.19-.38"/><path class="cls-19" d="M178.93,373a16.81,16.81,0,0,1-7.78-14.75c.12-2.64.88-5.26.72-7.9a6.71,6.71,0,0,1,.08-2.41,3.89,3.89,0,0,1,2.86-2.27c4-1.07,8.1,1.07,11.69,3.14,3.28,1.88,6.74,4,8.33,7.39a18.28,18.28,0,0,1,1.29,5.47,4.74,4.74,0,0,1,0,1.68c-.31,1.28-1.62,2-2.8,2.61l-15.67,7.82-1.34.67"/><path class="cls-19" d="M188.16,325.82a13.75,13.75,0,0,0,1.47,15.7c1.56,1.77,3.61,3.15,4.77,5.2a17.89,17.89,0,0,0,1.19,2.15c2,2.71,6.37,1.89,9.29.15,2.53-1.51,4.85-3.65,5.69-6.46s-.25-6.34-2.95-7.5c-1.16-.5-2.48-.53-3.66-1s-2.31-1.59-2.05-2.82a3.16,3.16,0,0,1,1.16-1.61c2.69-2.29,6.51-3.68,7.74-7,.38-1,.46-2.17.9-3.18,1.16-2.7,4.59-4,5.47-6.81a5.68,5.68,0,0,0-1.86-5.67,12.3,12.3,0,0,0-5.67-2.57c-2.85-.63-6.17-.73-8.29,1.27-1.94,1.83-2.19,4.76-3.06,7.28a1.72,1.72,0,0,1-.72,1.06,2.31,2.31,0,0,1-1.28.07c-3.36-.36-6.41,2.38-7.57,5.54s-.87,6.65-.57,10"/><path class="cls-20" d="M177.61,273.59a12.07,12.07,0,0,0-4.3,3.36c-1,1.51-1.24,3.76,0,5.07s3.45,1.22,5,2.25,2.18,3.3,2.21,5.29-.31,4,.15,5.94,2.06,3.81,4,3.7c2.52-.14,4.34-3.32,6.81-2.84,2.85.54,2.78,4.95,5.1,6.69a4.62,4.62,0,0,0,2.81.8c3.62-.06,6.66-3.1,7.85-6.52s.94-7.16.63-10.77q-.79-9.12-1.9-18.22a12.83,12.83,0,0,0-1-4.08c-1.09-2.23-3.36-3.61-5.56-4.74-2.84-1.46-6.1-2.72-9.14-1.79-2.53.77-4.37,2.9-6.06,4.93l-10.74,12.86"/><path class="cls-21" d="M156.87,241.69c3.5.42,5.92,3.76,7.13,7.08s1.71,6.94,3.6,9.93c.93,1.47,2.19,2.77,2.77,4.41.74,2.1.29,4.55,1.37,6.5.94,1.71,2.86,2.65,4,4.24,2.54,3.56.42,9,3,12.58.93,1.26,2.34,2.07,3.39,3.23,2.44,2.71,2.48,7,1,10.28s-4.23,5.9-7,8.24q-3.44,2.86-7.1,5.45c-4.14,2.91-9.22,5.63-14,4.06-4-1.29-6.45-5.11-8.62-8.66-1.51-2.47-3.05-5-3.36-7.93a11.63,11.63,0,0,0-.45-3.18c-.69-1.74-2.53-2.67-4.2-3.49-4.57-2.23-9.38-5.23-10.77-10.11-.8-2.81-.33-5.88-1.26-8.65-1.82-5.4-8-7.66-12.91-10.57-1-.58-2.06-1.48-1.86-2.61.16-.93,1.13-1.46,2-1.86l19.47-9a14.15,14.15,0,0,1,3.92-1.36c3.11-.44,6.77,1.06,9.15-1,1.38-1.19,1.74-3.17,2.71-4.72,2.27-3.61,8.32-3.85,10.87-.43"/><path class="cls-22" d="M161.68,223.22c-1.24,3.85-5.39,6.57-5.57,10.61a2.05,2.05,0,0,0,.27,1.27,2.52,2.52,0,0,0,1.25.82,40.17,40.17,0,0,0,25.06,1.16,19.19,19.19,0,0,0,7.31-3.53,9.55,9.55,0,0,0,3.63-7.05c0-2.63-1.33-5.11-1.38-7.74A23.3,23.3,0,0,1,193,214a50.36,50.36,0,0,0,.51-11.58,17.41,17.41,0,0,0-13.73,4c-2.39,2.07-4.2,4.79-6.76,6.66-2.76,2-6.2,2.9-9.14,4.64s-5.56,5-4.81,8.31"/><path class="cls-23" d="M128,219a6.89,6.89,0,0,0,5.12,5.89c1.79.42,3.74.11,5.43.83,2,.83,3.12,2.82,4.7,4.25a10,10,0,0,0,12.79.18c2-1.77,3.26-4.3,4.71-6.6a33.42,33.42,0,0,1,12.11-11.45c2.71-1.5,5.9-2.9,6.94-5.82.92-2.54-.16-5.46.72-8,.44-1.28,1.36-2.44,1.37-3.8a5,5,0,0,0-1.3-3c-1.78-2.31-4.11-4.15-5.84-6.5s-2.84-5.5-1.7-8.18a3.67,3.67,0,0,0,.59-2.25c-.25-1-1.43-1.37-2.43-1.58l-14.24-3c-2.93-.63-6.06-1.24-8.86-.18-2.34.89-4.09,2.81-6,4.42a27.64,27.64,0,0,1-12.67,6c-4.39.82-8.95.56-13.32,1.51s-8.82,3.53-10.12,7.81a3.74,3.74,0,0,0-.09,2.36c.6,1.73,2.77,2.2,4.4,3.05,4.32,2.24,5.5,7.93,9.08,11.21,2.12,2,5.1,3.06,6.55,5.55,2.44,4.19-.49,10.51,3,13.91"/><path class="cls-24" d="M207.75,195.14c-.86.78-.43,2.17-.06,3.27,1.85,5.41.69,11.36-.9,16.84a3.08,3.08,0,0,0-.1,2.21,2.87,2.87,0,0,0,1.37,1.17c6.49,3.37,14.15,3.37,21.47,3.3a13.76,13.76,0,0,0,5.39-.78c3.09-1.35,4.78-4.9,4.73-8.27s-1.55-6.54-3.4-9.36c-5.83-8.92-16.18-15.42-26.8-14.42a3.35,3.35,0,0,0-2.43,1,3.67,3.67,0,0,0-.52,2.32l.05,7.38"/><path class="cls-25" d="M191.42,185.86c-3,9.51,3.29,19.68,2.09,29.6a64,64,0,0,1-1.52,6.93,3.57,3.57,0,0,0,0,2.12c.46,1.13,1.89,1.5,3.11,1.51,4.58,0,8.82-3,11.09-7s2.83-8.73,2.52-13.3a18,18,0,0,0-1.08-5.49,22.51,22.51,0,0,0-2.19-4L202,191c-1.06-1.64-2.19-3.37-3.94-4.26a11.12,11.12,0,0,0-4.45-.88c-1.52-.09-3.68.46-3.43,2"/><path class="cls-26" d="M71.63,180c1.53,3.43,6.13,3.77,9.68,5,5,1.73,8.78,6,13.85,7.52,7.07,2.06,14.86-2.26,18.7-8.55a10.59,10.59,0,0,1,2.19-3c1.89-1.53,4.6-1.24,7-1.52s5.23-2,4.75-4.42a4.83,4.83,0,0,0-1.14-2,21.66,21.66,0,0,0-4.44-4,6.69,6.69,0,0,1-2.17-1.88c-1.15-1.89.15-4.35,1.76-5.87s3.65-2.78,4.42-4.86c1-2.78-.78-6-3.37-7.45s-5.72-1.53-8.68-1.36-6,.55-8.88-.1a39.25,39.25,0,0,0-4.83-1.22c-4.39-.44-8.28,2.86-10.88,6.43a4.35,4.35,0,0,0-1.09,2.69c.07,1.32,1.21,2.29,2,3.34,2.34,3.1,1.87,7.68-.26,10.92s-5.6,5.36-9.13,6.95-7.27,2.79-10.63,4.74"/><path class="cls-27" d="M11.34,213.13c-3.11,1.72-6.3,3.5-8.59,6.21S-.79,226,.55,229.23c1,2.35,3.08,4.08,4,6.44a24.3,24.3,0,0,1,.91,5.2c1,6.66,5.93,12.43,6,19.17a10.49,10.49,0,0,0,.39,4,6.09,6.09,0,0,0,2.88,2.72,15.15,15.15,0,0,0,16.62-1.88c5.61-4.87,6.74-13.06,6.86-20.49.1-6.17-.55-13-5.11-17.19-3.58-3.25-8.88-4.13-12.29-7.55-2-2-3.19-4.71-5.33-6.54s-6-2.24-7.37.22"/><path class="cls-28" d="M39.6,243.54c-2.31.29-4,2.44-4.62,4.7a20.32,20.32,0,0,0,0,7,85.6,85.6,0,0,1-1.06,23.7,15.35,15.35,0,0,0,10.5-2.28c1.83-1.18,3.45-2.79,5.53-3.44,1.58-.5,3.31-.4,4.88-.93a8,8,0,0,0,4.95-6.4,14.34,14.34,0,0,0-1.54-8.23A24.67,24.67,0,0,0,39.74,244c-1.18-.16-2.71,0-3.06,1.11"/><path class="cls-29" d="M69.1,260.9c3.46,3.37.66,9.76,3.34,13.78,1.65,2.48,5,3.42,6.56,6s.94,6.67,3.49,8.45c1.9,1.33,4.47.58,6.74.09s5.2-.37,6.17,1.73c.32.68.36,1.47.64,2.17,1,2.48,4.44,2.65,7.11,2.35s6-.32,7.26,2.07c.65,1.26.45,2.85,1.19,4.06,1.34,2.17,4.57,1.72,7,1l8.2-2.39c2.26-.65,4.73-1.48,5.9-3.52,2.19-3.8-1.64-8.17-2.5-12.47-.42-2.07-.12-4.27-.81-6.27-1.22-3.53-5-5.33-8.33-7.06a64.41,64.41,0,0,1-10.71-7,1.62,1.62,0,0,1-.73-1,1.45,1.45,0,0,1,.53-1.09c1.86-1.85,5.31-2.64,5.48-5.26.14-2-1.83-3.38-3.64-4.17a26.84,26.84,0,0,0-24.75,2,15.27,15.27,0,0,1-4,2.2,16.14,16.14,0,0,1-5.33.06,12.44,12.44,0,0,0-7,1.34,6.63,6.63,0,0,0-3.46,5.88"/><path class="cls-30" d="M130.09,300c-3.71,3.28-5.59,8.1-7.34,12.73-1,2.6-2,5.41-1.24,8.08,1.12,4.1,6.8,6.11,10.25,3.63,1.59-1.14,2.59-2.91,4.06-4.2,2.66-2.33,6.56-2.77,10-2s6.56,2.59,9.59,4.4a6.43,6.43,0,0,1,2,1.56c.57.73.8,1.68,1.35,2.43a7.13,7.13,0,0,0,3.21,2.1l4.85,2a3.37,3.37,0,0,0,2.18.38,3.14,3.14,0,0,0,1.47-1.16,33.48,33.48,0,0,0,7.65-23.71c-6.27,2.42-13.07,4.87-19.57,3.14-5.13-1.37-9.22-5.14-13.9-7.65a30.38,30.38,0,0,0-7.82-2.88c-4-.88-9.06-.49-11.15,3.07"/><path class="cls-31" d="M107.51,383.77a25.6,25.6,0,0,0-1,8.57,4,4,0,0,0,.33,1.6,3.53,3.53,0,0,0,.93,1.07,18.52,18.52,0,0,0,10.09,4,53.26,53.26,0,0,0,11-.28,11.59,11.59,0,0,0,3.1-.6c2.6-1,4.13-3.88,4.26-6.67.11-2.42-.56-5.16,1-7,.92-1.11,2.55-1.77,2.8-3.2a2.65,2.65,0,0,0-1.28-2.52,7.93,7.93,0,0,0-2.82-1c-4.36-.86-8.91-1.64-13.18-.41-2.27.65-4.35,1.85-6.58,2.62-3.65,1.27-8.24,1.82-9.9,5.31-.34,0-.06.67.17.43"/><path class="cls-31" d="M129.88,375.77a14.62,14.62,0,0,0-1.65-6.7,2.14,2.14,0,0,1-.39-1.48c.21-.78,1.2-1,2-1,4.4-.34,9-.64,13,1.1a16.06,16.06,0,0,0,2.4,1,10.81,10.81,0,0,0,3.59,0,50.14,50.14,0,0,1,5.2-.24,8.75,8.75,0,0,1,4.09.75c2.09,1.12,3,3.57,3.78,5.82.29.86.53,1.94-.14,2.54a2.29,2.29,0,0,1-1.13.45l-12.22,2.52c-3,.62-6.22,1.21-9,0-1.08-.48-2-1.21-3.07-1.76-2.39-1.27-5.16-1.54-7.84-1.78"/><path class="cls-32" d="M155.46,367.19c-1.11-1-.77-3,.29-4.08a9.53,9.53,0,0,1,4-2.06,13.47,13.47,0,0,0,5.39-2.95,5.36,5.36,0,0,0,1.43-5.66,2.44,2.44,0,0,1,2.9.2,5.81,5.81,0,0,1,1.68,2.59,19.56,19.56,0,0,1,1.23,5.38c.3,3.62-.23,7.8,2.34,10.36.9.91,2.21,1.68,2.28,3s-1.49,2.35-2.88,2.4-2.76-.46-4.15-.46c-1.87,0-3.6.91-5.39,1.44s-4,.6-5.27-.74-1.12-3.62-1.85-5.4a5.45,5.45,0,0,0-5.25-3.3c-.55,0-1.28,0-1.4-.51-.08-.35.22-.67.49-.91a16.38,16.38,0,0,1,3.56-2.32"/><path class="cls-33" d="M137.81,384.36c-3.89,3.78-2.57,11.37,2.36,13.62,2,.94,4.41,1,6.34,2.16,4,2.3,4.86,8.06,8.86,10.31,2.81,1.57,6.28.93,9.5.89,6.25-.09,12.23,2.25,18.35,3.52,2.12.44,4.41.73,6.37-.18a14.16,14.16,0,0,0,3.48-2.76,28,28,0,0,1,14.78-7.13,12.46,12.46,0,0,0,4.16-1c3.31-1.79,3.58-6.41,3.1-10.14a66.54,66.54,0,0,0-3-12.86,7.1,7.1,0,0,0-.69-1.6,6.47,6.47,0,0,0-1.4-1.46c-2.71-2.2-6.23-3.84-7.51-7.09a10.51,10.51,0,0,0-.81-2,4.1,4.1,0,0,0-1.88-1.45c-4.6-2-9.49,1.55-14.19,3.23a19.79,19.79,0,0,1-10.26.82c-2.87-.54-6.31-1.55-8.35.54-1.05,1.08-1.34,2.71-2.32,3.85-1.18,1.38-3.09,1.8-4.86,2.15l-13.68,2.68c-5,1-10.57,2.34-13.23,6.69"/><path class="cls-34" d="M217.11,282.33c-1.84,3.05-3.74,6.31-3.66,9.87a16.5,16.5,0,0,0,2.64,7.66c5,8.72,12.4,17.16,11.77,27.2-.1,1.74-.38,3.74.82,5a4.86,4.86,0,0,0,2.56,1.19,20.5,20.5,0,0,0,20.43-7.83c1.52-2.09,2.65-4.8,1.77-7.22-.77-2.11-2.81-3.41-4.46-4.93-6.48-5.94-7.66-16.26-14.48-21.81-1.74-1.41-3.77-2.44-5.47-3.91s-3.12-3.52-4.86-5.1-4.11-2.77-6.4-2.23-3.93,3.5-2.55,5.4"/><path class="cls-35" d="M224.3,314.36a8.19,8.19,0,0,0-6.27-.52,2.75,2.75,0,0,0-1.64,1.17,4.47,4.47,0,0,0-.25,2c-.11,4.1-4.06,7.14-4.87,11.16a15.39,15.39,0,0,0,.28,5.57,2.11,2.11,0,0,0,.44,1.15,2.08,2.08,0,0,0,1,.51,25,25,0,0,0,15-.79,8.42,8.42,0,0,1,2.79-.77c.9,0,1.76.3,2.66.37a2.26,2.26,0,0,0,2.3-1,2.83,2.83,0,0,0,.11-1.53,38.28,38.28,0,0,0-3.57-12,10.62,10.62,0,0,0-2.65-3.74c-2.3-1.88-5.57-1.87-8.52-1.57"/><path class="cls-36" d="M204.35,114.34c-1.84-2.18-.11-5.4,1.12-8a20.47,20.47,0,0,0,1.17-14.24c-.42-1.49-1-3.06-.58-4.55a6.8,6.8,0,0,1,1.62-2.47c3.61-4,7.42-8.24,12.48-10.21a27.39,27.39,0,0,1,9.39-1.52,64.06,64.06,0,0,1,17,2c2.94.75,6.27,2.18,6.89,5.15.25,1.24,0,2.54.19,3.79.39,2.19,2.26,3.76,3.61,5.53,3.31,4.35,3.58,10.21,3.72,15.67.09,3.86.13,8-1.87,11.27-1,1.75-2.62,3.17-3.49,5-.71,1.52-.9,3.22-1.49,4.79-1.08,2.93-3.45,5.17-5.89,7.11a64,64,0,0,1-20.6,10.78c-4.1,1.28-8.58,2.16-12.64.76-5.28-1.83-8.74-7.52-8.53-13.1.14-3.54,1.55-7.11.72-10.56-.47-2-1.64-3.69-2.17-5.64s-.18-4.43,1.61-5.36"/><path class="cls-37" d="M189.15,86.58c-7.43.47-14.21-6-21.56-4.77-3.61.58-6.64,2.93-9.51,5.21a1.44,1.44,0,0,0-.46.49c-.43.86.84,1.54,1.79,1.71a150.59,150.59,0,0,1,19.3,5.08l4.56,1.43c1.58.49,3.16,1,4.68,1.61a19.31,19.31,0,0,0,3.41,1.23,12.41,12.41,0,0,0,6.89-1.07,5.83,5.83,0,0,0,2.59-1.62,4.16,4.16,0,0,0-.33-4.95A10.54,10.54,0,0,0,196.09,88a51.19,51.19,0,0,0-8.9-2.83"/><path class="cls-37" d="M188.39,96.84l-14,6.93c-1.06.52-2.29,1.33-2.17,2.51.09.91,1,1.51,1.82,1.86,2.81,1.19,6,1.1,9,1l12.3-.42a5.37,5.37,0,0,0,2.49-.49,6.63,6.63,0,0,0,2-2.41A14.54,14.54,0,0,1,210,99.41a7.1,7.1,0,0,0,2.67-.62,1.86,1.86,0,0,0,.9-2.32,25.45,25.45,0,0,0-7.56-2,6.89,6.89,0,0,0-2.79.14A15,15,0,0,0,200.54,96c-2.48,1.35-5.42,1.45-8.24,1.51l-9.43.23"/><path class="cls-38" d="M68.19,63a29.16,29.16,0,0,0-10.08,2.69,6.42,6.42,0,0,0-2.89,2.23,9.71,9.71,0,0,0-.89,3.44,13.58,13.58,0,0,1-2.77,6.07c-.48.6-1.06,1.29-.9,2a2.5,2.5,0,0,0,1,1.27,39.43,39.43,0,0,1,10,12.33,11.67,11.67,0,0,0,2.81,4.1c1.73,1.32,4.11,1.39,6.06,2.36s3.56,2.9,5.74,3.06,4-1.42,5.56-2.9c1.76-1.67,3.68-4.15,2.5-6.28-.54-1-1.6-1.52-2.26-2.39-2-2.68.27-7-1.74-9.71-1-1.3-2.71-1.8-3.88-2.94-1.59-1.54-1.88-4-1.81-6.19s.37-4.5-.36-6.59-3-3.88-5.08-3.18"/><path class="cls-39" d="M32.49,110c-4.69,1.66-7.83,6-10.68,10L11.1,135.35a4.63,4.63,0,0,0-1,2c-.15,1.32.84,2.47,1.76,3.43,4.13,4.3,8.38,8.69,13.78,11.21s12.27,2.78,16.93-.93c3-2.4,5-6.28,8.59-7.6,1.47-.54,3.1-.6,4.49-1.34,2.68-1.42,3.51-4.8,4.08-7.78.59-3.14,1.08-6.7-.84-9.25-.78-1-1.9-1.78-2.62-2.86-2.81-4.24,2-10.21,0-14.88a7.23,7.23,0,0,0-5.77-3.91,17.25,17.25,0,0,0-7.17.94,58.9,58.9,0,0,0-17.72,8.85"/><path class="cls-40" d="M306.63,87.79c-.9,6.75,5.36,12.3,6.81,18.95.55,2.54.38,5.18.75,7.76a19.19,19.19,0,0,0,6.7,12A10.4,10.4,0,0,0,326.2,129a7.37,7.37,0,0,0,7.81-5.9c-2.3-1.31-4.57-2.69-6.8-4.12a5.05,5.05,0,0,1-1.81-1.65c-.61-1.09-.35-2.43-.33-3.68.09-4.76-3.36-8.77-6.65-12.21s-6.82-7.33-7-12.09c0-1.15-.23-2.74-1.37-2.78a2,2,0,0,0-1.05.35l-4.25,2.34"/><path class="cls-40" d="M350.4,140.16c1.14,3.51-1.52,7-2.81,10.45a28.59,28.59,0,0,0-1.3,6,35.93,35.93,0,0,0-.51,6.46A18,18,0,0,0,351,175a4.25,4.25,0,0,0,2.6,1.47,4.81,4.81,0,0,0,2.51-.78l3.36-1.77a2.39,2.39,0,0,0,1.28-3.46c-1.12-4.42-2.79-8.69-3.69-13.16s-1-9.29,1.07-13.37a2.67,2.67,0,0,0,.44-1.81c-.2-.71-1-1.06-1.68-1.28a15.09,15.09,0,0,0-8.19-.17"/><path class="cls-41" d="M379,172.28l7.65-6.55a8,8,0,0,1,1.86-1.3,7.33,7.33,0,0,1,4.56,0,60.82,60.82,0,0,1,8.44,2.57c2,.78,4.39,2.26,4.11,4.42-.41,3.13-5.78,3.44-6.36,6.54a13.92,13.92,0,0,0,.06,2.41c0,3.9-5.05,5.87-6.35,9.56a2.22,2.22,0,0,1-.43.87c-.67.66-1.76,0-2.46-.66a23.23,23.23,0,0,0-19.39-5.49,12.62,12.62,0,0,1-4.75.42c-1.57-.32-3.07-1.76-2.77-3.33.23-1.18,1.33-2,2.34-2.61q7.24-4.6,14.71-8.85"/><path class="cls-42" d="M383.82,275.59c-2.16.75-3.49,2.9-4.44,5a37.2,37.2,0,0,0-1.52,3.83,3.68,3.68,0,0,0-.18,2.62c.21.47.61.85.86,1.3.71,1.28.19,2.86.28,4.31a1.64,1.64,0,0,0,.46,1.21,1.81,1.81,0,0,0,1.06.34,11,11,0,0,0,7.17-2,4.75,4.75,0,0,0,1.86-2.16c.27-.75.25-1.58.49-2.34.49-1.61,2.05-2.64,3.6-3.31a18,18,0,0,0,4.51-2.19c1.3-1.07,2.1-3,1.24-4.46s-2.82-1.66-4.49-1.73l-13.83-.53"/><path class="cls-43" d="M158.48,236.48c.62,2.1-2.13,4.32-1.11,6.26.59,1.11,2.08,1.33,3.13,2,1.47,1,2,2.87,2.08,4.63s-.23,3.53,0,5.27a8.74,8.74,0,0,0,9,7.22c3.91-.29,7.07-3.2,10.69-4.71a15.77,15.77,0,0,1,7.83-1.12c2.78.31,6,1.24,8.07-.7s1.34-4.93,1.26-7.58c-.1-3.58.88-7.58-1.25-10.46-1.61-2.18-4.58-2.93-7.28-2.72s-5.26,1.21-7.88,1.9a35.07,35.07,0,0,1-15.62.51,23.91,23.91,0,0,0-5.55-.8,5.59,5.59,0,0,0-4.75,2.52"/><path class="cls-44" d="M233.37,161.86s2-16.5,15.25-14,18,22.75,5.75,54.25c-23.25-2.25-53-12.86-42.5-34.25C218.37,154.61,233.37,161.86,233.37,161.86Z"/><path class="cls-45" d="M393.19,142.08s16.5-2,17.23,11.48-17.82,22.89-51.33,18.49c-3.34-23.12-.1-54.53,23.16-49.43C396.67,125.78,393.19,142.08,393.19,142.08Z"/><path class="cls-46" d="M402.17,254.8s8,14.59-4.27,20.26-27.87-8-36.22-40.79c20.22-11.69,50.59-20.35,54.49,3.15C418.59,252,402.17,254.8,402.17,254.8Z"/><path class="cls-47" d="M134,334.24s-2.59-12.53,9.09-14.66,20.87,11.11,18.79,37.55c-20,5.28-47.47,6.43-44.24-12.16C119.62,333.45,134,334.24,134,334.24Z"/><path class="cls-48" d="M79.1,106s6.33-13.82,16.76-8,8.71,24.7-10.45,48.79c-18.9-8.28-40.89-25.61-26.06-41.37C68.54,95.62,79.1,106,79.1,106Z"/><path class="cls-49" d="M15.18,205.85c-2.27,3.57,1.76,7.71,5.15,10.24,14.8,11.09,25.62,26.56,38.55,39.79,4.41,4.52,11,9.08,16.5,6a22.86,22.86,0,0,0,4.26-3.74c8.34-8,21.3-8.49,32.7-6.7,5.62.88,11.75,2.12,16.7-.68,5.32-3,7.3-9.56,8.75-15.5a10.57,10.57,0,0,0,.45-4.09c-.59-4-5-5.86-8.62-7.68-12-6.11-19.68-18.46-31-25.77a44.18,44.18,0,0,0-32.08-6.19c-12.06,2.35-23,9.74-35.31,10.06-3.64.09-7.35-.44-10.86.49s-6.88,4-6.57,7.59"/><path class="cls-49" d="M244.9,261.13l-5.22,35.8a10.44,10.44,0,0,0,.07,4.91c.56,1.65,1.9,2.89,3,4.23a18.53,18.53,0,0,1,1.47,20.82c-2.05,3.36-5.32,7.2-3.41,10.63a8.56,8.56,0,0,0,3,2.74c4.64,3.09,9.42,6.24,14.87,7.39s11.79-.12,15.14-4.57c1.42-1.88,2.2-4.16,3.39-6.19,2.09-3.56,5.35-6.25,8.55-8.86l14.88-12.15c3.16-2.58,6.41-5.25,8.39-8.83,3.77-6.81,2.2-15.26,4-22.84.64-2.71,1.71-5.33,2.07-8.1.46-3.49-.24-7-1-10.44a260.43,260.43,0,0,0-7.61-27.3c-.86-2.56-1.86-5.24-3.95-7a13.25,13.25,0,0,0-6.16-2.35c-11.65-2.08-24.23-.21-34,6.42s-16.41,18.28-15.68,30.1"/></g></g></g></svg>