<svg xmlns="http://www.w3.org/2000/svg" xmlns:xlink="http://www.w3.org/1999/xlink" viewBox="0 0 366.75 409.5"><defs><style>.cls-1,.cls-2,.cls-3{fill-opacity:0.45;stroke:#e6e6e6;stroke-miterlimit:10;stroke-width:1.5px;}.cls-1{fill:url(#linear-gradient);}.cls-2{fill:url(#linear-gradient-2);}.cls-3{fill:url(#linear-gradient-3);}</style><linearGradient id="linear-gradient" x1="254.75" y1="183.87" x2="366" y2="183.87" gradientUnits="userSpaceOnUse"><stop offset="0" stop-color="#fff" stop-opacity="0.9"/><stop offset="1" stop-color="#ccc" stop-opacity="0.9"/></linearGradient><linearGradient id="linear-gradient-2" x1="87.53" y1="-42.81" x2="166.62" y2="101.87" xlink:href="#linear-gradient"/><linearGradient id="linear-gradient-3" x1="14.9" y1="231.23" x2="232.9" y2="231.23" gradientUnits="userSpaceOnUse"><stop offset="0.14" stop-color="#ed3824"/><stop offset="0.68" stop-color="#e6808b"/><stop offset="1" stop-color="#ed3824"/></linearGradient></defs><title>sweet-tart-cup</title><g id="Layer_2" data-name="Layer 2"><g id="Sweet_Tart" data-name="Sweet Tart"><g id="Sweet_Tart_Cup" data-name="Sweet Tart Cup"><path class="cls-1" d="M362.3,193.34c-8,56.12-57.84,99.38-107.55,110V282c17.1-3.18,39.45-9.62,52.51-22.43,23.27-22.82,43.85-51.46,45.19-94,1.33-41.87-4.39-87.27-97.7-82.46V64.45c12.24,1.06,62.15,0,83.39,17.48C363.07,102.45,371.69,127.57,362.3,193.34Z"/><path class="cls-2" d="M254.75,10.27V53.7H.75V10.27A9.52,9.52,0,0,1,10.27.75h235A9.52,9.52,0,0,1,254.75,10.27Z"/><path class="cls-3" d="M254.75,53.7V317.25a91.5,91.5,0,0,1-91.5,91.5h-71a91.51,91.51,0,0,1-91.5-91.5V53.7Z"/></g></g></g></svg>