<svg xmlns="http://www.w3.org/2000/svg" xmlns:xlink="http://www.w3.org/1999/xlink" viewBox="0 0 802.39 488.59"><defs><style>.cls-1{fill:url(#linear-gradient);}.cls-10,.cls-11,.cls-2{fill:none;}.cls-2{stroke:#999;stroke-width:1.93px;}.cls-13,.cls-14,.cls-15,.cls-16,.cls-2,.cls-3,.cls-4,.cls-5{stroke-miterlimit:10;}.cls-13,.cls-14,.cls-15,.cls-16,.cls-3,.cls-4,.cls-5,.cls-6,.cls-7{fill-opacity:0.45;}.cls-13,.cls-14,.cls-15,.cls-16,.cls-3,.cls-4,.cls-5{stroke:#e6e6e6;stroke-width:2px;}.cls-3{fill:url(#linear-gradient-2);}.cls-4{fill:url(#linear-gradient-3);}.cls-5{fill:url(#linear-gradient-4);}.cls-6{fill:url(#linear-gradient-5);}.cls-7{fill:url(#linear-gradient-6);}.cls-8{opacity:0.8;}.cls-9{clip-path:url(#clip-path);}.cls-10,.cls-11{stroke:#fff;stroke-linecap:round;stroke-linejoin:round;stroke-width:1.89px;}.cls-11{stroke-dasharray:0 5.75;}.cls-12{fill:url(#linear-gradient-8);}.cls-13{fill:url(#linear-gradient-9);}.cls-14{fill:url(#linear-gradient-10);}.cls-15{fill:url(#linear-gradient-11);}.cls-16{fill:url(#linear-gradient-12);}</style><linearGradient id="linear-gradient" x1="339.9" y1="250.67" x2="496.17" y2="250.67" gradientUnits="userSpaceOnUse"><stop offset="0" stop-color="#7f7c6d"/><stop offset="0.43" stop-color="#938e89"/><stop offset="1" stop-color="#cfcec3"/></linearGradient><linearGradient id="linear-gradient-2" x1="593.3" y1="251.58" x2="801.39" y2="251.58" gradientUnits="userSpaceOnUse"><stop offset="0" stop-color="#fff" stop-opacity="0.9"/><stop offset="1" stop-color="#ccc" stop-opacity="0.9"/></linearGradient><linearGradient id="linear-gradient-3" x1="67.46" y1="244.68" x2="133.7" y2="192.59" xlink:href="#linear-gradient-2"/><linearGradient id="linear-gradient-4" x1="313.63" y1="59.65" x2="494.94" y2="530.28" xlink:href="#linear-gradient-2"/><linearGradient id="linear-gradient-5" x1="402.43" y1="159.24" x2="402.43" y2="463.94" xlink:href="#linear-gradient-2"/><linearGradient id="linear-gradient-6" x1="402.43" y1="414.33" x2="402.43" y2="459.36" xlink:href="#linear-gradient-2"/><clipPath id="clip-path"><path class="cls-1" d="M319.24,133.33H486.12a0,0,0,0,1,0,0V353.47A14.54,14.54,0,0,1,471.58,368H333.78a14.54,14.54,0,0,1-14.54-14.54V133.33A0,0,0,0,1,319.24,133.33Z"/></clipPath><linearGradient id="linear-gradient-8" x1="301.15" y1="119.24" x2="504.21" y2="119.24" xlink:href="#linear-gradient"/><linearGradient id="linear-gradient-9" x1="380.73" y1="66.83" x2="424.14" y2="66.83" xlink:href="#linear-gradient-2"/><linearGradient id="linear-gradient-10" x1="371.23" y1="32.2" x2="433.63" y2="32.2" xlink:href="#linear-gradient-2"/><linearGradient id="linear-gradient-11" x1="279.13" y1="109.66" x2="525.75" y2="109.66" xlink:href="#linear-gradient-2"/><linearGradient id="linear-gradient-12" x1="268.68" y1="88.11" x2="536.2" y2="88.11" xlink:href="#linear-gradient-2"/></defs><title>teapot</title><g id="Layer_2" data-name="Layer 2"><g id="Clear_Glass_Teapot" data-name="Clear Glass Teapot"><g id="Clear_Glass_Teapot-2" data-name="Clear Glass Teapot"><g id="Clear_Glass_Teapot-3" data-name="Clear Glass Teapot"><path class="cls-2" d="M160.5,325.85s32.85-69.26,41.86-102.31c0,0-40.52,95.57-54,102,0,0,40.19-74.6,40.83-90.68,0,0-37.3,83-50.8,86.17,0,0,37.62-66.56,41.16-81.67,0,0-37,66.88-49.2,71.38,0,0,39.87-57.55,39.55-69.61,0,0-32.64,57.07-48.87,59.16,0,0,33.41-44.67,36-52.94,0,0-29.45,40.89-43.44,40.89,0,0,37.36-36.87,39.23-45.34,0,0-30.39,34.08-40,34.08,0,0,29.9-27.81,30.54-33.6,0,0-23.47,20.26-30.54,21.54l21.7-22.34"/><path class="cls-2" d="M17.8,99.26s46.74,41.12,65,68.14,43,84.18,43,84.18"/><path class="cls-3" d="M801.39,235.83c0,87.55-67.53,158.51-149.17,158.51a69.05,69.05,0,0,1-30.41-6.52,177.26,177.26,0,0,0,17.71-30.13,36.55,36.55,0,0,0,12.7,1.93c63.08,0,114.44-55.53,114.44-123.79,0-82.72-40.74-92.29-71.38-92.29-17.94,0-56.45,14-77.71,44.64a213.49,213.49,0,0,0-24.27-26c28.74-36.42,75.2-53.4,102-53.4C759.76,108.81,801.39,148.28,801.39,235.83Z"/><path class="cls-4" d="M164.22,354.1v0s-47.07-17-72.15-63.32S90.79,220.09,67.64,186,19.06,121.7,1.39,114.6C8.8,100.13,29.67,92.41,41.25,94c16.09,10.3,82.65,77.48,93.26,100.63s17.75,42.83,25.74,42.83a157,157,0,0,0,4,116.61Z"/><path class="cls-5" d="M654.45,290.8a158.21,158.21,0,0,1-14.93,66.87,177.92,177.92,0,0,1-17.71,30.13c-43.3,59.58-125.21,99.79-219.13,99.79-110.74,0-204.74-55.84-238.46-133.47v0a157.08,157.08,0,0,1-4-116.61c18.83-52.36,64.67-95.88,125-120.77H520.17c27.86,11.5,52.67,27,73.12,45.49a212.7,212.7,0,0,1,24.27,26C641,218.06,654.45,253.22,654.45,290.8Z"/><path class="cls-6" d="M622.62,288c0,62.82-43.45,117.73-108.23,147.55-3.28-11.84-52.13-21.26-111.94-21.26s-108.7,9.42-112,21.26C225.69,405.77,182.24,350.86,182.24,288c0-94.61,98.59-171.32,220.21-171.32S622.62,193.43,622.62,288Z"/><path class="cls-7" d="M514.39,435.59C483.13,450,446.94,458.51,408.2,459.32c-1.89,0-3.82,0-5.75,0s-3.86,0-5.75,0c-38.74-.81-75-9.34-106.23-23.73,3.28-11.84,52.17-21.26,112-21.26S511.11,423.75,514.39,435.59Z"/><g class="cls-8"><path class="cls-1" d="M319.24,133.33H486.12a0,0,0,0,1,0,0V353.47A14.54,14.54,0,0,1,471.58,368H333.78a14.54,14.54,0,0,1-14.54-14.54V133.33A0,0,0,0,1,319.24,133.33Z"/><g class="cls-9"><line class="cls-10" x1="319.24" y1="154.72" x2="319.24" y2="154.72"/><line class="cls-11" x1="324.99" y1="154.72" x2="483.24" y2="154.72"/><line class="cls-10" x1="486.12" y1="154.72" x2="486.12" y2="154.72"/><line class="cls-10" x1="319.24" y1="164.84" x2="319.24" y2="164.84"/><line class="cls-11" x1="324.99" y1="164.84" x2="483.24" y2="164.84"/><line class="cls-10" x1="486.12" y1="164.84" x2="486.12" y2="164.84"/><line class="cls-10" x1="319.24" y1="174.96" x2="319.24" y2="174.96"/><line class="cls-11" x1="324.99" y1="174.96" x2="483.24" y2="174.96"/><line class="cls-10" x1="486.12" y1="174.96" x2="486.12" y2="174.96"/><line class="cls-10" x1="319.24" y1="185.07" x2="319.24" y2="185.07"/><line class="cls-11" x1="324.99" y1="185.07" x2="483.24" y2="185.07"/><line class="cls-10" x1="486.12" y1="185.07" x2="486.12" y2="185.07"/><line class="cls-10" x1="319.24" y1="195.19" x2="319.24" y2="195.19"/><line class="cls-11" x1="324.99" y1="195.19" x2="483.24" y2="195.19"/><line class="cls-10" x1="486.12" y1="195.19" x2="486.12" y2="195.19"/><line class="cls-10" x1="319.24" y1="205.31" x2="319.24" y2="205.31"/><line class="cls-11" x1="324.99" y1="205.31" x2="483.24" y2="205.31"/><line class="cls-10" x1="486.12" y1="205.31" x2="486.12" y2="205.31"/><line class="cls-10" x1="319.24" y1="215.42" x2="319.24" y2="215.42"/><line class="cls-11" x1="324.99" y1="215.42" x2="483.24" y2="215.42"/><line class="cls-10" x1="486.12" y1="215.42" x2="486.12" y2="215.42"/><line class="cls-10" x1="319.24" y1="225.54" x2="319.24" y2="225.54"/><line class="cls-11" x1="324.99" y1="225.54" x2="483.24" y2="225.54"/><line class="cls-10" x1="486.12" y1="225.54" x2="486.12" y2="225.54"/><line class="cls-10" x1="319.24" y1="235.66" x2="319.24" y2="235.66"/><line class="cls-11" x1="324.99" y1="235.66" x2="483.24" y2="235.66"/><line class="cls-10" x1="486.12" y1="235.66" x2="486.12" y2="235.66"/><line class="cls-10" x1="319.24" y1="245.77" x2="319.24" y2="245.77"/><line class="cls-11" x1="324.99" y1="245.77" x2="483.24" y2="245.77"/><line class="cls-10" x1="486.12" y1="245.77" x2="486.12" y2="245.77"/><line class="cls-10" x1="319.24" y1="255.89" x2="319.24" y2="255.89"/><line class="cls-11" x1="324.99" y1="255.89" x2="483.24" y2="255.89"/><line class="cls-10" x1="486.12" y1="255.89" x2="486.12" y2="255.89"/><line class="cls-10" x1="319.24" y1="266.01" x2="319.24" y2="266.01"/><line class="cls-11" x1="324.99" y1="266.01" x2="483.24" y2="266.01"/><line class="cls-10" x1="486.12" y1="266.01" x2="486.12" y2="266.01"/><line class="cls-10" x1="319.24" y1="276.12" x2="319.24" y2="276.12"/><line class="cls-11" x1="324.99" y1="276.12" x2="483.24" y2="276.12"/><line class="cls-10" x1="486.12" y1="276.12" x2="486.12" y2="276.12"/><line class="cls-10" x1="319.24" y1="286.24" x2="319.24" y2="286.24"/><line class="cls-11" x1="324.99" y1="286.24" x2="483.24" y2="286.24"/><line class="cls-10" x1="486.12" y1="286.24" x2="486.12" y2="286.24"/><line class="cls-10" x1="319.24" y1="296.36" x2="319.24" y2="296.36"/><line class="cls-11" x1="324.99" y1="296.36" x2="483.24" y2="296.36"/><line class="cls-10" x1="486.12" y1="296.36" x2="486.12" y2="296.36"/><line class="cls-10" x1="319.24" y1="306.47" x2="319.24" y2="306.47"/><line class="cls-11" x1="324.99" y1="306.47" x2="483.24" y2="306.47"/><line class="cls-10" x1="486.12" y1="306.47" x2="486.12" y2="306.47"/><line class="cls-10" x1="319.24" y1="316.59" x2="319.24" y2="316.59"/><line class="cls-11" x1="324.99" y1="316.59" x2="483.24" y2="316.59"/><line class="cls-10" x1="486.12" y1="316.59" x2="486.12" y2="316.59"/><line class="cls-10" x1="319.24" y1="326.71" x2="319.24" y2="326.71"/><line class="cls-11" x1="324.99" y1="326.71" x2="483.24" y2="326.71"/><line class="cls-10" x1="486.12" y1="326.71" x2="486.12" y2="326.71"/><line class="cls-10" x1="319.24" y1="336.82" x2="319.24" y2="336.82"/><line class="cls-11" x1="324.99" y1="336.82" x2="483.24" y2="336.82"/><line class="cls-10" x1="486.12" y1="336.82" x2="486.12" y2="336.82"/><line class="cls-10" x1="319.24" y1="346.94" x2="319.24" y2="346.94"/><line class="cls-11" x1="324.99" y1="346.94" x2="483.24" y2="346.94"/><line class="cls-10" x1="486.12" y1="346.94" x2="486.12" y2="346.94"/></g><rect class="cls-12" x="301.15" y="105.15" width="203.06" height="28.18" rx="4.73" ry="4.73"/></g><path class="cls-13" d="M424.14,74.12H380.73l5.75-14.59h.88a31.35,31.35,0,0,0,30.14,0h.85Z"/><path class="cls-14" d="M433.63,32.22A31.2,31.2,0,1,1,402.45,1,31.19,31.19,0,0,1,433.63,32.22Z"/><rect class="cls-15" x="279.13" y="102.61" width="246.63" height="14.09" rx="3.69" ry="3.69"/><path class="cls-16" d="M536.2,95.52c0,9.54-59.88,6.41-133.76,6.41s-133.76,3.13-133.76-6.41,59.88-21.71,133.76-21.71S536.2,86,536.2,95.52Z"/></g></g></g></g></svg>