<svg xmlns="http://www.w3.org/2000/svg" viewBox="0 0 413.68 409.74"><defs><style>.cls-1{fill:#dc7870;}.cls-2{fill:#521416;}.cls-3{fill:#7d0d1e;}.cls-4{fill:#5d2323;}.cls-5{fill:#e1af66;}.cls-6{fill:#fdfcd7;}.cls-7{fill:#e6ca82;}.cls-8{fill:#4f2a2b;}.cls-9{fill:#a45954;}.cls-10{fill:#8d615c;}.cls-11{fill:#ffedc2;}.cls-12{fill:#ffffdf;}.cls-13{fill:#ecc68c;}.cls-14{fill:#fff3d1;}.cls-15{fill:#e2894c;}.cls-16{fill:#440500;}.cls-17{fill:#fffee5;}.cls-18{fill:#f9e6b7;}.cls-19{fill:#ab7331;}.cls-20{fill:#891a38;}.cls-21{fill:#faf8da;}.cls-22{fill:#bd604e;}.cls-23{fill:#450706;}.cls-24{fill:#342f2e;}.cls-25{fill:#ffe9c2;}.cls-26{fill:#60061f;}.cls-27{fill:#aa5938;}.cls-28{fill:#ac5652;}.cls-29{fill:#361c16;}.cls-30{fill:#82635e;}.cls-31{fill:#6d2525;}.cls-32{fill:#4a282c;}.cls-33{fill:#6d2a07;}.cls-34{fill:#8b5725;}.cls-35{fill:#211c1c;}.cls-36{fill:#f7d5a4;}.cls-37{fill:#5c3125;}.cls-38{fill:#784344;}.cls-39{fill:#d0ab6f;}.cls-40{fill:#654545;}.cls-41{fill:#f4d0a9;}.cls-42{fill:#bc8658;}.cls-43{fill:#f3ce99;}.cls-44{fill:#9e503c;}.cls-45{fill:#914426;}.cls-46{fill:#691f2c;}.cls-47{fill:#2e1817;}.cls-48{fill:#402017;}.cls-49{fill:#f1d69b;}.cls-50{fill:#fffef7;}.cls-51{fill:#fcffe0;}.cls-52{fill:#6d1b29;}.cls-53{fill:#ffedc3;}.cls-54{fill:#3b231f;}.cls-55{fill:#7d2f25;}.cls-56{fill:#de7562;}.cls-57{fill:#833843;}.cls-58{fill:#e7b787;}.cls-59{fill:#482711;}.cls-60{fill:#a36c61;}.cls-61{fill:#ffeac7;}.cls-62{fill:#bf935e;}.cls-63{fill:#e19e69;}.cls-64{fill:#2f0f10;}.cls-65{fill:#24110a;}.cls-66{fill:#b67a41;}.cls-67{fill:#f4ac84;}.cls-68{fill:#c8744d;}.cls-69{fill:#590415;}.cls-70{fill:#cd8869;}.cls-71{fill:#69310e;}.cls-72{fill:#4e332a;}</style></defs><title>tulsi-tranquility-tea</title><g id="Layer_2" data-name="Layer 2"><g id="Tulsi_Tranquility" data-name="Tulsi Tranquility"><g id="Tulsi_Tranquility-2" data-name="Tulsi Tranquility"><path class="cls-1" d="M185.51,150.07a43.87,43.87,0,0,0-13.59,27.35c-.48,4.77-.07,9.9,2.74,13.79,2.36,3.27,6.14,5.26,8.64,8.43,1.27,1.61,2.19,3.51,3.71,4.88,1.88,1.7,4.44,2.39,6.9,3a155.85,155.85,0,0,0,15.59,2.85c4.74.63,9.77,1,14.13-1,4.77-2.14,8-6.83,9.65-11.8s1.85-10.28,2.05-15.5c.28-7.11.07-15.34-5.49-19.76-3.63-2.88-8.91-3.49-11.84-7.09-1.63-2-2.28-4.65-4-6.59-2.7-3.11-7.31-3.62-11.41-3.34a44,44,0,0,0-19.46,6.12"/><path class="cls-1" d="M120.43,193.56c-3,7.63-.45,16.18,2.1,24a29.67,29.67,0,0,0,3.14,7.31,15.32,15.32,0,0,0,18.28,5.4c4.51-2,7.89-6.1,12.54-7.69,3.35-1.14,7-.86,10.5-1.29s7.29-1.92,8.7-5.16c1.18-2.72.34-5.9-1.05-8.52s-3.31-4.94-4.46-7.66c-1.22-2.88-1.53-6.08-2.78-8.93-3.17-7.21-11.8-10.71-19.66-10.28s-15.15,4-22.2,7.5c-3.7,1.83-8.06,5-7.06,9"/><path class="cls-1" d="M254.24,71.19c-3.52,8.42,1.3,17.82,6,25.66a18,18,0,0,0,3.52,4.67,18.09,18.09,0,0,0,6.25,3c6.54,2.2,13.22,4.42,20.12,4.46s14.19-2.48,18.21-8.1c4.15-5.8,4.05-13.54,3.66-20.67-.42-7.45-1.63-16-8-19.91-3.35-2-7.44-2.25-11.19-3.37s-7.2-3.14-11-3.1c-9.27.08-14.41,11.42-23.2,14.4-2,.67-4.16.92-5.84,2.17s-2.44,4.06-.8,5.35"/><path class="cls-1" d="M312.84,262.19c-.63,6.07-1.11,12.77,2.49,17.69,2.53,3.46,6.63,5.37,10.66,6.8,3.61,1.29,7.45,2.33,11.25,1.76,4-.59,7.58-2.91,11.58-3.3,4.46-.44,9.92,1.21,12.79-2.23a9,9,0,0,0,1.66-4.14c1.17-5.88,1-11.93.88-17.92a13.6,13.6,0,0,0-.74-5,11.27,11.27,0,0,0-3.06-3.88A32.82,32.82,0,0,0,348,245.05a15.58,15.58,0,0,0-7.62-.66,20.37,20.37,0,0,0-5.71,2.48l-9.71,5.48c-4.86,2.73-9.85,5.59-13.24,10"/><path class="cls-2" d="M309.25,51.48c-3.85,8.78.07,18.85,4,27.61a18,18,0,0,0,3.19,5.39A16.34,16.34,0,0,0,322,87.85a74.56,74.56,0,0,0,13.64,4.23c3.73.78,7.61,1.26,11.32.42s7.26-3.21,8.65-6.75c2-5.16-.88-10.82-1.44-16.34-.42-4.11.49-8.33-.43-12.37a23.22,23.22,0,0,0-3.83-7.83c-4.68-6.8-11.75-13.15-20-12.7-3.72.21-7.23,1.8-10.46,3.65-7.07,4.05-14,10.79-13.28,18.9"/><path class="cls-3" d="M237.84,339.47c-2.1-2.71-.39-7,2.56-8.71s6.57-1.71,10-1.61l11.5.32c2.66.08,5.4.17,7.81,1.29a14.92,14.92,0,0,1,4.72,3.8c6.48,7.38,9,17.56,9.06,27.38a28.74,28.74,0,0,1-1.44,10.4c-2.3,6.17-8.36,10.89-14.93,11.13s-13.17-4.34-14.78-10.72a30.62,30.62,0,0,1-.49-7.95c.08-6-.36-12.35-3.52-17.49s-9.79-8.57-15.38-6.31"/><path class="cls-4" d="M213.46,349.9a94.57,94.57,0,0,1,13.83-6.66c4.91-1.9,10.7-3.32,15.21-.61,4.78,2.87,6.09,9.08,6.92,14.6,1.17,7.71,1.75,16.95-4.31,21.86-2.42,2-5.52,2.84-8.26,4.32-7.83,4.24-12.07,13-18.95,18.62a7.62,7.62,0,0,1-3.58,1.88c-2.61.38-5-1.65-6.31-3.94-2.36-4.13-2.43-9.14-2.43-13.9V371.63c0-2.92,0-5.93,1.07-8.65,1.84-4.77,6.79-8.73,6-13.79l2.46-.05"/><path class="cls-5" d="M230.73,388.75c-1.17,3.95-2,8.57.44,11.92,2.19,3.05,6.26,4,10,4.65l11.43,2.12c2.63.49,5.75.83,7.59-1.1a8.11,8.11,0,0,0,1.69-3.88l3.51-14.77c.3-1.24.55-2.71-.3-3.66a3.78,3.78,0,0,0-1.69-.95c-9.25-3.1-19.44-1.28-28.73,1.71a8.59,8.59,0,0,0-3.91,2.09c-1,1.12-1.31,3-.27,4.07l1.15.19"/><path class="cls-6" d="M306.38,330l-9.77,19.14a7.63,7.63,0,0,0-1.11,3.45c0,2.15,1.9,3.89,3.92,4.64s4.22.78,6.34,1.16a19.38,19.38,0,0,1,11.15,6.38c1.39,1.61,2.52,3.46,4,4.95a7,7,0,0,0,5.72,2.31c2.86-.43,4.67-3.24,5.95-5.83a84.57,84.57,0,0,0,5.62-14.51c1-3.45,1.37-8-1.72-9.85-1.12-.67-2.57-.85-3.45-1.82-1.07-1.2-.85-3-1.41-4.55-1-2.71-4.19-3.77-7-4.38A103.37,103.37,0,0,0,309.09,329c-1.82-.11-4.24.29-4.48,2.1"/><path class="cls-7" d="M368,273.14c1.06,7.41-3.44,14.41-4.56,21.81a2.39,2.39,0,0,0,.13,1.52c.43.77,1.51.85,2.4.78,7.78-.55,15.07-4.2,22.85-4.86a11.23,11.23,0,0,0,4.5-.9c2.13-1.15,3-3.69,3.77-6l5.77-18.24a99.28,99.28,0,0,1-24.6,2.49c-2.77-.07-5.68-.22-8.15,1s-4.22,4.44-2.85,6.84"/><path class="cls-8" d="M324.53,304.67c-.95,4.37-5.19,7.49-6,11.89-1,5.75,4.23,10.71,9.55,13.12s11.39,3.67,15.5,7.8c3.15,3.17,5.27,8,9.66,8.86,3,.54,5.94-1.12,8.06-3.28s3.67-4.81,5.72-7c3-3.24,6.92-5.44,10.45-8.09s6.86-6.07,7.7-10.4c1.28-6.54-3.76-13-9.93-15.52s-13.12-1.91-19.71-.9-13.26,2.4-19.83,1.38c-2.51-.39-5.08-1.11-7.52-.42s-4.45,3.59-3.13,5.75"/><path class="cls-9" d="M398.85,238.41c-3.76,3.92-7.75,8.41-7.79,13.84a2.31,2.31,0,0,0,.36,1.46,2.35,2.35,0,0,0,1.08.66,18,18,0,0,0,18.61-3.91,8.64,8.64,0,0,0,2.21-3.21c1.44-4.05-1.85-8.2-2.22-12.49-.29-3.21.91-7-1.4-9.31-2-1.95-5.57-1.17-7.47.89s-2.53,4.95-3.05,7.7-1.06,5.63-2.82,7.81"/><path class="cls-10" d="M393,184.61c-.6,1.37-1.88,2.3-2.81,3.47s-1.43,3-.4,4.09a4,4,0,0,0,2.32.93l11.95,2c3.5-4.1,1.9-10.57,4.3-15.4a1.12,1.12,0,0,0,.19-.72c-.11-.52-.82-.57-1.34-.49a26.53,26.53,0,0,0-17.39,10.79"/><path class="cls-11" d="M359.08,159.91a124.55,124.55,0,0,1-13.85,22.24c-1.75,2.25-3.68,4.69-3.69,7.54,14.06,1.33,29.51,2.3,41-5.93,3-2.17,5.77-5,9.35-6a3.61,3.61,0,0,0,1.69-.78c.8-.85.32-2.33-.56-3.11s-2-1.17-3-1.89c-2-1.57-2.57-4.33-3-6.84L384.9,152c-.44-2.68-.92-5.46-2.44-7.71s-4.4-3.83-7-3-3.86,3.55-5.14,5.9c-3.88,7.09-9.77,12.82-15.57,18.44"/><path class="cls-12" d="M332.1,115.63c-2.93,1.19-3.21,5.16-3,8.32a4.07,4.07,0,0,0,.34,1.63,4.36,4.36,0,0,0,2.61,1.65,21.61,21.61,0,0,1,10,7.41c1.11,1.49,2.22,3.27,4.05,3.63,1.64.33,3.25-.64,4.57-1.68a28.93,28.93,0,0,0,10.09-28.06,4.72,4.72,0,0,0-.52-1.52,5.34,5.34,0,0,0-2.2-1.74l-5.71-3.07c-3.44-1.84-7.59-3.71-11.05-1.92-2.36,1.22-3.63,3.78-4.75,6.19L328.33,124"/><path class="cls-13" d="M321.14,138.71A20.53,20.53,0,0,0,310,153.23l6.61,5c3.9,2.93,8,6,12.8,6.78a26.53,26.53,0,0,0,9.71-.58c4.28-.88,8.59-2.1,12.13-4.66s6.18-6.69,6-11a5.37,5.37,0,0,0-1.47-3.73,7.5,7.5,0,0,0-3.36-1.43,70.87,70.87,0,0,1-13.29-4.82c-3.61-1.73-7.19-3.81-11.18-4.16s-8.55,1.71-9.47,5.61"/><path class="cls-14" d="M251.43,189.72c.65,1.7-2.16,2.63-2.82,4.33a2.84,2.84,0,0,0,1.31,3.2,9.21,9.21,0,0,0,3.55,1.1,57.87,57.87,0,0,1,13.06,3.94c4.77,2.09,9.47,4.87,14.68,5a7.34,7.34,0,0,0,4.32-1c1.93-1.29,2.68-3.74,3-6,.63-4.56.12-9.44,2.22-13.54.54-1.05,1.27-2.14,1.11-3.31-.24-1.79-2.29-2.63-4-3.13l-15.45-4.44c-3.18-.92-6.73-1.8-9.68-.31-2.65,1.33-4.07,4.21-5.67,6.71a33,33,0,0,1-9.49,9.67l1.09-.18"/><path class="cls-15" d="M242.65,149.8c-3.75.48-5.8,5.11-4.84,8.77s3.94,6.4,7,8.65,6.33,4.35,8.42,7.5a11.67,11.67,0,0,0,2,2.72c2,1.62,5,.93,7.38,0A72.91,72.91,0,0,0,302.25,142a5.82,5.82,0,0,0,.87-3.46c-.26-1.53-1.63-2.6-2.89-3.52-9.35-6.76-19.05-13.68-30.32-16.16a19.43,19.43,0,0,0-9.58-.1c-6.5,1.91-10.28,8.6-12.63,15s-4.17,13.31-9.13,17.92"/><path class="cls-16" d="M264.71,104.31c-3,2.16-5.54,5.79-4.69,9.4a8.44,8.44,0,0,0,4.9,5.4,24.61,24.61,0,0,0,7.31,1.72l14.83,2a.92.92,0,0,0,.77-.13.89.89,0,0,0,.2-.5c.94-5.65-1.95-11.55-6.57-14.92s-10.72-4.38-16.37-3.48a3.27,3.27,0,0,0-2.56,1.36"/><path class="cls-17" d="M265.18,26.17c-.43,3.19,1.75,6.13,4.09,8.36s5,4.29,6.2,7.3a28.33,28.33,0,0,0,1.3,3.62c1.89,3.35,6.57,3.62,9.76,5.77a7.67,7.67,0,0,0,2.67,1.52c1.46.27,2.84-.67,4-1.56l8.2-6.15c2.08-1.56,4.37-3.55,4.25-6.14a7.75,7.75,0,0,0-.67-2.48A67.38,67.38,0,0,0,290,14a3.77,3.77,0,0,0-2-1.24,3.9,3.9,0,0,0-2.17.62L261.7,25.89a1,1,0,0,0,.43,1.2"/><path class="cls-18" d="M224,53.79a14.56,14.56,0,0,1,7.21,8.76c1.07,3.66,1.22,8.45,4.75,9.86,1.7.68,3.62.25,5.39-.19l15.93-4c2.8-.7,5.95-1.68,7.14-4.31s-.31-5.88-2.11-8.27c-2.45-3.25-5.56-6.19-6.82-10.06-.86-2.67-.8-5.66-2.21-8.08-2.3-3.93-8.54-4.71-11.74-1.47-2.2,2.24-2.84,5.71-5.18,7.81A17.06,17.06,0,0,1,233,46a36.21,36.21,0,0,0-10.06,7.93"/><path class="cls-19" d="M204.78,69a25.52,25.52,0,0,1,5.33,11.68c.42,2.37.5,4.82,1.27,7.1s2.44,4.45,4.8,5c1.89.41,3.82-.32,5.61-1L238.49,85a2.85,2.85,0,0,0,1.76-1.34,2.82,2.82,0,0,0-.42-2.26L234.5,70.74a57.38,57.38,0,0,0-2.95-5.39,27.9,27.9,0,0,0-9.3-8.91A30.19,30.19,0,0,1,203.49,68"/><path class="cls-20" d="M190.2,45.25c1,4.65,2.11,9.44,4.89,13.3s7.74,6.56,12.31,5.25a17.44,17.44,0,0,0,5.22-2.91L237,43.39c1-.73,2.15-2,1.5-3-.51-.83-1.76-.83-2.45-1.52-1.14-1.14,0-3.06,1.25-4.1,5-4.23,11.64-6.13,16.88-10.08s8.88-11.76,4.95-17c-1.51-2-3.83-3.25-6.07-4.4C248.59,1,243.28-1.34,238.85.94c-5.29,2.73-6.27,10.55-11.56,13.25-4.69,2.38-10.4-.36-15.58.57-5.33,1-9.14,5.53-13.82,8.26a25.15,25.15,0,0,0-4.48,2.8c-2.9,2.67-3.37,7.07-3.08,11s1.16,8,.18,11.78"/><path class="cls-21" d="M188.6,28.14l1.5,1.24a40.12,40.12,0,0,1-10.73-6.84c-.48-.43-1-1-.88-1.62s.62-.88,1.08-1.18a14.92,14.92,0,0,0,6-8.24A46.55,46.55,0,0,1,187,6a10,10,0,0,1,7.4-5.7,12.34,12.34,0,0,1,9.21,2.22c2.19,1.55,3.95,3.75,6.43,4.79,3,1.27,6.8.65,9.41,2.66a2.21,2.21,0,0,1,.95,1.37,2.68,2.68,0,0,1-1.15,2.18C212,20.26,201.27,22.24,194,29c-1.13,1-2.28,2.25-3.8,2.47s-3.3-1.26-2.66-2.66"/><path class="cls-22" d="M133.66,42.85c-.17-3.13-2.18-5.79-3.84-8.44s-3.1-5.89-2-8.82c.78-2.09,2.66-3.52,4.46-4.84,7.08-5.21,14.73-10.63,23.51-11.08,2.41-.12,5,.21,6.85,1.75,2.57,2.13,3,6.08,1.8,9.19s-3.73,5.51-6.35,7.58-5.44,3.92-7.64,6.43c-1.53,1.76-2.8,3.86-4.85,5s-4.83,1-7.31,1.33-5.23,1.53-5.8,4"/><path class="cls-23" d="M168.05,71.62c.95-6.5-1.45-13.49,1.12-19.55,1.45-3.44,4.38-6.17,5.44-9.75s.42-7.89,3.29-10.11a9.5,9.5,0,0,1,4.46-1.48,21.5,21.5,0,0,1,6.92-.28,7.19,7.19,0,0,1,5.44,3.86c1.53,3.56-1.09,7.41-1.9,11.19s.25,7.7,1.31,11.42a19.54,19.54,0,0,0,1.32,3.74,24.81,24.81,0,0,1,1.48,2.79c1.44,3.93-2.09,8.23-6.13,9.3s-8.3-.11-12.36-1.11-8.49-1.82-12.31-.12l-.06-1.38"/><path class="cls-24" d="M145.89,90.9c-3,4.68-6.1,10.37-3.93,15.48a40.73,40.73,0,0,0,2.4,4.08c1.41,2.47,2.08,5.3,3.35,7.85s3.41,5,6.24,5.34c3.45.46,6.55-2.27,8.34-5.26s2.84-6.44,5.09-9.1,6.38-4.3,9.23-2.29c4.49,3.17,1.4,11.36,5.48,15,2.58,2.33,6.62,1.57,9.93.51,3.51-1.14,7.25-2.69,9-5.92,3.1-5.6-1.17-13.34,2.26-18.74,1.58-2.48,4.44-3.83,6.37-6a10.54,10.54,0,0,0,.45-12.93c-2.72-3.57-7.47-5-11.94-5.24s-9,.32-13.45-.24c-6.51-.82-13.22-4.08-19.32-1.66-4.72,1.88-7.53,6.61-10.65,10.63a49.56,49.56,0,0,1-12.46,11.31"/><path class="cls-25" d="M198.31,125.72a5.64,5.64,0,0,0,2.25,7.51c1.81.91,4,.76,5.82,1.66.83.41,1.56,1,2.42,1.37,2,.8,4.32-.12,6.32-1,2.55-1.16,5.17-2.37,7.08-4.42,2.16-2.33,3.16-5.49,4.08-8.54l2-6.57c.37-1.2.72-2.59.05-3.66-.84-1.36-2.89-1.5-3.84-2.79-.36-.49-.53-1.11-.89-1.6-.82-1.1-2.35-1.29-3.71-1.48-3-.41-6-1.25-9-1s-6.2,1.77-7.16,4.63c-.66,2-.14,4.17-.47,6.24-.76,4.77-5.7,7.68-7.76,12"/><path class="cls-26" d="M204.6,229.14a1.5,1.5,0,0,0,0-3,1.5,1.5,0,0,0,0,3Z"/><path class="cls-26" d="M203.06,227a9.81,9.81,0,0,0-4.64,2.65,4.65,4.65,0,0,0-.91,5,8.46,8.46,0,0,0,2.05,2.26,22.63,22.63,0,0,1,6.86,20.86c-.29,1.47-.73,3.05-.11,4.42,1.08,2.4,4.41,2.45,7,2.13l21.27-2.62a18.66,18.66,0,0,0,4.58-.95,9.63,9.63,0,0,0,6-8.57c.08-4.22-2.64-8-3.28-12.18s.95-8.57,1.95-12.8,1.28-9.13-1.5-12.47c-2.1-2.51-5.53-3.56-8.8-3.63-6-.15-11.68,2.5-17.1,5.09-5.75,2.75-12,6-14.25,12"/><path class="cls-27" d="M249.32,219.94a8.42,8.42,0,0,0-1.53,10.93c2,2.88,6,4.89,5.86,8.39-.11,2.43-2.24,4.18-3.66,6.15a11.76,11.76,0,0,0-.55,12.58,7.46,7.46,0,0,0,2.76,2.84,9.2,9.2,0,0,0,3.69.94,26.42,26.42,0,0,0,18.5-5.57c1.84-1.46,3.65-3.25,6-3.54,1.25-.16,2.55.14,3.77-.16,2.87-.71,4-4.3,3.61-7.23S286,239.55,286,236.6c0-4,2.4-7.51,3.48-11.34s.81-8.08.51-12.14a4.71,4.71,0,0,0-.82-2.77,4.58,4.58,0,0,0-2.45-1.2q-8.12-2.11-16.31-4a13.76,13.76,0,0,0-6.07-.42c-2.77.64-4.85,2.88-6.74,5l-11,12.35"/><path class="cls-28" d="M290.94,239.54c-2.81,2.18-2.72,6.43-1.93,9.9s2,7.22.5,10.46c-.54,1.17-1.4,2.19-1.84,3.4s-.29,2.82.81,3.48a3.44,3.44,0,0,0,2.45.2c6.72-1.3,12.21-6.92,19.05-7.35,3.51-.23,7.55.83,10.22-1.46,3.06-2.62,1.95-7.65-.26-11a14.08,14.08,0,0,1-2.14-3.91,14.57,14.57,0,0,1,0-4.52,21.49,21.49,0,0,0-10.68-19.67c-1.47-.83-3.5-1.4-4.69-.21a3.82,3.82,0,0,0-.88,1.83c-.84,3.26-.8,6.69-1.65,10s-3,6.53-6.24,7.28a25.77,25.77,0,0,0-3.75.65c-1.19.46-2.19,1.85-1.6,3"/><path class="cls-29" d="M249.67,323.71c3.57-.89,7.22-1.82,10.29-3.85s5.52-5.4,5.42-9.08c-.12-4.41-3.76-8.3-3.31-12.69.22-2.17,1.42-4.1,2.43-6a38.09,38.09,0,0,0,4.21-15.34,8.62,8.62,0,0,1,.82-4.07c1.41-2.35,4.68-2.53,7.42-2.44l11.08.38c2.31.08,4.85.25,6.48,1.88,3,2.94.68,8.15-2.59,10.74s-7.51,4.22-9.64,7.8c-1.21,2-1.58,4.42-2.15,6.7-2.57,10.37-9.76,20.51-6.8,30.77-5.52,1.63-11.43,1-17.15.31a14.41,14.41,0,0,1-5.35-1.35,4.87,4.87,0,0,1-2.71-4.49c.2-1.84,2.38-3.35,4-2.48"/><path class="cls-30" d="M276.18,324.6c3.73,5.69,12.47,7.28,18,3.25,1.91-1.4,3.5-3.38,5.77-4.07s4.68.07,7-.31c4.25-.69,7.09-5.15,7.28-9.45s-1.67-8.42-3.75-12.19a13.39,13.39,0,0,0-2.79-3.81,18,18,0,0,0-3.78-2.25c-5.87-3-11.52-7.76-18.11-7.24a5.11,5.11,0,0,0-3,1.06c-1.64,1.44-1.42,4-1.47,6.16-.14,5.58-2.94,10.7-4.91,15.93s-3.06,11.44,0,16.14"/><path class="cls-31" d="M287.6,350.64a1.5,1.5,0,0,0,0-3,1.5,1.5,0,0,0,0,3Z"/><path class="cls-31" d="M285.63,349.14a2,2,0,0,1-2.32-1,4.18,4.18,0,0,1-.25-2.71c.57-3.2,2.63-5.9,4.62-8.47s4.68-5.62,8.07-5.53a5.56,5.56,0,0,1,4.71,3c1.1,2.21.58,4.85,0,7.27l-1.82,8a13.79,13.79,0,0,0-.47,5.66,17.94,17.94,0,0,0,1.1,3.08,34.93,34.93,0,0,1,2.48,10,92.17,92.17,0,0,1-16.67,1.22,3.61,3.61,0,0,1-1.63-.29c-1.2-.61-1.36-2.23-1.36-3.58l-.07-19.68a3.8,3.8,0,0,1,.37-2.06c.95-1.59,3.35-1.07,5.05-.35"/><path class="cls-32" d="M295.07,369.65a15.87,15.87,0,0,1,2.81,13.1c-.75,3.17-2.42,6.73-.58,9.41s5.89,2.39,9.11,1.77a3.54,3.54,0,0,0,2.35-1.12,3.21,3.21,0,0,0,.45-1.7c.17-3.59-.83-7.31.34-10.7.67-2,2.05-4,1.35-5.89a5.41,5.41,0,0,0-1.26-1.82,30.65,30.65,0,0,0-4.84-4.19c-2-1.38-4.34-2.57-6.73-2.17s-4.45,3.07-3.41,5.26"/><path class="cls-33" d="M165.34,355.38a14.32,14.32,0,0,0-3.55,3.86,4.89,4.89,0,0,0,0,5,13.56,13.56,0,0,0,2.45,2.2c2.76,2.43,3.65,6.69,6.84,8.52,1.8,1,4.09,1.13,5.66,2.48,1.16,1,1.72,2.5,2.67,3.69,1.66,2.08,4.35,3,6.94,3.56,3,.66,6.9.59,8.42-2.12.93-1.66.59-3.71.23-5.58l-.81-4.14c-1.62-8.31-3.33-16.86-8-23.94a12.2,12.2,0,0,0-2.76-3.18c-3.62-2.72-8.85-1.66-12.84.48a6.13,6.13,0,0,0-2.27,1.78c-1.75,2.54,0,7.11-2.8,8.43"/><path class="cls-34" d="M162.25,390.34a53,53,0,0,0-7.12,5.44c-1.49,1.36-3,3.13-2.68,5.12.43,2.57,3.56,3.55,6.13,4l24.6,4.34c3.06.54,6.47,1,9.09-.66,1.52-1,2.54-2.52,3.75-3.86a17,17,0,0,1,8-5,5.42,5.42,0,0,0,2.55-1.15c1.61-1.67,0-4.43-1.89-5.83-4-3-9-4.45-13.8-5.8l-13.69-3.84a19.35,19.35,0,0,0-6.46-1.05,10.12,10.12,0,0,0-9,11"/><path class="cls-35" d="M161.1,389a80.73,80.73,0,0,0-16.63,2.71,8.6,8.6,0,0,0-3.91,1.88c-.77.78-1.23,1.81-1.93,2.66a7.88,7.88,0,0,1-4.67,2.54c-4.46.83-9.09-1.13-12.41-4.21s-5.53-7.17-7.42-11.29a16.53,16.53,0,0,1-1.5-4.39c-.7-4.7,2.43-9.17,6.1-12.19s8-5.2,11.35-8.62c2.78-2.87,4.91-6.66,8.61-8.16,3.37-1.37,7.26-.48,10.75-1.47,2.56-.73,4.72-2.4,7-3.79s4.9-2.55,7.51-2.06,4.89,3.29,3.95,5.77a10.83,10.83,0,0,1-1.71,2.51c-2.81,3.74-2.77,8.89-1.87,13.48s2.56,9.08,2.57,13.76-2.17,9.81-6.57,11.4"/><path class="cls-36" d="M86.53,346.42q-4.26,1.6-8.5,3.26a3,3,0,0,0-2.45,3.17c-.29,2.39-.44,5.19,1.35,6.8,1.93,1.76,5.09,1.14,7.33,2.48,1.89,1.13,2.74,3.37,4.06,5.14,2,2.69,5.17,4.24,8.21,5.7l8.77,4.21c1.61.77,3.36,1.56,5.1,1.18,2.66-.59,4-3.54,4.73-6.15a66.88,66.88,0,0,0,2-10,5.11,5.11,0,0,0-.15-2.55,5.19,5.19,0,0,0-1.63-1.86l-6.22-5.16a29.16,29.16,0,0,0-4.34-3.16,24,24,0,0,0-7.73-2.33,80.74,80.74,0,0,0-13-1.08"/><path class="cls-37" d="M52.56,323.6l-5.63,5a2.29,2.29,0,0,0-.81,1.12c-.16.78.52,1.46,1.14,2l20.07,16.52,6,4.93a2.63,2.63,0,0,0,.86.53,2.36,2.36,0,0,0,1.38-.15,24.76,24.76,0,0,0,9.07-5.26,5,5,0,0,0,1.27-1.58c.75-1.7-.37-3.62-1.58-5-2.93-3.42-6.88-6.48-7.55-10.94-.25-1.65,0-3.35-.16-5-.53-5.79-5.59-10-10.24-13.45a3.35,3.35,0,0,0-2.58-.95,3.39,3.39,0,0,0-1.68,1.35,119.24,119.24,0,0,1-13.16,13.9"/><path class="cls-38" d="M75.79,300.77c-1.52,2.79-3.09,5.84-2.63,9,.41,2.8,2.34,5.1,4.2,7.23a24.42,24.42,0,0,0,6.21,5.67c2.07,1.15,4.47,1.72,6.29,3.23,1.08.9,1.89,2.09,3,3a12.39,12.39,0,0,0,6,2.21,44.35,44.35,0,0,0,16.4-.55,2.61,2.61,0,0,0,1.64-.84,2.06,2.06,0,0,0,.26-1.44c-.49-4.09-5.91-6.7-5.41-10.79.24-1.93,1.79-3.44,2.36-5.3,1.24-4-2.37-7.89-6.1-9.78s-8.11-3-10.72-6.29a10.13,10.13,0,0,0-2.21-2.48c-1.43-.9-3.28-.58-4.92-.17a85.33,85.33,0,0,0-9.38,2.88,10.83,10.83,0,0,0-3.67,2c-2.81,2.58-2.39,7.05-1.75,10.8"/><path class="cls-39" d="M82.1,271.64c-1.34,3.18-3.4,6.07-4.24,9.41s0,7.53,3.11,9a13.41,13.41,0,0,0,4.28.91c7.83,1.05,14.66,6,22.43,7.4a5.84,5.84,0,0,0,4.32-.48,6.55,6.55,0,0,0,1.84-2.41l6.06-11.18a7.06,7.06,0,0,0,1.1-3.12c0-1.82-1.32-3.33-2.59-4.64l-10.77-11.14a3.5,3.5,0,0,0-4.24-1.22l-8.88,2c-3.39.78-6.83,1.57-9.81,3.34s-5.5,4.68-5.89,8.12"/><path class="cls-40" d="M119.1,313.13c-1.24,2.46-1.07,5.37-.87,8.11l1.12,15.13a10.7,10.7,0,0,0,.57,3.23,10.86,10.86,0,0,0,2.93,3.66c3.35,3.12,7,6.38,11.46,7.22,6,1.12,11.77-2.29,16.9-5.55l14.28-9.09c1.19-.76,2.56-1.94,2.16-3.3a3.63,3.63,0,0,0-1.64-1.72,22.31,22.31,0,0,1-8-10c-1-2.52-1.59-5.21-2.55-7.76a26.5,26.5,0,0,0-6.86-10.16c-2-1.88-4.63-3.49-7.38-3.22-3.73.37-6.18,3.92-9.24,6.1-2.65,1.89-5.87,2.78-8.77,4.24s-5.71,3.85-6.18,7.07"/><path class="cls-41" d="M136.09,286.64l0,6.89a15.37,15.37,0,0,1,8.65,2c2.47,1.62,4.1,4.22,6.23,6.26,1.93,1.86,4.81,3.31,7.24,2.16,2.1-1,3-3.55,3-5.88s-.5-4.64-.31-6.95a5,5,0,0,1,.56-2.09c.79-1.38,2.44-2,3.78-2.84s2.51-2.62,1.67-4c-3.89-.76-7.83.58-11.71,1.35a36.53,36.53,0,0,1-8.85.69c-2.71-.13-5.51-.6-8.1.22s-4.87,3.53-4,6.12"/><path class="cls-42" d="M117.48,240.24c-1.63-.36-2.7,1.61-3.18,3.2q-2.43,8.09-4.58,16.23a38.58,38.58,0,0,1,15.84,6.25,26.79,26.79,0,0,0,4.89,3,18.61,18.61,0,0,0,5.6,1,15.94,15.94,0,0,0,6.78-.52c4.31-1.61,6.53-6.53,6.81-11.12s-.89-9.15-1.16-13.74A2.59,2.59,0,0,0,148,243a2.52,2.52,0,0,0-1.44-.6l-22.47-3.93a37,37,0,0,0-7.18-.77c-1.72.05-3.84.72-4.07,2.43"/><path class="cls-43" d="M153.37,239c-2.45,5-1.17,10.88.17,16.26a4.52,4.52,0,0,0,.86,2,4.45,4.45,0,0,0,2.75,1.1L173.6,261a1.08,1.08,0,0,0,1.51-1.27l0-14.74a189.31,189.31,0,0,0-20.79-4.56c-1.62-.26-3.52-.4-4.64.79"/><path class="cls-44" d="M152.35,228.92c-1.49,2.16-.47,5.31,1.53,7s4.66,2.35,7.22,2.93l15.35,3.5a10.17,10.17,0,0,0,3.63.37c2.07-.28,3.74-1.78,5.19-3.28a18.54,18.54,0,0,0,4.23-6c1.44-3.73,1.3-8.83,4.95-10.47,1.83-.82,4-.35,6-.54s4.27-1.7,3.86-3.66a4.58,4.58,0,0,0-2.3-2.55l-9.18-5.95c-3.46-2.24-7.1-4.55-11.2-5s-8.8,1.65-9.89,5.63a16.77,16.77,0,0,1-.84,3.26,7.35,7.35,0,0,1-3.4,2.8L159,221.49a20.46,20.46,0,0,0-6.25,4.39c-1.66,2-2.52,4.8-1.44,7.12"/><path class="cls-45" d="M169.56,321.12l-.94,1.9c4.65,0,9,2.53,12.27,5.83s5.7,7.34,8.35,11.16a12,12,0,0,0,3.39,3.6,13,13,0,0,0,4,1.33c5.9,1.28,12.38,2.5,17.74-.29,1.69-.87,3.16-2.11,4.84-3,3.65-2,8.1-2.29,11.49-4.69a10.18,10.18,0,0,0,4.33-8.17,8.63,8.63,0,0,0-4.84-7.71c-5.38-2.44-11.32,1.62-17.16,2.46a32,32,0,0,1-9.1-.46L176.37,319c-2.23-.33-4.59-.64-6.65.26s-3.53,3.51-2.41,5.46"/><path class="cls-46" d="M198.11,322.21c-2.11-7.77,5.37-14.79,6.69-22.73.24-1.45.32-3,1.28-4.15a6.3,6.3,0,0,1,3.28-1.65A211.23,211.23,0,0,1,242,287.44a6.16,6.16,0,0,1,3.88.44c1.7,1,2,3.36,3.15,5,.85,1.19,2.23,2.11,2.5,3.55.52,2.81-3.29,4.27-4.74,6.72s-.25,5.86-.71,8.8c-.61,3.85-4.21,6.65-8,7.66s-7.74.63-11.64.48a91.62,91.62,0,0,0-19.07,1.32c-2.52.45-5.15,1-7.61.27s-4.61-3.26-3.91-5.73"/><path class="cls-47" d="M169.51,303.14A22.62,22.62,0,0,1,176.05,278c1.77-1.44,3.85-2.69,4.93-4.72,1.69-3.16.41-7-.52-10.47s-1.16-7.84,1.74-9.95,7.45-.29,9.65,2.69,3,6.76,4.59,10.11a22.86,22.86,0,0,0,20.3,12.68c3,0,6.09-.66,9.09-.21s6.11,2.41,6.53,5.42c.4,2.82-1.74,5.47-4.3,6.73s-5.47,1.48-8.29,1.92c-5.63.9-11.46,3.08-14.68,7.79-1.93,2.81-2.72,6.26-4.54,9.15-2.73,4.33-7.57,7-12.57,8.09s-10.19.74-15.27.11a7.7,7.7,0,0,1-3.92-1.24c-1.71-1.35-2-3.78-2.14-5.95-.38-6.71.47-14.87,6.51-17.82"/><path class="cls-48" d="M194.69,238.72A19.66,19.66,0,0,0,189.81,256a14.87,14.87,0,0,0,1.72,4.66,23,23,0,0,0,4.87,5.28c3.76,3.32,7.64,6.71,12.37,8.38a32.84,32.84,0,0,0,11.51,1.4c8.25-.16,17.26-1.77,22.59-8.06,1.06-1.25,2-3,1.15-4.45-.67-1.15-2.15-1.49-3.47-1.67a64.81,64.81,0,0,0-21.83.72c-3.49.72-7.46,1.63-10.33-.47-3.12-2.28-3.2-6.79-4.53-10.41a28.6,28.6,0,0,0-5-7.82c-1.73-2.14-4.52-4.51-6.86-3.07"/><path class="cls-49" d="M23.54,238.52c-1.63,1.19-2,3.42-2.26,5.42a9.88,9.88,0,0,0,0,3.87,11,11,0,0,0,2.24,3.67,57.48,57.48,0,0,1,7,11.21,23.56,23.56,0,0,0,3.4,5.91c1.53,1.7,3.9,2.86,6.1,2.24,1.88-.52,3.2-2.18,4.36-3.75,1.57-2.14,3.11-4.3,4.6-6.5a20.46,20.46,0,0,0,3.49-7.06c.63-3.06-.1-6.24-1-9.22a26.11,26.11,0,0,0-4.08-8.46,11.81,11.81,0,0,0-7.9-4.7c-2.73-.26-5.42.71-8,1.67-4.08,1.51-8.49,3.3-10.6,7.11"/><path class="cls-50" d="M15.31,219.92,1.86,230a2.8,2.8,0,0,0-1.17,1.36c-.28,1,.61,1.94,1.37,2.68a23.16,23.16,0,0,1,4.2,5.53,36.87,36.87,0,0,0,2,3.58c2.06,2.91,5.45,4.53,8.69,6a8.42,8.42,0,0,0,3.05,1,8.54,8.54,0,0,0,4.32-1.38,19.55,19.55,0,0,0,5.88-4.12c1.58-1.83,2.45-4.47,1.53-6.7a9.74,9.74,0,0,0-2-2.8c-5.48-5.94-11.36-12.13-19.12-14.4"/><path class="cls-51" d="M28,267.86a2.22,2.22,0,0,0-3.06.77,6.42,6.42,0,0,0-.78,3.42l-.56,14.37a3.6,3.6,0,0,0,.38,2.18c.86,1.3,3.08,1.11,3.88,2.45.52.86.2,2,.39,2.95.46,2.5,3.65,3.22,6.18,3.39l9.52.66c3.47.24,7.22.41,10.14-1.49s4.42-5.49,7.51-7a28,28,0,0,0,3.27-1.41c1.9-1.24,2.61-3.78,2.31-6a18.32,18.32,0,0,0-2.51-6.28L57.8,263.48a3.35,3.35,0,0,0-.93-1.2,3,3,0,0,0-1.83-.36c-6.51.21-12.46,3.75-18.91,4.66-2.44.35-4.94.31-7.37.8S23.9,269,22.6,271.12"/><path class="cls-52" d="M33.62,281.65v12.06a4.89,4.89,0,0,1-.54,2.73c-1,1.54-3.5,1.51-4.59,3a3.66,3.66,0,0,0,.22,4,30.72,30.72,0,0,0,2.76,3.17c3.6,4.31,3.63,11,7.77,14.78a9.33,9.33,0,0,0,15.45-5.18c.45-2.44,0-5.23,1.54-7.18C59,305.5,65,308.07,68.9,306c2.83-1.53,3.86-5.41,2.69-8.41a10.34,10.34,0,0,0-7.22-5.86,21.07,21.07,0,0,0-9.57.23,3.24,3.24,0,0,1-2.53-.14,3.71,3.71,0,0,1-1.05-2.36c-1.2-5.13-6.56-8.15-11.66-9.46-1.89-.49-4-.82-5.72.06s-2.72,3.4-1.41,4.84"/><path class="cls-53" d="M25.44,267.21a7.91,7.91,0,0,0-6.74-4,18,18,0,0,0-8,1.8,8.76,8.76,0,0,0-3.88,2.63c-1.81,2.5-.81,6,.25,8.87l5,13.81a8.79,8.79,0,0,0,2,3.62c1.73,1.6,4.38,1.55,6.73,1.4a4,4,0,0,0,2.68-.85,4,4,0,0,0,.77-2.6q.57-11.1,1.15-22.2c.08-1.57-.42-3.76-2-3.63"/><path class="cls-54" d="M48.93,236.37c4.88,4,12,2.81,18.17,1.4l13.6-3.1a8.4,8.4,0,0,0,3-1.08A6.24,6.24,0,0,0,86,230.07c1.54-5.37-1.44-11.32-6-14.47s-10.49-3.92-16.06-3.53a5,5,0,0,0-2.7.75,6.69,6.69,0,0,0-1.55,2.27c-1.66,3-4.57,5-7.32,7s-5.57,4.25-6.85,7.41-.37,7.46,2.77,8.8"/><path class="cls-55" d="M12.48,219.32a85.09,85.09,0,0,1-10.3-9.14A7.27,7.27,0,0,1,.13,207.1c-.64-2.46,1.23-4.82,3-6.61a90,90,0,0,1,17.09-13.32,8.59,8.59,0,0,1,4.88-1.66c4.54.32,6.23,6.82,10.62,8.06,2,.58,4.21-.13,6.33-.24,4.51-.24,8.79,2.34,11.71,5.77s4.74,7.65,6.5,11.8A6.08,6.08,0,0,1,61,214c-.21,1.67-1.71,2.83-3.09,3.79L44.58,227.1c-3.38,2.37-6.87,4.78-10.89,5.74A17,17,0,0,1,15.08,224c-1.58-3.23-2.5-7.42-5.86-8.69"/><path class="cls-56" d="M14.62,154.06c-1.9,2.44-1.16,6,.31,8.74s3.62,5.11,4.48,8.07c.68,2.33.52,4.81.82,7.21s1.23,5,3.33,6.15c2.79,1.58,6.27.15,9.09-1.37,6.42-3.46,12.9-7.73,16.06-14.31,2.48-5.15,2.6-11.07,2.68-16.78.08-6.52.13-13.26-2.45-19.25s-8.53-11-15-10.42a4.57,4.57,0,0,0-3.34,1.53,4.81,4.81,0,0,0-.75,2.17c-.46,3.07-.1,6.21-.48,9.29a19.81,19.81,0,0,1-9.24,14.33c-3.18,1.94-7.19,3.24-8.75,6.63"/><path class="cls-57" d="M25.76,129c-3-6,1.36-13.19,6.74-17.18s12-6.53,16.17-11.77c5.11-6.41,5.62-15.75,11.22-21.74C66.34,71.43,79,72,84.8,79.36c5,6.39,4.75,15.5,8.53,22.7,1.9,3.62,4.86,7.91,2.58,11.31-3.77-2.79-7.7-5.54-12.22-6.78s-9.8-.69-13.22,2.51c-3,2.82-4.09,7.13-4.66,11.22s-.78,8.34-2.61,12-5.84,6.75-9.88,5.88c-2.2-.47-4-2-5.85-3.29a35.77,35.77,0,0,0-25.27-6.14"/><path class="cls-58" d="M67,129.13A23.31,23.31,0,0,1,58.5,142.7c-1.59,1.23-3.51,2.52-3.73,4.53-.36,3.19,3.56,4.86,6.54,6.06,4.2,1.71,8.07,4.69,9.85,8.86.9,2.11,1.48,4.73,3.59,5.64s4.36-.43,6.12-1.81c4.8-3.78,8.8-8.46,12.75-13.11,2.46-2.89,5-5.86,6.27-9.42a32.26,32.26,0,0,0,1.45-8.29l1.24-14.34a5.83,5.83,0,0,0-.22-2.79,5.71,5.71,0,0,0-2.3-2.27,167,167,0,0,0-21.29-11.94c-2-.95-4.29-1.88-6.47-1.33-3,.78-4.64,4.05-5.84,7-1.83,4.48-3.71,9.3-2.68,14,.42,1.94,1.32,3.75,1.69,5.7s.07,4.22-1.46,5.47"/><path class="cls-58" d="M107.05,114.22c1.79,1.4,3.66,2.9,4.46,5,.48,1.29.52,2.7.88,4,.88,3.23,3.54,5.62,6.07,7.81,2.12,1.84,4.52,3.78,7.32,3.72,2.4-.06,4.48-1.58,6.39-3l10.33-7.89c1.86-1.42,3.91-3.23,3.79-5.57-.18-3.35-4.33-4.63-7-6.68s-4.15-5.61-6-8.6-4.85-5.88-8.35-5.5c-2.67.3-4.73,2.4-6.55,4.38l-13.19,14.31"/><path class="cls-59" d="M100.58,120a38.75,38.75,0,0,1,12.61-.82,2.43,2.43,0,0,1,1.42.46,2.32,2.32,0,0,1,.56,1.72c0,2-.43,4.16.18,6.13.68,2.24,2.63,3.91,3.37,6.13s.21,4.44.37,6.68c.31,4.18,2.92,8.19,2,12.28a4.09,4.09,0,0,1-1.42,2.47,5.53,5.53,0,0,1-3.53.66l-7.31-.24a4.73,4.73,0,0,1-3-.81,5.49,5.49,0,0,1-1.28-3.06,18.19,18.19,0,0,0-4.07-8.07,17,17,0,0,1-2.31-2.86c-1.56-2.81-.59-6.29.42-9.34l3.85-11.69"/><path class="cls-60" d="M139.15,129.24a66.93,66.93,0,0,0-10,4.9,7.61,7.61,0,0,0-2.92,2.58,8.12,8.12,0,0,0-.66,4l.11,15.4a144.51,144.51,0,0,1,20.59,6.13c1.65.63,3.42,1.41,4.22,3a4.43,4.43,0,0,0,.85,1.5,2.53,2.53,0,0,0,1.47.5c4.52.4,8.78-2.17,12.14-5.21s6.26-6.65,10.07-9.12,8.45-3.66,12.88-5a3.14,3.14,0,0,0,1.92-1.12,3,3,0,0,0-.25-2.8c-2.75-5.77-8.19-9.91-14.08-12.4s-12.27-3.51-18.58-4.52c-4.4-.7-8.86-1.4-13.28-.9s-8.88,2.35-11.57,5.9"/><path class="cls-61" d="M108.62,163.14l-.05,12a3.57,3.57,0,0,0,.34,1.89,5.12,5.12,0,0,0,1.72,1.39,6.25,6.25,0,0,1,1.81,8.05c-.64,1.07-1.64,2.06-1.6,3.3a2.94,2.94,0,0,0,2.27,2.52,8.41,8.41,0,0,0,3.6,0c10.8-1.72,22.35-4.45,29.47-12.75,1.25-1.45,2.39-3.35,1.83-5.19s-2.58-2.8-4.45-3.32c-4.21-1.18-8.74-1.33-12.7-3.2-1.4-.67-2.7-1.53-4.11-2.16-2.94-1.29-6.24-1.5-9.27-2.58-2.1-.75-4-1.92-6.2-2.52s-4.68-.53-6.35,1c-2.37,2.12-1.41,6.73,1.61,7.73"/><path class="cls-62" d="M92.1,175.64l-7.12,0a3.54,3.54,0,0,0-1.91.35,3.57,3.57,0,0,0-1.28,2q-1.41,3.94-2.7,7.93a5.79,5.79,0,0,0-.38,3.27c.59,2.07,3.17,2.8,4.52,4.49s1.23,4.34.32,6.39a34.81,34.81,0,0,1-3.72,5.59,3.29,3.29,0,0,0-.82,2.68c.35,1.19,1.77,1.63,3,1.89,4,.87,8.32,1.72,12.13.16a20.54,20.54,0,0,0,4.08-2.47l10.91-7.82a5.08,5.08,0,0,0,1.84-1.9,10.07,10.07,0,0,0,.33-3c.24-2.29,2-4.3,1.89-6.6a8.25,8.25,0,0,0-1-3.06l-3-6.34c-1.23-2.56-2.67-5.33-5.29-6.42s-5.62-.14-8.19,1.07-5.14,2.71-8,2.76"/><path class="cls-63" d="M59.39,172.78A78,78,0,0,0,46.7,184.1,5.3,5.3,0,0,0,45,187.33,4.65,4.65,0,0,0,46.05,190a17,17,0,0,0,4.51,4.4c2.41,1.61,5.55,3,6,5.89a8.15,8.15,0,0,0,.33,2.1,4.1,4.1,0,0,0,1.37,1.44c3.89,2.92,8.12,6,13,6.11,2.19.07,4.6-.62,5.76-2.48a8.63,8.63,0,0,0,.92-4.42l.52-18.63a14,14,0,0,0-.14-3.11,9.3,9.3,0,0,0-4.44-5.79,27.74,27.74,0,0,0-7-2.72c-2.23-.64-4.58-1.29-6.83-.75s-4.29,2.72-3.8,5"/><path class="cls-64" d="M53.29,242.91c3.08-3.35,8-4.22,12.45-4.9L81,235.7c2.75-.42,5.79-.78,8.14.71,3.24,2.05,3.77,6.67,6.58,9.29,1.43,1.34,3.34,2,5,3a15.86,15.86,0,0,1,6.82,8.1,5.45,5.45,0,0,1,.35,3.5c-.59,1.89-2.69,2.82-4.6,3.32-4.11,1.05-8.5,1.15-12.33,3-3.31,1.57-5.92,4.28-8.51,6.86s-5.38,5.17-8.85,6.36-7.79.63-10-2.26-1.92-6.8-4.06-9.54c-2-2.55-5.58-3.4-7.63-5.9-2.34-2.85-2-7-1.62-10.65.45-3.86,1.1-8.11,4.07-10.62"/><path class="cls-65" d="M102.11,102.5c.79-5.44,1.68-10.92,3.74-16s5.44-9.83,10.21-12.55c1.93-1.11,4-1.86,6-3s3.32-2.43,5.08-3.49c5.15-3.11,11.48-3.27,17.49-3.34a7,7,0,0,1,3,.41c1.65.75,2.46,2.69,2.54,4.5a30.64,30.64,0,0,1-.65,5.38c-.36,2.83-.08,5.71-.55,8.52-1.35,8-8.94,13.93-17,15-4.94.68-10.35-.1-14.58,2.54-.92.58-1.75,1.31-2.68,1.88a19.34,19.34,0,0,1-7.19,2.18,9,9,0,0,1-5.12-.14c-1.58-.71-2.66-2.81-1.67-4.24"/><path class="cls-66" d="M134.73,67.51a11.3,11.3,0,0,1-1.42-12.18c1-2,2.69-3.73,3.31-5.9.33-1.14.35-2.35.7-3.48,1.13-3.74,5.58-5.65,9.45-5.13S154,43.7,157,46.15a13.34,13.34,0,0,0,4.38,2.74c2.33.69,5.44.29,6.56,2.44a5.24,5.24,0,0,1,.45,1.84c.66,5.6,1.18,11.79-2.1,16.39-2.65,3.73-7.38,5.56-11.95,5.73s-9.07-1.12-13.42-2.56a14.89,14.89,0,0,1-5.07-2.48,5.27,5.27,0,0,1-2-5"/><path class="cls-67" d="M109.1,51.64a1.5,1.5,0,0,0,0-3,1.5,1.5,0,0,0,0,3Z"/><path class="cls-67" d="M107.11,49.13c-2.81-.92-4.11-4.21-4.24-7.17a13.32,13.32,0,0,1,2.36-8.46,9.57,9.57,0,0,1,7.63-4,14,14,0,0,1,4.91,1.23c2.88,1.19,5.74,2.82,7.4,5.45.66,1,1.1,2.21,1.73,3.26,2.51,4.19,7.83,6.57,9.07,11.29,1,3.83-1.23,7.92-4.4,10.28s-7.14,3.37-11,4.33l-6.43,1.6a4,4,0,0,1-1.94.14c-1.74-.46-2-2.77-2-4.57,0-5.1-1.23-10.78-5.45-13.64"/><path class="cls-68" d="M69,72.33a13.81,13.81,0,0,1-6.64-5.69,3.36,3.36,0,0,1-.57-1.57c0-1.58,1.74-2.49,3.22-3.06A64.12,64.12,0,0,0,95.14,37.78c.6-.9,1.39-1.93,2.47-1.84a2.58,2.58,0,0,1,1.18.47c4.15,2.56,6.89,7,8.39,11.61s1.88,9.55,2.25,14.41a10.9,10.9,0,0,1-.24,4.3c-1.17,3.47-5.58,5.19-6.36,8.77-.61,2.78,1.09,6.21-.89,8.26A5.09,5.09,0,0,1,99.26,85a15.65,15.65,0,0,1-11.72-2.29c-2.66-1.79-4.78-4.41-7.73-5.68-2.4-1-5.11-1.06-7.64-1.73S67,73,66.66,70.35"/><path class="cls-69" d="M365.14,150.81c-5.23-.22-10.59-4.22-10.64-9.45,0-3.08,1.67-5.87,3.32-8.47a77.79,77.79,0,0,1,5.06-7.39,40.12,40.12,0,0,1,27.82-14.69c3.18-.25,7,.21,8.54,3,2.79,4.88-4.06,10.74-2.44,16.11,1.06,3.55,5.3,5.13,7.11,8.36a13.67,13.67,0,0,1,1.33,4.85l2.47,16.69a8.24,8.24,0,0,1,0,3.73c-1.06,3.21-5.27,3.79-8.65,3.8s-7.14-.15-9.45-2.59a26.84,26.84,0,0,1-2.23-3.23c-6-8.51-20.37-5.51-27.88-12.74"/><path class="cls-70" d="M338.36,241.7c-3.87,2-9.33-1.12-9.57-5.47-.21-3.76,2.72-6.89,4-10.43.95-2.64,1-5.56,2-8.15,1.56-3.78,5.09-6.31,8.36-8.77a155.57,155.57,0,0,0,19.12-17.06,12.78,12.78,0,0,1,2.5-2.21,10,10,0,0,1,3.54-1.16c6.3-1.13,13.16-.26,18.37,3.45s8.38,10.55,6.75,16.74c-.77,2.94-2.51,5.55-3.31,8.48-1.33,4.89.1,10.08-.2,15.14-.74,12.23-13.3,22.39-25.41,20.55-6.3-1-11.83-4.55-17.59-7.28s-12.56-4.64-18.42-2.11"/><path class="cls-71" d="M97.16,210.36c1.34,3.49-3.67,7.89-1.1,10.61a10.23,10.23,0,0,0,1.56,1.11c3.5,2.49,3,8,5.66,11.35,2.47,3.07,7,3.51,10.9,3s7.85-1.68,11.72-1c2,.37,3.81,1.22,5.73,1.78s4.43.26,4.64-1.6a3.32,3.32,0,0,0-.94-2.28,20.55,20.55,0,0,0-10-6.82c-3.28-1-6.79-1.18-10-2.44-4.72-1.86-8.22-5.86-11.31-9.88-1.3-1.7-2.69-3.52-4.71-4.23s-4.81.39-5,2.53"/><path class="cls-72" d="M150.44,259.11c-3.63,5.32-7.42,10.78-12.88,14.19-2.44,1.53-5.16,2.6-7.41,4.4s-4,4.61-3.49,7.44c10.2-.13,20-4.45,30.22-4.39,3.21,0,6.48.47,9.6-.29s6.15-3.18,6.32-6.39a10,10,0,0,0-1.47-5c-2.78-5.36-7-10.77-13-11.59-4.71-.64-9.38,1.82-12.74,5.17"/></g></g></g></svg>