<svg xmlns="http://www.w3.org/2000/svg" viewBox="0 0 85.66 150"><defs><style>.cls-1{fill:#d1c0aa;}.cls-2{fill:#e3d4c3;}.cls-3{fill:#bdac99;}.cls-4{fill:#cfbda8;}.cls-5{fill:#dbc8b2;}</style></defs><title>white-chocolate</title><g id="Layer_2" data-name="Layer 2"><g id="Layer_19" data-name="Layer 19"><g id="White_Chocolate" data-name="White Chocolate"><polygon class="cls-1" points="28.55 0 23.09 5.47 5.47 5.47 0 0 28.55 0"/><polygon class="cls-2" points="5.47 5.47 5.47 32.03 0 37.5 0 0 5.47 5.47"/><polygon class="cls-3" points="28.55 0 28.55 37.5 23.09 32.03 23.09 5.47 28.55 0"/><polygon class="cls-4" points="28.55 37.5 0 37.5 5.47 32.03 23.09 32.03 28.55 37.5"/><rect class="cls-5" x="5.47" y="5.47" width="17.62" height="26.57"/><path class="cls-1" d="M51.86,5.25l-.22.22H34L28.55,0H48.46A14.82,14.82,0,0,0,51.86,5.25Z"/><polygon class="cls-2" points="34.02 5.47 34.02 32.03 28.55 37.5 28.55 0 34.02 5.47"/><path class="cls-3" d="M57.1,13.23V37.5L51.64,32V5.47l.22-.22a14.67,14.67,0,0,0,4.48,3.12c0,.12,0,.25,0,.37A13.36,13.36,0,0,0,57.1,13.23Z"/><polygon class="cls-4" points="57.1 37.5 28.55 37.5 34.02 32.03 51.64 32.03 57.1 37.5"/><rect class="cls-5" x="34.02" y="5.47" width="17.62" height="26.57"/><path class="cls-2" d="M62.57,20V32L57.1,37.5V13.23A13.48,13.48,0,0,0,62.57,20Z"/><path class="cls-3" d="M85.66,23V37.5L80.19,32V23a17.54,17.54,0,0,0,2.73.21A17.77,17.77,0,0,0,85.66,23Z"/><polygon class="cls-4" points="85.66 37.5 57.1 37.5 62.57 32.03 80.19 32.03 85.66 37.5"/><path class="cls-5" d="M80.19,23v9H62.57V20a13.25,13.25,0,0,0,7.05,2,13.35,13.35,0,0,0,4.87-.92A17.6,17.6,0,0,0,80.19,23Z"/><polygon class="cls-1" points="28.55 37.5 23.09 42.97 5.47 42.97 0 37.5 28.55 37.5"/><polygon class="cls-2" points="5.47 42.97 5.47 69.53 0 75 0 37.5 5.47 42.97"/><polygon class="cls-3" points="28.55 37.5 28.55 75 23.09 69.53 23.09 42.97 28.55 37.5"/><polygon class="cls-4" points="28.55 75 0 75 5.47 69.53 23.09 69.53 28.55 75"/><rect class="cls-5" x="5.47" y="42.97" width="17.62" height="26.57"/><polygon class="cls-1" points="57.1 37.5 51.64 42.97 34.02 42.97 28.55 37.5 57.1 37.5"/><polygon class="cls-2" points="34.02 42.97 34.02 69.53 28.55 75 28.55 37.5 34.02 42.97"/><polygon class="cls-3" points="57.1 37.5 57.1 75 51.64 69.53 51.64 42.97 57.1 37.5"/><polygon class="cls-4" points="57.1 75 28.55 75 34.02 69.53 51.64 69.53 57.1 75"/><rect class="cls-5" x="34.02" y="42.97" width="17.62" height="26.57"/><polygon class="cls-1" points="85.66 37.5 80.19 42.97 62.57 42.97 57.1 37.5 85.66 37.5"/><polygon class="cls-2" points="62.57 42.97 62.57 69.53 57.1 75 57.1 37.5 62.57 42.97"/><polygon class="cls-3" points="85.66 37.5 85.66 75 80.19 69.53 80.19 42.97 85.66 37.5"/><polygon class="cls-4" points="85.66 75 57.1 75 62.57 69.53 80.19 69.53 85.66 75"/><rect class="cls-5" x="62.57" y="42.97" width="17.62" height="26.57"/><polygon class="cls-1" points="28.55 75 23.09 80.47 5.47 80.47 0 75 28.55 75"/><polygon class="cls-2" points="5.47 80.47 5.47 107.03 0 112.5 0 75 5.47 80.47"/><polygon class="cls-3" points="28.55 75 28.55 112.5 23.09 107.03 23.09 80.47 28.55 75"/><polygon class="cls-4" points="28.55 112.5 0 112.5 5.47 107.03 23.09 107.03 28.55 112.5"/><rect class="cls-5" x="5.47" y="80.47" width="17.62" height="26.57"/><polygon class="cls-1" points="57.1 75 51.64 80.47 34.02 80.47 28.55 75 57.1 75"/><polygon class="cls-2" points="34.02 80.47 34.02 107.03 28.55 112.5 28.55 75 34.02 80.47"/><polygon class="cls-3" points="57.1 75 57.1 112.5 51.64 107.03 51.64 80.47 57.1 75"/><polygon class="cls-4" points="57.1 112.5 28.55 112.5 34.02 107.03 51.64 107.03 57.1 112.5"/><rect class="cls-5" x="34.02" y="80.47" width="17.62" height="26.57"/><polygon class="cls-1" points="85.66 75 80.19 80.47 62.57 80.47 57.1 75 85.66 75"/><polygon class="cls-2" points="62.57 80.47 62.57 107.03 57.1 112.5 57.1 75 62.57 80.47"/><polygon class="cls-3" points="85.66 75 85.66 112.5 80.19 107.03 80.19 80.47 85.66 75"/><polygon class="cls-4" points="85.66 112.5 57.1 112.5 62.57 107.03 80.19 107.03 85.66 112.5"/><rect class="cls-5" x="62.57" y="80.47" width="17.62" height="26.57"/><polygon class="cls-1" points="28.55 112.5 23.09 117.97 5.47 117.97 0 112.5 28.55 112.5"/><polygon class="cls-2" points="5.47 117.97 5.47 144.53 0 150 0 112.5 5.47 117.97"/><polygon class="cls-3" points="28.55 112.5 28.55 150 23.09 144.53 23.09 117.97 28.55 112.5"/><polygon class="cls-4" points="28.55 150 0 150 5.47 144.53 23.09 144.53 28.55 150"/><rect class="cls-5" x="5.47" y="117.97" width="17.62" height="26.57"/><polygon class="cls-1" points="57.1 112.5 51.64 117.97 34.02 117.97 28.55 112.5 57.1 112.5"/><polygon class="cls-2" points="34.02 117.97 34.02 144.53 28.55 150 28.55 112.5 34.02 117.97"/><polygon class="cls-3" points="57.1 112.5 57.1 150 51.64 144.53 51.64 117.97 57.1 112.5"/><polygon class="cls-4" points="57.1 150 28.55 150 34.02 144.53 51.64 144.53 57.1 150"/><rect class="cls-5" x="34.02" y="117.97" width="17.62" height="26.57"/><polygon class="cls-1" points="85.66 112.5 80.19 117.97 62.57 117.97 57.1 112.5 85.66 112.5"/><polygon class="cls-2" points="62.57 117.97 62.57 144.53 57.1 150 57.1 112.5 62.57 117.97"/><polygon class="cls-3" points="85.66 112.5 85.66 150 80.19 144.53 80.19 117.97 85.66 112.5"/><polygon class="cls-4" points="85.66 150 57.1 150 62.57 144.53 80.19 144.53 85.66 150"/><rect class="cls-5" x="62.57" y="117.97" width="17.62" height="26.57"/></g></g></g></svg>